<svg xmlns="http://www.w3.org/2000/svg" width="31" height="31" viewBox="0 0 31 31"><defs><style>.a{fill:#208ce1;}.b,.d{fill:none;}.b{stroke:#707070;opacity:0;}.c{stroke:none;}</style></defs><g transform="translate(4 3)"><path class="a" d="M21.155,958.362c-3.051,0-5.389,2.982-5.389,6.534s2.338,6.534,5.389,6.534,5.4-2.982,5.4-6.534-2.347-6.534-5.4-6.534ZM18.838,972c-4.422.577-7.994,2.58-8.816,5.442a.573.573,0,0,0,0,.311A7.04,7.04,0,0,0,14,981.808a17.031,17.031,0,0,0,7.36,1.554,17.072,17.072,0,0,0,7.369-1.554,7.04,7.04,0,0,0,3.977-4.057.572.572,0,0,0,0-.311c-.822-2.862-4.395-4.865-8.816-5.442a.579.579,0,0,0-.5.186l-2.033,2.326-2.024-2.326a.579.579,0,0,0-.5-.186Z" transform="translate(-10 -958.362)"/></g><g class="b"><rect class="c" width="31" height="31"/><rect class="d" x="0.5" y="0.5" width="30" height="30"/></g></svg>