<svg xmlns="http://www.w3.org/2000/svg" xmlns:xlink="http://www.w3.org/1999/xlink" width="50" height="50" viewBox="0 0 50 50"><defs><style>.a{fill:#fff;stroke:#707070;}.b{clip-path:url(#a);}.c{fill:#208ce1;stroke:#208ce1;stroke-width:0.3px;}</style><clipPath id="a"><rect class="a" width="50" height="50" transform="translate(-889 -8167)"/></clipPath></defs><g class="b" transform="translate(889 8167)"><g transform="translate(-886 -8164)"><path class="c" d="M23.4,43.263a.22.22,0,0,1-.05,0H16.36a2.328,2.328,0,0,1-2.325-2.325V37.379a.578.578,0,0,1,1.157,0v3.555A1.17,1.17,0,0,0,16.36,42.1h6.32q.006-.237.012-.555a10.756,10.756,0,0,0-1.238-3.64,36.754,36.754,0,0,0-2.576-3.956,11.035,11.035,0,0,1-2.387,1.018c-6.755,2.078-9.4-3.2-10.233-5.579A33.87,33.87,0,0,1,4.3,20.236a.645.645,0,0,1,.214-.72c.2-.165-.529.183.469-.209,1.212-.206,6.667-1.573,12.373.077a6.794,6.794,0,0,1,4.708,4.257,9.831,9.831,0,0,1-.413,7.426,9.446,9.446,0,0,1-1.82,2.217,38.039,38.039,0,0,1,2.637,4.056c.143.254.278.513.4.783.312-4.384,1.134-11.147,3.308-16.769a8.364,8.364,0,0,1-3.86-9.312c0-.019.008-.035.012-.054C24.01,6.389,33.2,2.742,33.642,2.572a.564.564,0,0,1,.339-.027h0a.466.466,0,0,1,.069.019h0a.6.6,0,0,1,.278.208c.2.274,4.037,5.684,4.531,11.548a7.5,7.5,0,0,1-4.076,7.091,7.962,7.962,0,0,1-7.6.524c-2.7,7.141-3.231,16.337-3.331,19.565.031.2.054.4.077.605h2.973a1.17,1.17,0,0,0,1.168-1.168V28.649a.578.578,0,0,1,.578-.578H40.938A1.17,1.17,0,0,0,42.106,26.9V16.36a1.17,1.17,0,0,0-1.168-1.168.578.578,0,0,1,0-1.157,2.328,2.328,0,0,1,2.325,2.325V26.9a2.328,2.328,0,0,1-2.325,2.325H29.227V40.934A2.328,2.328,0,0,1,26.9,43.259H23.44A.158.158,0,0,1,23.4,43.263ZM5.549,21.211a33.116,33.116,0,0,0,1.8,7.777s0,.008,0,.012c1.966,5.653,5.872,5.761,8.8,4.862a9.826,9.826,0,0,0,2.013-.841,58.488,58.488,0,0,0-7.854-7.881C8.452,23.544,6.817,22.214,5.549,21.211Zm.613-.991c1.292,1.018,2.981,2.391,4.9,4.041a59.1,59.1,0,0,1,8.055,8.1,8.383,8.383,0,0,0,1.565-1.928,8.825,8.825,0,0,0,.293-6.393,5.6,5.6,0,0,0-3.945-3.544A23.555,23.555,0,0,0,6.162,20.22Zm21.458.636a6.756,6.756,0,0,0,6.586-.443,6.367,6.367,0,0,0,3.5-5.992h0a24.527,24.527,0,0,0-3.663-9.964,144.341,144.341,0,0,1-6.131,15.728C27.812,20.4,27.716,20.629,27.619,20.856ZM23.436,12.3c-.968,4.87,1.9,7.21,3.17,7.982l.254-.578A144.087,144.087,0,0,0,32.929,4.137C30.446,5.283,24.654,8.325,23.436,12.3ZM3.682,29.227H2.325A2.328,2.328,0,0,1,0,26.9V16.36a2.328,2.328,0,0,1,2.325-2.325H14.031V2.325A2.331,2.331,0,0,1,16.36,0H26.9a2.328,2.328,0,0,1,2.325,2.325.578.578,0,0,1-1.157,0A1.17,1.17,0,0,0,26.9,1.157H16.36a1.17,1.17,0,0,0-1.168,1.168V14.61a.578.578,0,0,1-.578.578H2.325A1.171,1.171,0,0,0,1.157,16.36V26.9a1.17,1.17,0,0,0,1.168,1.168H3.682a.578.578,0,0,1,0,1.157Z"/></g></g></svg>