<svg xmlns="http://www.w3.org/2000/svg" width="120.566" height="35.733" viewBox="0 0 120.566 35.733"><defs><style>.a{fill:#fff;}.b{fill:#3d3d3d;}</style></defs><path class="a" d="M129.653,41.4a3.422,3.422,0,0,1-3.426,3.422H14.111a3.427,3.427,0,0,1-3.43-3.422V14.107a3.431,3.431,0,0,1,3.43-3.427H126.226a3.426,3.426,0,0,1,3.426,3.427V41.4Z" transform="translate(-9.885 -9.884)"/><path class="b" d="M116.341,35.733H4.226A4.227,4.227,0,0,1,0,31.514V4.223A4.229,4.229,0,0,1,4.226,0H116.34a4.231,4.231,0,0,1,4.226,4.223V31.514a4.226,4.226,0,0,1-4.225,4.219Z"/><path d="M129.653,41.4a3.422,3.422,0,0,1-3.426,3.422H14.111a3.427,3.427,0,0,1-3.43-3.422V14.107a3.431,3.431,0,0,1,3.43-3.427H126.226a3.426,3.426,0,0,1,3.426,3.427V41.4Z" transform="translate(-9.885 -9.884)"/><path class="a" d="M169,86.727a5.18,5.18,0,0,1,2.467-4.346,5.305,5.305,0,0,0-4.178-2.259c-1.758-.185-3.463,1.052-4.358,1.052-.913,0-2.292-1.034-3.778-1a5.563,5.563,0,0,0-4.682,2.856c-2.025,3.505-.515,8.657,1.425,11.49.97,1.389,2.1,2.937,3.589,2.883,1.452-.059,1.994-.925,3.747-.925,1.736,0,2.246.925,3.759.89,1.558-.024,2.54-1.394,3.476-2.794a11.455,11.455,0,0,0,1.59-3.237A5.011,5.011,0,0,1,169,86.727Zm-2.859-8.469A5.1,5.1,0,0,0,167.3,74.6a5.194,5.194,0,0,0-3.358,1.737,4.852,4.852,0,0,0-1.2,3.519,4.29,4.29,0,0,0,3.388-1.6Z" transform="translate(-142.073 -69.049)"/><g transform="translate(37.914 16.083)"><path class="a" d="M519.2,228.057H517.17l-1.111-3.493h-3.864l-1.059,3.493H509.16l3.829-11.892h2.364Zm-3.476-4.958-1.005-3.105q-.159-.476-.6-2.24h-.036q-.177.759-.565,2.24l-.988,3.105h3.194Zm13.3.566a4.855,4.855,0,0,1-1.189,3.457,3.485,3.485,0,0,1-2.643,1.129,2.646,2.646,0,0,1-2.448-1.216v4.5h-1.905V222.3q0-1.374-.071-2.818h1.675l.106,1.359h.036a3.389,3.389,0,0,1,5.425-.337,4.743,4.743,0,0,1,1.013,3.16Zm-1.941.07a3.535,3.535,0,0,0-.565-2.065,1.952,1.952,0,0,0-1.659-.846,1.982,1.982,0,0,0-1.279.467,2.168,2.168,0,0,0-.75,1.227,2.482,2.482,0,0,0-.089.58v1.431a2.294,2.294,0,0,0,.574,1.58,1.9,1.9,0,0,0,1.491.644,1.952,1.952,0,0,0,1.675-.829A3.649,3.649,0,0,0,527.086,223.734Zm11.8-.07a4.856,4.856,0,0,1-1.188,3.457,3.487,3.487,0,0,1-2.644,1.129,2.646,2.646,0,0,1-2.449-1.216v4.5h-1.9V222.3q0-1.374-.071-2.818h1.675l.106,1.359h.036a3.39,3.39,0,0,1,5.426-.337,4.746,4.746,0,0,1,1.013,3.16Zm-1.942.07a3.535,3.535,0,0,0-.566-2.065,1.949,1.949,0,0,0-1.657-.846,1.99,1.99,0,0,0-1.28.467,2.167,2.167,0,0,0-.749,1.227,2.548,2.548,0,0,0-.089.58v1.431a2.3,2.3,0,0,0,.573,1.58,1.908,1.908,0,0,0,1.492.644,1.951,1.951,0,0,0,1.676-.829A3.651,3.651,0,0,0,536.947,223.734Zm12.969.987a3.176,3.176,0,0,1-1.057,2.471,4.685,4.685,0,0,1-3.239,1.041,5.654,5.654,0,0,1-3.079-.741l.44-1.588a5.3,5.3,0,0,0,2.752.742,2.6,2.6,0,0,0,1.675-.485,1.585,1.585,0,0,0,.6-1.3,1.66,1.66,0,0,0-.5-1.218,4.589,4.589,0,0,0-1.64-.917q-3.123-1.165-3.124-3.406a3.007,3.007,0,0,1,1.1-2.4,4.36,4.36,0,0,1,2.92-.935,5.771,5.771,0,0,1,2.7.565l-.478,1.553a4.72,4.72,0,0,0-2.285-.547,2.324,2.324,0,0,0-1.576.494,1.414,1.414,0,0,0-.478,1.078,1.457,1.457,0,0,0,.548,1.164,6.174,6.174,0,0,0,1.728.917,5.859,5.859,0,0,1,2.258,1.446A3.013,3.013,0,0,1,549.916,224.722Zm6.315-3.809h-2.1v4.163q0,1.588,1.112,1.587a3.351,3.351,0,0,0,.846-.088l.053,1.447a4.314,4.314,0,0,1-1.482.211,2.283,2.283,0,0,1-1.765-.689,3.378,3.378,0,0,1-.635-2.312v-4.322h-1.251v-1.43h1.251v-1.57l1.871-.565v2.135h2.1Zm9.456,2.787a4.7,4.7,0,0,1-1.13,3.246,4.026,4.026,0,0,1-3.14,1.305A3.838,3.838,0,0,1,558.408,227a4.561,4.561,0,0,1-1.121-3.158,4.665,4.665,0,0,1,1.155-3.263,4,4,0,0,1,3.115-1.271,3.918,3.918,0,0,1,3.034,1.253A4.5,4.5,0,0,1,565.687,223.7Zm-1.975.044a3.839,3.839,0,0,0-.51-2.023,1.886,1.886,0,0,0-1.712-1.021,1.913,1.913,0,0,0-1.747,1.021,3.9,3.9,0,0,0-.511,2.059,3.829,3.829,0,0,0,.511,2.024,1.954,1.954,0,0,0,3.443-.017A3.855,3.855,0,0,0,563.712,223.743Zm8.169-2.585a3.309,3.309,0,0,0-.6-.053,1.8,1.8,0,0,0-1.553.76,2.861,2.861,0,0,0-.475,1.693v4.5h-1.905v-5.874q0-1.481-.055-2.7h1.659l.07,1.641h.053a2.942,2.942,0,0,1,.953-1.359,2.3,2.3,0,0,1,1.377-.459,3.049,3.049,0,0,1,.476.035Zm8.521,2.206a4.464,4.464,0,0,1-.07.864h-5.715a2.487,2.487,0,0,0,.829,1.943,2.836,2.836,0,0,0,1.869.6,6.322,6.322,0,0,0,2.313-.4l.3,1.322a7.149,7.149,0,0,1-2.875.53,4.167,4.167,0,0,1-3.133-1.172,4.334,4.334,0,0,1-1.137-3.149,4.912,4.912,0,0,1,1.06-3.228,3.651,3.651,0,0,1,3-1.375,3.2,3.2,0,0,1,2.807,1.375A4.628,4.628,0,0,1,580.4,223.364Zm-1.817-.494a2.577,2.577,0,0,0-.37-1.465,1.663,1.663,0,0,0-1.517-.8,1.806,1.806,0,0,0-1.516.777,2.846,2.846,0,0,0-.564,1.482Z" transform="translate(-509.16 -215.99)"/></g><g transform="translate(38.624 5.856)"><path class="a" d="M523.623,84.784h-1l-.546-1.717h-1.9l-.521,1.717h-.971l1.882-5.845h1.162Zm-1.708-2.437-.494-1.526c-.052-.156-.148-.52-.295-1.1h-.018c-.061.251-.147.616-.278,1.1l-.485,1.526Zm6.414-1.777-1.6,4.214h-.911l-1.544-4.214h1.006L526,82.8c.122.373.225.728.3,1.066h.026c.07-.3.173-.659.3-1.066l.711-2.229Zm3.4,4.214-.07-.485h-.026a1.437,1.437,0,0,1-1.231.581,1.226,1.226,0,0,1-1.292-1.24c0-1.04.9-1.578,2.463-1.578v-.078c0-.555-.295-.833-.876-.833a1.968,1.968,0,0,0-1.1.313l-.19-.616a2.7,2.7,0,0,1,1.448-.365c1.1,0,1.657.581,1.657,1.743v1.552a6.264,6.264,0,0,0,.061,1.006Zm-.131-2.1c-1.041,0-1.561.252-1.561.85a.6.6,0,0,0,.642.659.9.9,0,0,0,.919-.858Zm3-2.809a.56.56,0,1,1,.59-.564A.55.55,0,0,1,534.594,79.875Zm.486,4.908h-.936V80.57h.936Zm2.6,0h-.937V78.636h.937Zm3.98,0-.07-.485h-.026a1.437,1.437,0,0,1-1.231.581,1.227,1.227,0,0,1-1.292-1.24c0-1.04.9-1.578,2.463-1.578v-.078c0-.555-.295-.833-.876-.833a1.968,1.968,0,0,0-1.1.313l-.191-.617a2.7,2.7,0,0,1,1.448-.365c1.1,0,1.657.581,1.657,1.743v1.552a6.493,6.493,0,0,0,.06,1.006h-.841Zm-.13-2.1c-1.041,0-1.561.252-1.561.85a.6.6,0,0,0,.641.659.9.9,0,0,0,.92-.858Zm4.706,2.195a1.43,1.43,0,0,1-1.325-.746h-.019l-.054.651h-.8c.026-.338.035-.72.035-1.136V78.636h.937v2.55h.018a1.446,1.446,0,0,1,1.344-.7c1.015,0,1.726.868,1.726,2.133A2.028,2.028,0,0,1,546.235,84.879Zm-.19-3.66a1.077,1.077,0,0,0-1.032,1.119v.737a1.032,1.032,0,0,0,1.016,1.058c.7,0,1.119-.572,1.119-1.482C547.146,81.8,546.712,81.219,546.045,81.219Zm4.376,3.564h-.935V78.636h.935Zm5.1-1.882h-2.811a1.209,1.209,0,0,0,1.327,1.248,3.16,3.16,0,0,0,1.136-.2l.146.651a3.514,3.514,0,0,1-1.413.26,1.957,1.957,0,0,1-2.1-2.124,2.058,2.058,0,0,1,1.994-2.263,2.091,2.091,0,0,1,1.721,2.428Zm-.859-.668c0-.651-.33-1.11-.928-1.11a1.112,1.112,0,0,0-1.024,1.11Zm6.535,2.645a2.006,2.006,0,0,1-2.029-2.168,2.053,2.053,0,0,1,2.1-2.229,1.99,1.99,0,0,1,2.029,2.16A2.065,2.065,0,0,1,561.195,84.879Zm.036-3.712c-.676,0-1.11.633-1.11,1.517,0,.868.442,1.5,1.1,1.5s1.1-.676,1.1-1.518C562.322,81.809,561.889,81.167,561.23,81.167Zm7.1,3.616h-.936v-2.42c0-.745-.286-1.119-.85-1.119a.973.973,0,0,0-.937,1.032v2.506h-.935v-3.01c0-.373-.01-.772-.035-1.205h.824l.044.651h.026a1.512,1.512,0,0,1,1.335-.737c.884,0,1.464.676,1.464,1.777v2.524Zm6.128-3.512h-1.03v2.046q0,.781.545.781a1.854,1.854,0,0,0,.416-.044l.026.711a2.086,2.086,0,0,1-.727.1c-.738,0-1.179-.407-1.179-1.474V81.272h-.615v-.7h.615V79.8l.919-.278v1.049h1.03Zm4.959,3.512h-.937v-2.4c0-.754-.286-1.136-.85-1.136a.917.917,0,0,0-.936,1v2.54h-.937V78.636h.937v2.531h.018a1.418,1.418,0,0,1,1.266-.685c.893,0,1.439.693,1.439,1.8ZM584.2,82.9h-2.81a1.208,1.208,0,0,0,1.326,1.248,3.158,3.158,0,0,0,1.136-.2L584,84.6a3.517,3.517,0,0,1-1.414.26,1.956,1.956,0,0,1-2.1-2.124,2.058,2.058,0,0,1,1.994-2.263,1.771,1.771,0,0,1,1.752,2A1.817,1.817,0,0,1,584.2,82.9Zm-.859-.668c0-.651-.329-1.11-.927-1.11a1.111,1.111,0,0,0-1.024,1.11Z" transform="translate(-518.688 -78.636)"/></g></svg>