<svg xmlns="http://www.w3.org/2000/svg" width="25.902" height="25.358" viewBox="0 0 25.902 25.358"><defs><style>.a,.b{fill:none;stroke:#208ce1;stroke-width:1.5px;}.a{stroke-miterlimit:10;}</style></defs><g transform="translate(-678.404 -317.483)"><path class="a" d="M690.457,397.388H681.25a2.1,2.1,0,0,1-2.1-2.1V381.1a2.1,2.1,0,0,1,2.1-2.1h16.718a2.1,2.1,0,0,1,2.1,2.1v6.077" transform="translate(0 -58.835)"/><line class="a" y2="5.724" transform="translate(684.109 317.483)"/><line class="a" y2="5.724" transform="translate(695.586 317.483)"/><line class="a" x2="20.91" transform="translate(679.154 326.685)"/><line class="a" x2="5.738" transform="translate(682.544 330.423)"/><path class="b" d="M0,0H2.769" transform="translate(682.544 334.684)"/><circle class="a" cx="5.964" cy="5.964" r="5.964" transform="translate(691.626 330.163)"/><path class="a" d="M1097.273,691.553v3.684h3.111" transform="translate(-399.899 -358.597)"/></g></svg>