<svg xmlns="http://www.w3.org/2000/svg" width="14.422" height="14.478" viewBox="0 0 14.422 14.478"><defs><style>.a{fill:#208ce1;}</style></defs><path class="a" d="M32.741,14.262h1.58a6.147,6.147,0,0,1,1.449,3.977,6.222,6.222,0,0,1-.191,1.536L34.04,17.453H32.534l-.65-.978v-.788Zm-5.1-1.855v.561l1.5,2.255-1.127,1.87H27.9l-.856-1.285-.877,1.45,1.274,1.91H29.55l.8,1.2v.377L28.77,21.875l-1.293,2.139a6.26,6.26,0,0,1-.841-.392V19.273l-1.768-2.655H23.7A6.158,6.158,0,0,1,27.644,12.407Zm5.929,11.887a7.2,7.2,0,1,0-3.953,1.188,7.144,7.144,0,0,0,3.247-.779Z" transform="translate(-22.411 -11.003)"/></svg>