<svg xmlns="http://www.w3.org/2000/svg" width="119.404" height="34.265" viewBox="0 0 119.404 34.265"><defs><style>.a{fill:#fff;}</style></defs><g transform="translate(-1520.795 -23.798)"><path class="a" d="M130.085,41.511a3.435,3.435,0,0,1-3.438,3.435H14.124a3.439,3.439,0,0,1-3.443-3.435V14.119a3.443,3.443,0,0,1,3.443-3.439H126.645a3.439,3.439,0,0,1,3.438,3.439V41.511Z" transform="translate(1510.114 13.118)"/><path d="M130.085,41.511a3.435,3.435,0,0,1-3.438,3.435H14.124a3.439,3.439,0,0,1-3.443-3.435V14.119a3.443,3.443,0,0,1,3.443-3.439H126.645a3.439,3.439,0,0,1,3.438,3.439V41.511Z" transform="translate(1510.114 13.118)"/><path class="a" d="M169.051,86.771a5.2,5.2,0,0,1,2.476-4.362,5.325,5.325,0,0,0-4.193-2.267c-1.764-.186-3.475,1.056-4.374,1.056-.917,0-2.3-1.038-3.792-1.007a5.583,5.583,0,0,0-4.7,2.866c-2.032,3.518-.517,8.688,1.43,11.532.974,1.394,2.112,2.948,3.6,2.893,1.457-.059,2-.928,3.76-.928,1.742,0,2.254.928,3.773.893,1.564-.024,2.549-1.4,3.489-2.8a11.5,11.5,0,0,0,1.6-3.249A5.029,5.029,0,0,1,169.051,86.771Zm-2.87-8.5a5.117,5.117,0,0,0,1.171-3.667,5.213,5.213,0,0,0-3.37,1.743,4.87,4.87,0,0,0-1.2,3.532,4.305,4.305,0,0,0,3.4-1.608Z" transform="translate(1377.964 -46.029)"/><g transform="translate(1558.048 39.142)"><path class="a" d="M519.236,228.1H517.2l-1.116-3.506h-3.878l-1.063,3.506H509.16L513,216.167h2.373Zm-3.489-4.976-1.009-3.116q-.16-.478-.6-2.248H514.1q-.178.761-.567,2.248l-.992,3.116h3.205Zm13.352.568a4.873,4.873,0,0,1-1.193,3.47,3.5,3.5,0,0,1-2.653,1.134,2.656,2.656,0,0,1-2.457-1.221v4.515h-1.912v-9.267q0-1.379-.071-2.829h1.682l.107,1.364h.036a3.4,3.4,0,0,1,5.445-.338,4.759,4.759,0,0,1,1.017,3.171Zm-1.948.07a3.548,3.548,0,0,0-.567-2.073,1.959,1.959,0,0,0-1.665-.849,1.988,1.988,0,0,0-1.283.469,2.176,2.176,0,0,0-.752,1.231,2.5,2.5,0,0,0-.089.582v1.436a2.3,2.3,0,0,0,.576,1.586,1.911,1.911,0,0,0,1.5.647,1.959,1.959,0,0,0,1.682-.832A3.664,3.664,0,0,0,527.151,223.763Zm11.846-.07a4.874,4.874,0,0,1-1.193,3.47,3.5,3.5,0,0,1-2.654,1.134,2.656,2.656,0,0,1-2.457-1.221v4.515h-1.912v-9.267q0-1.379-.071-2.829h1.682l.107,1.364h.036a3.4,3.4,0,0,1,5.445-.338A4.764,4.764,0,0,1,539,223.693Zm-1.949.07a3.547,3.547,0,0,0-.568-2.073,1.956,1.956,0,0,0-1.663-.849,2,2,0,0,0-1.285.469,2.175,2.175,0,0,0-.752,1.231,2.559,2.559,0,0,0-.09.582v1.436a2.31,2.31,0,0,0,.575,1.586,1.915,1.915,0,0,0,1.5.647,1.958,1.958,0,0,0,1.682-.832A3.664,3.664,0,0,0,537.048,223.763Zm13.016.991a3.188,3.188,0,0,1-1.061,2.48,4.7,4.7,0,0,1-3.251,1.045,5.675,5.675,0,0,1-3.09-.743l.442-1.594a5.319,5.319,0,0,0,2.762.744,2.606,2.606,0,0,0,1.682-.487,1.591,1.591,0,0,0,.6-1.3,1.667,1.667,0,0,0-.5-1.222,4.606,4.606,0,0,0-1.646-.92q-3.135-1.169-3.135-3.419a3.018,3.018,0,0,1,1.107-2.408,4.376,4.376,0,0,1,2.931-.939,5.791,5.791,0,0,1,2.709.567l-.48,1.559a4.737,4.737,0,0,0-2.293-.549,2.332,2.332,0,0,0-1.582.5,1.419,1.419,0,0,0-.48,1.082,1.462,1.462,0,0,0,.55,1.169,6.2,6.2,0,0,0,1.734.92,5.88,5.88,0,0,1,2.266,1.451A3.024,3.024,0,0,1,550.064,224.754Zm6.338-3.823h-2.107v4.178q0,1.594,1.116,1.593a3.363,3.363,0,0,0,.849-.089l.053,1.452a4.33,4.33,0,0,1-1.487.212,2.291,2.291,0,0,1-1.771-.691,3.39,3.39,0,0,1-.638-2.32v-4.338h-1.256v-1.435h1.256v-1.576l1.878-.567v2.142H556.4Zm9.49,2.8a4.721,4.721,0,0,1-1.134,3.258,4.041,4.041,0,0,1-3.151,1.31,3.852,3.852,0,0,1-3.02-1.256,4.578,4.578,0,0,1-1.125-3.169,4.682,4.682,0,0,1,1.16-3.275,4.02,4.02,0,0,1,3.126-1.275,3.933,3.933,0,0,1,3.045,1.257A4.517,4.517,0,0,1,565.892,223.728Zm-1.982.044a3.854,3.854,0,0,0-.512-2.03,1.893,1.893,0,0,0-1.718-1.025,1.92,1.92,0,0,0-1.753,1.025,3.917,3.917,0,0,0-.513,2.066,3.843,3.843,0,0,0,.513,2.031,1.961,1.961,0,0,0,3.456-.017A3.869,3.869,0,0,0,563.91,223.772Zm8.2-2.594a3.321,3.321,0,0,0-.6-.053,1.8,1.8,0,0,0-1.559.762,2.872,2.872,0,0,0-.477,1.7V228.1h-1.912v-5.9q0-1.486-.056-2.709h1.665l.07,1.646h.053a2.952,2.952,0,0,1,.956-1.364,2.312,2.312,0,0,1,1.382-.461,3.063,3.063,0,0,1,.478.035Zm8.552,2.214a4.489,4.489,0,0,1-.07.867h-5.736a2.5,2.5,0,0,0,.832,1.95,2.846,2.846,0,0,0,1.876.6,6.345,6.345,0,0,0,2.321-.406l.3,1.326a7.176,7.176,0,0,1-2.885.532,4.183,4.183,0,0,1-3.144-1.177,4.35,4.35,0,0,1-1.142-3.16,4.93,4.93,0,0,1,1.064-3.239,3.664,3.664,0,0,1,3.009-1.38,3.207,3.207,0,0,1,2.817,1.38A4.645,4.645,0,0,1,580.661,223.391Zm-1.823-.5a2.587,2.587,0,0,0-.371-1.47,1.669,1.669,0,0,0-1.523-.8,1.812,1.812,0,0,0-1.522.779,2.855,2.855,0,0,0-.566,1.487Z" transform="translate(-509.16 -215.99)"/></g><g transform="translate(1558.76 28.876)"><path class="a" d="M523.641,84.806h-1l-.548-1.723h-1.906l-.523,1.723h-.975l1.889-5.866h1.166Zm-1.715-2.446-.5-1.532c-.052-.157-.148-.522-.3-1.1h-.018c-.061.252-.148.618-.279,1.1l-.487,1.532Zm6.437-1.784-1.6,4.229h-.914l-1.55-4.229h1.01l.723,2.237c.122.374.226.731.3,1.07h.026c.07-.3.174-.661.3-1.07l.714-2.237Zm3.41,4.229-.07-.487h-.026a1.442,1.442,0,0,1-1.236.583,1.231,1.231,0,0,1-1.3-1.245c0-1.044.9-1.584,2.472-1.584V82c0-.557-.3-.836-.879-.836a1.975,1.975,0,0,0-1.1.314l-.191-.618a2.707,2.707,0,0,1,1.454-.366c1.1,0,1.663.583,1.663,1.75V83.8a6.3,6.3,0,0,0,.061,1.01Zm-.131-2.107c-1.045,0-1.567.253-1.567.853a.6.6,0,0,0,.644.661.9.9,0,0,0,.923-.861Zm3.009-2.82a.562.562,0,1,1,.592-.566A.552.552,0,0,1,534.651,79.88Zm.488,4.926h-.94V80.577h.94Zm2.61,0h-.94v-6.17h.94Zm3.994,0-.07-.487h-.026a1.442,1.442,0,0,1-1.236.583,1.231,1.231,0,0,1-1.3-1.245c0-1.044.9-1.584,2.472-1.584V82c0-.557-.3-.836-.879-.836a1.975,1.975,0,0,0-1.1.314l-.192-.619a2.707,2.707,0,0,1,1.454-.366c1.1,0,1.663.583,1.663,1.75V83.8a6.5,6.5,0,0,0,.06,1.01h-.844Zm-.131-2.107c-1.045,0-1.567.253-1.567.853a.6.6,0,0,0,.644.661.9.9,0,0,0,.923-.861Zm4.723,2.2a1.435,1.435,0,0,1-1.33-.749h-.019l-.054.653h-.8c.026-.339.035-.723.035-1.14v-5.03h.941V81.2h.018a1.451,1.451,0,0,1,1.349-.7c1.019,0,1.732.871,1.732,2.141A2.035,2.035,0,0,1,546.335,84.9Zm-.191-3.673a1.081,1.081,0,0,0-1.036,1.123v.74a1.036,1.036,0,0,0,1.02,1.062c.7,0,1.123-.574,1.123-1.488C547.25,81.813,546.814,81.229,546.144,81.229Zm4.392,3.577H549.6v-6.17h.939Zm5.116-1.889h-2.821a1.214,1.214,0,0,0,1.332,1.253,3.172,3.172,0,0,0,1.14-.2l.146.653a3.526,3.526,0,0,1-1.418.261,1.964,1.964,0,0,1-2.107-2.132,2.066,2.066,0,0,1,2-2.272,2.1,2.1,0,0,1,1.727,2.437Zm-.862-.67c0-.653-.331-1.114-.932-1.114a1.116,1.116,0,0,0-1.028,1.114Zm6.559,2.655a2.013,2.013,0,0,1-2.037-2.176,2.06,2.06,0,0,1,2.107-2.237,2,2,0,0,1,2.037,2.168A2.073,2.073,0,0,1,561.349,84.9Zm.036-3.725c-.679,0-1.114.635-1.114,1.523,0,.871.444,1.506,1.1,1.506s1.1-.679,1.1-1.524C562.481,81.821,562.046,81.177,561.385,81.177Zm7.124,3.629h-.939V82.378c0-.748-.287-1.123-.853-1.123a.977.977,0,0,0-.941,1.036v2.516h-.939v-3.02c0-.374-.01-.775-.035-1.21h.827l.044.653h.026a1.518,1.518,0,0,1,1.34-.74c.887,0,1.47.679,1.47,1.784v2.533Zm6.15-3.524h-1.034v2.054q0,.784.547.784a1.861,1.861,0,0,0,.418-.044l.026.714a2.094,2.094,0,0,1-.73.1c-.741,0-1.183-.409-1.183-1.48V81.282h-.617v-.7h.617V79.8l.922-.279v1.053h1.034Zm4.977,3.524h-.941V82.4c0-.757-.287-1.14-.853-1.14a.92.92,0,0,0-.939,1v2.55h-.941v-6.17h.941v2.541h.018a1.424,1.424,0,0,1,1.271-.688c.9,0,1.444.7,1.444,1.8Zm4.8-1.889h-2.82a1.213,1.213,0,0,0,1.331,1.253,3.17,3.17,0,0,0,1.14-.2l.147.653a3.531,3.531,0,0,1-1.419.261,1.964,1.964,0,0,1-2.107-2.132,2.066,2.066,0,0,1,2-2.272,1.777,1.777,0,0,1,1.758,2.011A1.823,1.823,0,0,1,584.438,82.917Zm-.862-.67c0-.653-.33-1.114-.931-1.114a1.115,1.115,0,0,0-1.028,1.114Z" transform="translate(-518.688 -78.636)"/></g></g></svg>