<svg xmlns="http://www.w3.org/2000/svg" xmlns:xlink="http://www.w3.org/1999/xlink" width="32" height="32" viewBox="0 0 32 32">
    <defs>
        <path id="ejswhjv1ia" d="M4 0h24c2.21 0 4 1.79 4 4v24c0 2.21-1.79 4-4 4H4c-2.21 0-4-1.79-4-4V4c0-2.21 1.79-4 4-4z"/>
    </defs>
    <g fill="none" fill-rule="evenodd">
        <g>
            <g>
                <g transform="translate(-179 -412) translate(179 412)">
                    <use fill="#EDF2F8" opacity=".8" xlink:href="#ejswhjv1ia"/>
                </g>
                <g>
                    <path fill="#00C694" d="M2.4 0h16.8c1.325 0 2.4 1.075 2.4 2.4v4.8c0 1.325-1.075 2.4-2.4 2.4H2.4C1.075 9.6 0 8.525 0 7.2V2.4C0 1.075 1.075 0 2.4 0z" transform="translate(-179 -412) translate(179 412) translate(5 19)"/>
                    <path fill="#FFF" fill-rule="nonzero" d="M4.778 7.5c1.661 0 2.668-1.028 2.668-2.733 0-1.699-1.007-2.722-2.652-2.722h-1.95V7.5h1.934zm-.048-.988h-.733V3.034h.735c1.023 0 1.564.522 1.564 1.733 0 1.218-.541 1.745-1.566 1.745zm6.127 1.063c1.446 0 2.554-1.018 2.554-2.802 0-1.785-1.108-2.802-2.554-2.802-1.454 0-2.554 1.017-2.554 2.802 0 1.776 1.1 2.802 2.554 2.802zm0-1.02c-.84 0-1.385-.626-1.385-1.782 0-1.156.546-1.782 1.385-1.782.836 0 1.385.626 1.385 1.782 0 1.156-.549 1.782-1.385 1.782zm5.951 1.02c1.398 0 2.243-.93 2.368-1.934l-1.167-.005c-.109.583-.567.919-1.182.919-.828 0-1.39-.616-1.39-1.782 0-1.135.554-1.782 1.398-1.782.631 0 1.086.365 1.174.964h1.167c-.152-1.26-1.105-1.984-2.368-1.984-1.44 0-2.54 1.017-2.54 2.802 0 1.779 1.08 2.802 2.54 2.802z" transform="translate(-179 -412) translate(179 412) translate(5 19)"/>
                </g>
                <g stroke="#59709B">
                    <path fill="#FFF" d="M14-.5c.69 0 1.315.28 1.768.732C16.22.685 16.5 1.31 16.5 2h0v7c0 .69-.28 1.315-.732 1.768-.453.452-1.078.732-1.768.732h0H2c-.69 0-1.315-.28-1.768-.732C-.22 10.315-.5 9.69-.5 9h0V2c0-.69.28-1.315.732-1.768C.685-.22 1.31-.5 2-.5h0z" transform="translate(-179 -412) translate(179 412) translate(8 5)"/>
                    <g stroke-linecap="round" stroke-linejoin="round">
                        <path d="M0 .5L9.391.5M0 3.333L6.391 3.333" transform="translate(-179 -412) translate(179 412) translate(8 5) translate(3 3)"/>
                    </g>
                </g>
            </g>
        </g>
    </g>
</svg>
