<svg xmlns="http://www.w3.org/2000/svg" width="47.72" height="28.96" viewBox="0 0 47.72 28.96"><defs><style>.a{fill:#f58634;}</style></defs><path class="a" d="M14.2.48A11.789,11.789,0,0,1,7.56-1.34,11.854,11.854,0,0,1,3.3-6.42,17.968,17.968,0,0,1,1.8-14a18,18,0,0,1,1.5-7.56,11.834,11.834,0,0,1,4.26-5.1,11.79,11.79,0,0,1,6.64-1.82,11.789,11.789,0,0,1,6.64,1.82,11.834,11.834,0,0,1,4.26,5.1A18,18,0,0,1,26.6-14a17.968,17.968,0,0,1-1.5,7.58,11.854,11.854,0,0,1-4.26,5.08A11.789,11.789,0,0,1,14.2.48Zm0-4.6a6.194,6.194,0,0,0,5.16-2.64,11.732,11.732,0,0,0,2-7.24,11.732,11.732,0,0,0-2-7.24,6.194,6.194,0,0,0-5.16-2.64,6.178,6.178,0,0,0-5.18,2.64A11.819,11.819,0,0,0,7.04-14,11.819,11.819,0,0,0,9.02-6.76,6.178,6.178,0,0,0,14.2-4.12ZM30.24,0V-3.72q2.56-2.12,4.98-4.2a53.986,53.986,0,0,0,4.32-4.12,23.085,23.085,0,0,0,3.04-3.98,7.447,7.447,0,0,0,1.14-3.78,5.108,5.108,0,0,0-.94-3.04,3.542,3.542,0,0,0-3.1-1.32,3.948,3.948,0,0,0-3.32,1.44,5.5,5.5,0,0,0-1.12,3.48H30.28a10.086,10.086,0,0,1,1.36-5.14,8.051,8.051,0,0,1,3.4-3.08,10.839,10.839,0,0,1,4.76-1.02,9.093,9.093,0,0,1,6.66,2.34,8.125,8.125,0,0,1,2.38,6.06,10.3,10.3,0,0,1-1.06,4.52A20.163,20.163,0,0,1,45-11.32,37.262,37.262,0,0,1,41.28-7.5q-2,1.78-3.88,3.3H49.52V0Z" transform="translate(-1.8 28.48)"/></svg>