<svg xmlns="http://www.w3.org/2000/svg" xmlns:xlink="http://www.w3.org/1999/xlink" width="55" height="55" viewBox="0 0 55 55"><defs><style>.a{fill:#fff;stroke:#707070;}.b{clip-path:url(#a);}.c{fill:#208ce1;}</style><clipPath id="a"><rect class="a" width="55" height="55" transform="translate(1024 1223)"/></clipPath></defs><g class="b" transform="translate(-1024 -1223)"><g transform="translate(1012 1219)"><path class="c" d="M50.8,5H29.2A4.174,4.174,0,0,0,25,9.2V54.8A4.174,4.174,0,0,0,29.2,59H50.8A4.174,4.174,0,0,0,55,54.8V9.2A4.174,4.174,0,0,0,50.8,5ZM27.4,14.6H52.6V49.4H27.4Zm1.8-7.2H50.8a1.768,1.768,0,0,1,1.8,1.8v3H27.4v-3A1.768,1.768,0,0,1,29.2,7.4ZM50.8,56.6H29.2a1.768,1.768,0,0,1-1.8-1.8v-3H52.6v3A1.768,1.768,0,0,1,50.8,56.6ZM37,9.8a1.2,1.2,0,0,1,1.2-1.2h3.6a1.2,1.2,0,0,1,0,2.4H38.2A1.2,1.2,0,0,1,37,9.8Zm4.2,44.4A1.2,1.2,0,1,1,40,53,1.2,1.2,0,0,1,41.2,54.2Z"/></g></g></svg>