<svg xmlns="http://www.w3.org/2000/svg" xmlns:xlink="http://www.w3.org/1999/xlink" width="50" height="50" viewBox="0 0 50 50"><defs><style>.a{fill:#fff;stroke:#707070;}.b{clip-path:url(#a);}.c{fill:#208ce1;}</style><clipPath id="a"><rect class="a" width="50" height="50" transform="translate(6082 1890)"/></clipPath></defs><g class="b" transform="translate(-6082 -1890)"><g transform="translate(6063.326 1756.777)"><path class="c" d="M21.2,159.687a8.285,8.285,0,0,1,.327-.846,2.941,2.941,0,0,1,5.275.108c.038.079.072.159.11.238a.47.47,0,0,0,.044.057c.868-.088,1.754-.166,2.634-.286.09-.012.21-.273.21-.419a14.174,14.174,0,0,1,1.125-5.629,13.818,13.818,0,0,1,3.848-5.2c.1-.084.195-.174.31-.277-.55-.754-1.085-1.5-1.644-2.232a.459.459,0,0,0-.394-.094,2.94,2.94,0,1,1,1.938-3.757,2.921,2.921,0,0,1-.383,2.628.508.508,0,0,0-.049.446c.513.745,1.056,1.469,1.6,2.208.627-.327,1.222-.662,1.838-.952a13.658,13.658,0,0,1,4.024-1.151,3.4,3.4,0,0,1,.481-.027.593.593,0,0,1,.656.565.62.62,0,0,1-.542.729c-.428.09-.866.128-1.3.2a11.56,11.56,0,0,0-4.313,1.755c.222.5.978.947.248,1.569-.351.3-.658.107-1.348-.75a12.287,12.287,0,0,0-4.718,10.216c.283-.02.567-.052.852-.056a.657.657,0,0,1,.723.6.684.684,0,0,1-.642.7c-.259.039-.518.069-.774.1-.277,2.784,3.294,7.937,6.477,9.316.087-.194.173-.39.262-.584.243-.529.59-.719.982-.538.368.17.457.55.244,1.056-.09.213-.18.425-.315.742.9.24,1.755.542,2.635.689a12.511,12.511,0,0,0,13.78-7.594,12.659,12.659,0,0,0-9.706-17.32c-.562-.092-.849-.41-.758-.818a.651.651,0,0,1,.836-.505c.983.2,1.959.433,3,.667.347-.779.734-1.625,1.092-2.482.034-.08-.085-.258-.174-.351a2.926,2.926,0,1,1,4.97-2.187,2.9,2.9,0,0,1-2.388,2.963c-.356.056-.721.049-1.153.076l-.553,1.245-.6,1.354a14.021,14.021,0,0,1,7.59,10.336c.878-.1,1.732-.181,2.582-.3.084-.011.177-.2.206-.324a2.946,2.946,0,0,1,5.777.3,2.982,2.982,0,0,1-2.011,3.182,2.952,2.952,0,0,1-3.508-1.444c-.06-.116-.116-.235-.188-.38l-2.712.288a13.98,13.98,0,0,1-5.28,11.788l1.553,2.136a2.86,2.86,0,0,1,2.631.176,2.939,2.939,0,0,1,.151,4.989,2.991,2.991,0,0,1-3.677-.358c-1.1-1.074-1.167-2.446-.182-4.025l-1.547-2.125A14.049,14.049,0,0,1,38.461,171.3c-.346.775-.694,1.525-1.005,2.291-.041.1.074.319.177.42a2.919,2.919,0,0,1-1.184,4.9,2.919,2.919,0,0,1-3.515-3.984,2.715,2.715,0,0,1,2.711-1.714.64.64,0,0,0,.731-.478c.266-.662.568-1.309.87-2a14.151,14.151,0,0,1-7.32-10.429,3.55,3.55,0,0,0-.394,0c-.741.08-1.482.156-2.219.26a.449.449,0,0,0-.314.258,2.937,2.937,0,0,1-5.726.02c-.008-.039-.048-.071-.072-.106ZM50.149,140.3a1.593,1.593,0,1,0,1.6-1.585A1.6,1.6,0,0,0,50.149,140.3Zm13.058,17.555a1.577,1.577,0,0,0,1.6-1.568,1.608,1.608,0,1,0-1.6,1.568ZM32.215,140.688a1.612,1.612,0,0,0-1.616,1.568,1.61,1.61,0,0,0,3.219.056A1.6,1.6,0,0,0,32.215,140.688Zm22.922,31.879a1.594,1.594,0,0,0-.057,3.186,1.594,1.594,0,1,0,.057-3.186ZM24.15,161.787a1.608,1.608,0,0,0,.025-3.216,1.608,1.608,0,1,0-.025,3.216Zm13.04,14.308A1.593,1.593,0,1,0,35.6,177.7,1.562,1.562,0,0,0,37.19,176.094Z"/><path class="c" d="M232.8,417.709a2.9,2.9,0,0,1-2.879,2.912,2.947,2.947,0,0,1-2.891-2.873,2.913,2.913,0,0,1,2.9-2.9A2.877,2.877,0,0,1,232.8,417.709Zm-2.885,1.562a1.561,1.561,0,0,0,1.57-1.545,1.6,1.6,0,0,0-1.571-1.56,1.562,1.562,0,0,0-1.533,1.539A1.522,1.522,0,0,0,229.915,419.271Z" transform="translate(-187.729 -253.053)"/><path class="c" d="M230.206,416.423a1.6,1.6,0,0,1-1.584,1.6,1.622,1.622,0,0,1-1.591-1.581,1.6,1.6,0,0,1,1.594-1.6A1.584,1.584,0,0,1,230.206,416.423Zm-1.588.86a.859.859,0,0,0,.864-.85.88.88,0,0,0-.865-.858.86.86,0,0,0-.843.847A.837.837,0,0,0,228.618,417.283Z" transform="translate(-192.331 -257.109)"/><path class="c" d="M214.037,292.034a3.035,3.035,0,0,1,2.444,1.154c.376.453.389.828.043,1.11-.319.26-.694.176-1.052-.249a1.878,1.878,0,0,0-3.3.91,1.8,1.8,0,0,0,.863,1.826,1.856,1.856,0,0,0,2.133-.093c.091-.073.17-.16.258-.237a.667.667,0,1,1,.937.938,3.051,3.051,0,0,1-3.111.92,3.184,3.184,0,0,1,.786-6.279Z" transform="translate(-172.941 -141.038)"/><path class="c" d="M310.77,292.031a2.089,2.089,0,0,1,2.1,2.12,2.1,2.1,0,1,1-4.207-.044A2.092,2.092,0,0,1,310.77,292.031Zm.781,2.09a.78.78,0,1,0-.783.783A.82.82,0,0,0,311.55,294.121Z" transform="translate(-262.187 -141.036)"/><path class="c" d="M308.681,372.851a1.911,1.911,0,0,1,1.924-1.916,1.939,1.939,0,0,1,1.92,1.932,1.967,1.967,0,0,1-1.914,1.91A1.944,1.944,0,0,1,308.681,372.851Zm2.49.017a.585.585,0,0,0-.553-.608.627.627,0,0,0-.612.565.587.587,0,0,0,.568.594A.554.554,0,0,0,311.171,372.868Z" transform="translate(-262.2 -213.001)"/><path class="c" d="M274.732,370.425a1.407,1.407,0,0,1-1.089-1.042.631.631,0,0,1,.654-.659,1.406,1.406,0,0,1,1.1,1.085A.657.657,0,0,1,274.732,370.425Z" transform="translate(-230.243 -210.984)"/><path class="c" d="M327.74,430.917c.091.071.335.175.419.353a.79.79,0,0,1-.014.643,2.146,2.146,0,0,1-.635.648.634.634,0,0,1-.977-.524A1.435,1.435,0,0,1,327.74,430.917Z" transform="translate(-278.483 -267.708)"/></g></g></svg>