<svg xmlns="http://www.w3.org/2000/svg" xmlns:xlink="http://www.w3.org/1999/xlink" width="50" height="50" viewBox="0 0 50 50"><defs><style>.a{fill:#fff;stroke:#707070;}.b{clip-path:url(#a);}.c,.d,.e{fill:none;stroke:#208ce1;stroke-width:1.5px;}.c,.e{stroke-linecap:round;}.c{stroke-linejoin:round;}.f{fill:#e2e8f3;}</style><clipPath id="a"><rect class="a" width="50" height="50" transform="translate(6832 2180)"/></clipPath></defs><g transform="translate(-312 -2626)"><g class="b" transform="translate(-6520 446)"><g transform="translate(39.125 -0.322)"><path class="c" d="M6811.946,2181.322s1.566,11.549-3.034,16.737,2.251,6.166,5.774,5.089,7.732-2.251,10.277-2.251,4.013-1.273,1.468-5.285-2.937-10.57-2.545-14.29C6817.524,2181.42,6811.946,2181.322,6811.946,2181.322Z"/><path class="d" d="M6812.043,2228.889s1.468-11.158-2.838-16.639,3.523-2.349,6.949-4.208,11.015-3.454,12.9-.371-4.873,6.634-5.362,12.7,0,8.515,0,8.515Z"/><path class="e" d="M6803.433,2194.927a19.142,19.142,0,0,0,.489,19.868"/><path class="e" d="M6801.364,2194.927a19.142,19.142,0,0,1-.489,19.868" transform="translate(32 0.139)"/></g></g><path class="f" d="M7585.757,2645.652c-1.961,1.079-.392,2.745,4.02.588s7.647-1.863,8.628-1.667a1.128,1.128,0,0,0,0-2.255C7596.444,2641.926,7587.718,2644.573,7585.757,2645.652Z" transform="translate(-7255)"/></g></svg>