<svg xmlns="http://www.w3.org/2000/svg" width="48.12" height="28.96" viewBox="0 0 48.12 28.96"><defs><style>.a{fill:#f58634;}</style></defs><path class="a" d="M14.2.48A11.789,11.789,0,0,1,7.56-1.34,11.854,11.854,0,0,1,3.3-6.42,17.968,17.968,0,0,1,1.8-14a18,18,0,0,1,1.5-7.56,11.834,11.834,0,0,1,4.26-5.1,11.79,11.79,0,0,1,6.64-1.82,11.789,11.789,0,0,1,6.64,1.82,11.834,11.834,0,0,1,4.26,5.1A18,18,0,0,1,26.6-14a17.968,17.968,0,0,1-1.5,7.58,11.854,11.854,0,0,1-4.26,5.08A11.789,11.789,0,0,1,14.2.48Zm0-4.6a6.194,6.194,0,0,0,5.16-2.64,11.732,11.732,0,0,0,2-7.24,11.732,11.732,0,0,0-2-7.24,6.194,6.194,0,0,0-5.16-2.64,6.178,6.178,0,0,0-5.18,2.64A11.819,11.819,0,0,0,7.04-14,11.819,11.819,0,0,0,9.02-6.76,6.178,6.178,0,0,0,14.2-4.12ZM40.28.48a12.346,12.346,0,0,1-5-.98,8.186,8.186,0,0,1-3.6-3.02,9.5,9.5,0,0,1-1.44-5.12h5.04a4.946,4.946,0,0,0,1.34,3.42,4.785,4.785,0,0,0,3.66,1.38,4.567,4.567,0,0,0,3.44-1.24,4.306,4.306,0,0,0,1.2-3.12,3.858,3.858,0,0,0-1.58-3.34,6.771,6.771,0,0,0-4.06-1.14H37.2v-4.2h2.12a5.751,5.751,0,0,0,3.4-.96,3.252,3.252,0,0,0,1.36-2.84,3.237,3.237,0,0,0-1.02-2.5,4,4,0,0,0-2.82-.94,4.015,4.015,0,0,0-3.06,1.16,4.458,4.458,0,0,0-1.22,2.84h-5a8.222,8.222,0,0,1,2.7-6.12,9.581,9.581,0,0,1,6.58-2.24,10.523,10.523,0,0,1,4.86,1.02,7.324,7.324,0,0,1,3,2.7,7.03,7.03,0,0,1,1.02,3.72,6.157,6.157,0,0,1-1.3,3.98,6.323,6.323,0,0,1-3.22,2.18,6.454,6.454,0,0,1,3.84,2.3A7.023,7.023,0,0,1,49.92-8,8.262,8.262,0,0,1,48.8-3.76,8.179,8.179,0,0,1,45.54-.68,10.918,10.918,0,0,1,40.28.48Z" transform="translate(-1.8 28.48)"/></svg>