<svg xmlns="http://www.w3.org/2000/svg" xmlns:xlink="http://www.w3.org/1999/xlink" width="40" height="40" viewBox="0 0 40 40"><defs><style>.a{fill:#fff;stroke:#707070;}.b{clip-path:url(#a);}</style><clipPath id="a"><rect class="a" width="40" height="40" transform="translate(1364 354)"/></clipPath></defs><g class="b" transform="translate(-1364 -354)"><g transform="translate(1364 360.855)"><path d="M-390.222,303.343a5.206,5.206,0,0,0-.813-2.91,4.932,4.932,0,0,0-5.356-2.08,4.912,4.912,0,0,0-3.649,4.435c-.022.448-.162.562-.591.56-3.012-.015-6.025-.005-9.038,0-.142,0-.285-.014-.474-.024a4.944,4.944,0,0,0-1.889-4.067,4.862,4.862,0,0,0-3.241-1.049c-2.55.051-4.214,1.82-4.766,5.08a11.735,11.735,0,0,1-1.95-.02,2.04,2.04,0,0,1-1.682-2.121c-.012-3-.006-5.993,0-8.989q0-4.543.006-9.086a2.233,2.233,0,0,1,2.552-2.544q9.738,0,19.477,0c.4,0,.806-.014,1.208,0a2.108,2.108,0,0,1,2.143,1.954c.08.992.035,2,.042,2.993,0,.643,0,.642.622.644.677,0,1.354-.009,2.03.01a3.75,3.75,0,0,1,3.443,2.179c.528,1.032,1.052,2.068,1.532,3.122a2.825,2.825,0,0,0,1.949,1.658c.794.207,1.6.38,2.39.589a3.152,3.152,0,0,1,2.682,3.435c.012,1.321.009,2.642,0,3.963a2.141,2.141,0,0,1-2.23,2.266C-387.274,303.354-388.721,303.343-390.222,303.343Zm-22.862-14.881c-.808,0-1.531-.018-2.253,0a1.116,1.116,0,0,0-1.189,1.184c-.025.611-.026,1.223-.009,1.834a1.136,1.136,0,0,0,1.227,1.2,15.6,15.6,0,0,0,1.689,0c.474-.038.575.153.551.575-.032.546-.023,1.094-.012,1.641a1.148,1.148,0,0,0,1.262,1.258c.563.008,1.127.012,1.69.006a1.153,1.153,0,0,0,1.271-1.252c.01-.611.009-1.223-.008-1.835-.008-.29.089-.4.388-.393.611.018,1.223.016,1.834.008a1.138,1.138,0,0,0,1.248-1.225c.017-.579.016-1.159.007-1.738a1.165,1.165,0,0,0-1.262-1.267c-.6-.008-1.192-.016-1.786.01-.35.015-.442-.122-.43-.449.022-.611.023-1.223.007-1.834A1.127,1.127,0,0,0-410.045,285c-.547-.015-1.094,0-1.641.005-.994.009-1.392.414-1.4,1.423C-413.086,287.082-413.083,287.738-413.083,288.462Zm14.84,4.676h6.729c-.605-1.226-1.194-2.417-1.781-3.609a3.411,3.411,0,0,0-1.714-1.622,7.085,7.085,0,0,0-3-.248c-.076,0-.217.213-.223.332-.024.562-.012,1.125-.013,1.688C-398.244,290.817-398.243,291.956-398.243,293.138Z" transform="translate(423.676 -280.521)"/><path d="M-373.649,479a3.78,3.78,0,0,1,3.857-3.748,3.765,3.765,0,0,1,3.686,3.768,3.794,3.794,0,0,1-3.778,3.784A3.812,3.812,0,0,1-373.649,479Zm2.144,0a1.66,1.66,0,0,0,1.6,1.663,1.684,1.684,0,0,0,1.668-1.649,1.656,1.656,0,0,0-1.58-1.631A1.648,1.648,0,0,0-371.505,479Z" transform="translate(378.485 -456.429)"/><path d="M-163.715,475.328a3.765,3.765,0,0,1,3.73,3.769,3.8,3.8,0,0,1-3.745,3.768,3.775,3.775,0,0,1-3.8-3.757A3.751,3.751,0,0,1-163.715,475.328Zm-1.682,3.783a1.65,1.65,0,0,0,1.652,1.615,1.633,1.633,0,0,0,1.6-1.658,1.61,1.61,0,0,0-1.644-1.606A1.637,1.637,0,0,0-165.4,479.111Z" transform="translate(192.29 -456.496)"/></g></g></svg>