<svg xmlns="http://www.w3.org/2000/svg" xmlns:xlink="http://www.w3.org/1999/xlink" width="281.852" height="39.219" viewBox="0 0 281.852 39.219"><defs><style>.a,.b,.d,.e,.f,.g,.h,.i,.j,.k{fill-rule:evenodd;}.b,.l{fill:#a6a6a6;}.c,.d,.k{fill:#fff;}.e{fill:url(#a);}.f{fill:url(#b);}.g{fill:url(#c);}.h{fill:url(#d);}.i{opacity:0.2;}.j{opacity:0.12;}.k{opacity:0.25;}</style><linearGradient id="a" x1="2.472" y1="1.035" x2="2.361" y2="1.005" gradientUnits="objectBoundingBox"><stop offset="0" stop-color="#00a0ff"/><stop offset="0.007" stop-color="#00a1ff"/><stop offset="0.26" stop-color="#00beff"/><stop offset="0.512" stop-color="#00d2ff"/><stop offset="0.76" stop-color="#00dfff"/><stop offset="1" stop-color="#00e3ff"/></linearGradient><linearGradient id="b" x1="1.95" y1="1.879" x2="1.69" y2="1.879" gradientUnits="objectBoundingBox"><stop offset="0" stop-color="#ffe000"/><stop offset="0.409" stop-color="#ffbd00"/><stop offset="0.775" stop-color="orange"/><stop offset="1" stop-color="#ff9c00"/></linearGradient><linearGradient id="c" x1="1.926" y1="0.946" x2="1.835" y2="0.793" gradientUnits="objectBoundingBox"><stop offset="0" stop-color="#ff3a44"/><stop offset="1" stop-color="#c31162"/></linearGradient><linearGradient id="d" x1="1.856" y1="2.093" x2="1.897" y2="2.025" gradientUnits="objectBoundingBox"><stop offset="0" stop-color="#32a071"/><stop offset="0.068" stop-color="#2da771"/><stop offset="0.476" stop-color="#15cf74"/><stop offset="0.801" stop-color="#06e775"/><stop offset="1" stop-color="#00f076"/></linearGradient></defs><g transform="translate(-1344 -19.77)"><g transform="translate(1344 19.77)"><g transform="translate(0)"><path class="a" d="M127.985,39.219H4.924A4.927,4.927,0,0,1,0,34.317V4.9A4.921,4.921,0,0,1,4.924,0H127.985a4.922,4.922,0,0,1,4.924,4.9V34.317A4.929,4.929,0,0,1,127.985,39.219Z"/><path class="b" d="M127.985.785a4.14,4.14,0,0,1,4.14,4.118V34.317a4.132,4.132,0,0,1-4.14,4.118H4.924a4.14,4.14,0,0,1-4.14-4.118V4.9A4.132,4.132,0,0,1,4.924.785Zm0-.785H4.924A4.927,4.927,0,0,0,0,4.9V34.317a4.921,4.921,0,0,0,4.924,4.9H127.985a4.922,4.922,0,0,0,4.924-4.9V4.9A4.929,4.929,0,0,0,127.985,0Z"/><path class="c" d="M1683.869,277.64a2.985,2.985,0,0,1-2.227-.922,3.14,3.14,0,0,1-.9-2.25,3.07,3.07,0,0,1,.9-2.247,2.975,2.975,0,0,1,2.225-.922,3.016,3.016,0,0,1,2.228.922,3.256,3.256,0,0,1,0,4.494A2.96,2.96,0,0,1,1683.869,277.64Zm-26.409,0a3.1,3.1,0,0,1-2.237-.91,3.169,3.169,0,0,1,2.237-5.428,3.118,3.118,0,0,1,1.25.259,2.527,2.527,0,0,1,.951.68l.059.071-.663.65-.069-.081a1.883,1.883,0,0,0-1.538-.663,2.126,2.126,0,0,0-1.533.626,2.377,2.377,0,0,0,0,3.257,2.241,2.241,0,0,0,3.108,0,1.693,1.693,0,0,0,.45-1.02h-2.125v-.914h3.037l.012.083a3.358,3.358,0,0,1,.044.46,2.753,2.753,0,0,1-.758,2.029A2.959,2.959,0,0,1,1657.459,277.64Zm35.114-.13h-.936l-2.868-4.589.025.826v3.761h-.937v-6.076h1.068l.03.046,2.7,4.323-.024-.824v-3.545h.946Zm-15.741,0h-.948v-5.164h-1.646v-.914h4.238v.914h-1.646v5.164Zm-3.367,0h-.946v-6.078h.946Zm-5.318,0h-.946v-5.164h-1.646v-.914h4.237v.914h-1.646Zm-3.191-.01h-3.628v-6.069h3.628v.914h-2.68v1.668h2.418v.9h-2.418v1.668h2.68Zm17.38-1.411a2.094,2.094,0,0,0,1.533.636,2.041,2.041,0,0,0,1.533-.636,2.41,2.41,0,0,0,0-3.237,2.1,2.1,0,0,0-1.533-.636,2.032,2.032,0,0,0-1.531.636,2.414,2.414,0,0,0,0,3.237Z" transform="translate(-1613.851 -264.666)"/><path class="d" d="M1673.239,687.631a4.171,4.171,0,1,0,4.184,4.171A4.106,4.106,0,0,0,1673.239,687.631Zm0,6.69a2.535,2.535,0,1,1,2.352-2.528A2.414,2.414,0,0,1,1673.239,694.321Zm-9.128-6.69a4.171,4.171,0,1,0,4.183,4.171A4.106,4.106,0,0,0,1664.112,687.631Zm0,6.69a2.535,2.535,0,1,1,2.353-2.528A2.414,2.414,0,0,1,1664.112,694.321Zm-10.861-5.416v1.765h4.237a3.72,3.72,0,0,1-.958,2.223,4.324,4.324,0,0,1-3.269,1.3,4.707,4.707,0,0,1,0-9.414,4.524,4.524,0,0,1,3.191,1.264l1.252-1.252A6.156,6.156,0,0,0,1653.27,683a6.473,6.473,0,1,0,0,12.944,5.925,5.925,0,0,0,4.521-1.819,5.857,5.857,0,0,0,1.535-4.139,5.485,5.485,0,0,0-.1-1.1h-5.981S1653.251,688.905,1653.251,688.905Zm44.424,1.374a3.876,3.876,0,0,0-3.572-2.658,3.963,3.963,0,0,0-3.932,4.171,4.077,4.077,0,0,0,4.139,4.171,4.141,4.141,0,0,0,3.475-1.851l-1.416-.949a2.373,2.373,0,0,1-2.049,1.154,2.131,2.131,0,0,1-2.027-1.264l5.577-2.311S1697.675,690.279,1697.675,690.279Zm-5.687,1.394a2.29,2.29,0,0,1,2.179-2.431,1.608,1.608,0,0,1,1.548.883Zm-4.531,4.042h1.831V683.46h-1.831Zm-3.007-7.157h-.066a2.889,2.889,0,0,0-2.2-.936,4.171,4.171,0,0,0,0,8.335,2.881,2.881,0,0,0,2.2-.949h.066v.6c0,1.592-.851,2.45-2.223,2.45a2.313,2.313,0,0,1-2.1-1.482l-1.592.665a3.98,3.98,0,0,0,3.692,2.462c2.147,0,3.966-1.264,3.966-4.347v-7.484h-1.731v.687Zm-2.1,5.763a2.536,2.536,0,0,1,0-5.054,2.345,2.345,0,0,1,2.222,2.538A2.316,2.316,0,0,1,1682.347,694.321Zm23.9-10.861h-4.379v12.255h1.831v-4.641h2.55a3.813,3.813,0,1,0,0-7.614Zm.054,5.9h-2.6v-4.205h2.6a2.1,2.1,0,1,1,0,4.205Zm11.309-1.753a3.449,3.449,0,0,0-3.269,1.873l1.624.675a1.741,1.741,0,0,1,1.667-.9,1.769,1.769,0,0,1,1.929,1.579v.13a4.106,4.106,0,0,0-1.907-.469c-1.753,0-3.531.958-3.531,2.756a2.833,2.833,0,0,0,3.039,2.7,2.578,2.578,0,0,0,2.33-1.2h.066v.949h1.766v-4.695C1721.327,688.819,1719.7,687.609,1717.613,687.609Zm-.23,6.712c-.6,0-1.438-.293-1.438-1.047,0-.949,1.047-1.308,1.939-1.308a3.179,3.179,0,0,1,1.667.413A2.2,2.2,0,0,1,1717.383,694.321Zm10.384-6.45-2.1,5.315h-.066l-2.179-5.315h-1.971l3.27,7.431-1.863,4.13h1.907l5.03-11.56Zm-16.485,7.844h1.832V683.46h-1.832Z" transform="translate(-1606.437 -666.3)"/><path class="e" d="M400.548,299.466a1.986,1.986,0,0,0-.447,1.384v21.68a1.89,1.89,0,0,0,.457,1.372l.076.066,12.147-12.147v-.271L400.623,299.4Z" transform="translate(-390.317 -292.079)"/><path class="f" d="M922.352,638.887l-4.051-4.051v-.284l4.051-4.051.088.054,4.792,2.724c1.372.773,1.372,2.049,0,2.831l-4.792,2.724Z" transform="translate(-895.847 -615.083)"/><path class="g" d="M434.763,806.139,430.623,802,418.4,814.223a1.6,1.6,0,0,0,2.037.066l14.326-8.15" transform="translate(-408.169 -782.39)"/><path class="h" d="M434.763,294.946l-14.326-8.137a1.588,1.588,0,0,0-2.037.066l12.223,12.211Z" transform="translate(-408.169 -279.476)"/><path class="i" d="M435.065,967.7l-14.228,8.083a1.615,1.615,0,0,1-1.961.01l-.076.076.076.066a1.618,1.618,0,0,0,1.961-.01l14.326-8.137Z" transform="translate(-408.56 -944.039)"/><path class="j" d="M1088.392,803.274l-4.893,2.778.088.088,4.792-2.724A1.717,1.717,0,0,0,1089.4,802,1.764,1.764,0,0,1,1088.392,803.274Z" transform="translate(-1057.007 -782.39)"/><path class="k" d="M402.584,286.78,421.7,297.641a1.8,1.8,0,0,1,1.025,1.274A1.717,1.717,0,0,0,421.7,297.5l-19.118-10.861c-1.372-.785-2.484-.13-2.484,1.438v.142C400.1,286.648,401.212,286,402.584,286.78Z" transform="translate(-390.317 -279.305)"/></g><path class="c" d="M141.26,44.4a3.756,3.756,0,0,1-3.76,3.756H14.446A3.761,3.761,0,0,1,10.681,44.4V14.441a3.766,3.766,0,0,1,3.765-3.761H137.5a3.76,3.76,0,0,1,3.76,3.761V44.4Z" transform="translate(139.716 -9.807)"/><path class="l" d="M127.691,39.219H4.638A4.639,4.639,0,0,1,0,34.589V4.635A4.642,4.642,0,0,1,4.638,0H127.69a4.644,4.644,0,0,1,4.638,4.635V34.589a4.638,4.638,0,0,1-4.637,4.63Z" transform="translate(149.524)"/><path d="M141.26,44.4a3.756,3.756,0,0,1-3.76,3.756H14.446A3.761,3.761,0,0,1,10.681,44.4V14.441a3.766,3.766,0,0,1,3.765-3.761H137.5a3.76,3.76,0,0,1,3.76,3.761V44.4Z" transform="translate(139.716 -9.807)"/><path class="c" d="M170.507,87.91a5.685,5.685,0,0,1,2.708-4.77,5.823,5.823,0,0,0-4.586-2.479c-1.929-.2-3.8,1.154-4.783,1.154-1,0-2.516-1.135-4.147-1.1a6.106,6.106,0,0,0-5.139,3.134c-2.222,3.847-.565,9.5,1.564,12.611,1.065,1.524,2.31,3.224,3.939,3.164,1.594-.065,2.189-1.015,4.112-1.015,1.906,0,2.465,1.015,4.126.977,1.71-.026,2.787-1.53,3.815-3.067a12.573,12.573,0,0,0,1.745-3.553A5.5,5.5,0,0,1,170.507,87.91Zm-3.138-9.3a5.6,5.6,0,0,0,1.281-4.01,5.7,5.7,0,0,0-3.686,1.907,5.325,5.325,0,0,0-1.314,3.862,4.708,4.708,0,0,0,3.719-1.758Z" transform="translate(8.565 -68.507)"/><g transform="translate(191.137 17.653)"><path class="c" d="M520.179,229.235h-2.227l-1.22-3.834h-4.241l-1.162,3.834H509.16l4.2-13.052h2.595Zm-3.815-5.442-1.1-3.408q-.175-.522-.658-2.459h-.039q-.194.833-.62,2.459l-1.085,3.408h3.505Zm14.6.621a5.33,5.33,0,0,1-1.3,3.795,3.825,3.825,0,0,1-2.9,1.24,2.9,2.9,0,0,1-2.687-1.335v4.938h-2.091V222.917q0-1.508-.077-3.093h1.839l.117,1.492h.039a3.72,3.72,0,0,1,5.954-.37,5.2,5.2,0,0,1,1.112,3.468Zm-2.13.077a3.88,3.88,0,0,0-.62-2.267,2.142,2.142,0,0,0-1.82-.929,2.175,2.175,0,0,0-1.4.513,2.38,2.38,0,0,0-.823,1.347,2.729,2.729,0,0,0-.1.637v1.57a2.518,2.518,0,0,0,.63,1.734,2.09,2.09,0,0,0,1.636.707,2.143,2.143,0,0,0,1.839-.91A4.007,4.007,0,0,0,528.835,224.49Zm12.955-.077a5.33,5.33,0,0,1-1.3,3.795,3.827,3.827,0,0,1-2.9,1.24,2.9,2.9,0,0,1-2.687-1.335v4.938H532.8V222.917q0-1.508-.078-3.093h1.839l.117,1.492h.039a3.721,3.721,0,0,1,5.955-.37,5.209,5.209,0,0,1,1.112,3.468Zm-2.131.077a3.879,3.879,0,0,0-.621-2.267,2.139,2.139,0,0,0-1.818-.929,2.183,2.183,0,0,0-1.405.513,2.379,2.379,0,0,0-.822,1.347,2.8,2.8,0,0,0-.1.637v1.57a2.527,2.527,0,0,0,.629,1.734,2.1,2.1,0,0,0,1.638.707,2.141,2.141,0,0,0,1.839-.91A4.006,4.006,0,0,0,539.658,224.49Zm14.234,1.084a3.486,3.486,0,0,1-1.16,2.712,5.143,5.143,0,0,1-3.555,1.143,6.206,6.206,0,0,1-3.38-.813l.484-1.743a5.817,5.817,0,0,0,3.021.814,2.85,2.85,0,0,0,1.839-.533,1.74,1.74,0,0,0,.66-1.422,1.822,1.822,0,0,0-.543-1.337,5.037,5.037,0,0,0-1.8-1.006q-3.428-1.278-3.429-3.739a3.3,3.3,0,0,1,1.21-2.633,4.785,4.785,0,0,1,3.205-1.027,6.333,6.333,0,0,1,2.963.62l-.525,1.7a5.18,5.18,0,0,0-2.508-.6,2.551,2.551,0,0,0-1.73.542,1.552,1.552,0,0,0-.525,1.183,1.6,1.6,0,0,0,.6,1.278,6.778,6.778,0,0,0,1.9,1.006,6.43,6.43,0,0,1,2.479,1.587A3.307,3.307,0,0,1,553.892,225.574Zm6.931-4.181h-2.3v4.569q0,1.743,1.22,1.742a3.678,3.678,0,0,0,.929-.1l.058,1.588a4.735,4.735,0,0,1-1.626.231,2.506,2.506,0,0,1-1.937-.756,3.707,3.707,0,0,1-.7-2.537v-4.744h-1.373V219.82h1.373V218.1l2.054-.62v2.343h2.3Zm10.378,3.059a5.163,5.163,0,0,1-1.24,3.563,4.419,4.419,0,0,1-3.446,1.433,4.212,4.212,0,0,1-3.3-1.373,5.007,5.007,0,0,1-1.23-3.466,5.12,5.12,0,0,1,1.268-3.582,4.4,4.4,0,0,1,3.419-1.395,4.3,4.3,0,0,1,3.33,1.375A4.94,4.94,0,0,1,571.2,224.452Zm-2.167.048a4.214,4.214,0,0,0-.56-2.22,2.07,2.07,0,0,0-1.879-1.121,2.1,2.1,0,0,0-1.917,1.121,4.284,4.284,0,0,0-.561,2.26,4.2,4.2,0,0,0,.561,2.222,2.144,2.144,0,0,0,3.779-.019A4.231,4.231,0,0,0,569.034,224.5ZM578,221.663a3.632,3.632,0,0,0-.659-.058,1.973,1.973,0,0,0-1.7.834,3.14,3.14,0,0,0-.522,1.858v4.938h-2.091v-6.447q0-1.626-.061-2.963h1.821l.077,1.8h.058a3.227,3.227,0,0,1,1.046-1.492,2.529,2.529,0,0,1,1.511-.5,3.349,3.349,0,0,1,.523.038Zm9.352,2.421a4.9,4.9,0,0,1-.077.948H581a2.73,2.73,0,0,0,.91,2.132,3.112,3.112,0,0,0,2.052.657,6.938,6.938,0,0,0,2.538-.444l.327,1.451a7.848,7.848,0,0,1-3.155.582,4.574,4.574,0,0,1-3.438-1.287,4.757,4.757,0,0,1-1.248-3.456,5.391,5.391,0,0,1,1.163-3.542,4.007,4.007,0,0,1,3.29-1.509,3.507,3.507,0,0,1,3.081,1.509A5.08,5.08,0,0,1,587.352,224.084Zm-1.994-.542a2.828,2.828,0,0,0-.406-1.607,1.825,1.825,0,0,0-1.665-.873,1.982,1.982,0,0,0-1.664.852A3.122,3.122,0,0,0,581,223.54Z" transform="translate(-509.16 -215.99)"/></g><g transform="translate(191.916 6.427)"><path class="c" d="M524.1,85.384h-1.1l-.6-1.884h-2.084l-.572,1.884h-1.066l2.065-6.415h1.275Zm-1.875-2.674-.542-1.675c-.057-.172-.162-.571-.324-1.208h-.02c-.067.276-.162.676-.305,1.208l-.532,1.675Zm7.04-1.951-1.752,4.625h-1l-1.695-4.625h1.1l.791,2.446c.133.409.247.8.332,1.17h.029c.077-.332.19-.723.332-1.17l.781-2.446ZM533,85.384l-.077-.533h-.029a1.577,1.577,0,0,1-1.351.637,1.346,1.346,0,0,1-1.418-1.361c0-1.142.99-1.732,2.7-1.732V82.31c0-.609-.324-.914-.961-.914a2.16,2.16,0,0,0-1.208.343l-.209-.676a2.961,2.961,0,0,1,1.59-.4c1.208,0,1.818.637,1.818,1.913v1.7a6.888,6.888,0,0,0,.067,1.1Zm-.143-2.3c-1.142,0-1.713.277-1.713.933a.655.655,0,0,0,.7.723.984.984,0,0,0,1.009-.942ZM536.145,80a.614.614,0,1,1,.647-.619A.6.6,0,0,1,536.145,80Zm.534,5.387h-1.028V80.758h1.028Zm2.854,0h-1.028V78.636h1.028Zm4.368,0-.077-.533H543.8a1.577,1.577,0,0,1-1.351.637,1.346,1.346,0,0,1-1.418-1.361c0-1.142.99-1.732,2.7-1.732V82.31c0-.609-.324-.914-.961-.914a2.16,2.16,0,0,0-1.208.343l-.21-.677a2.961,2.961,0,0,1,1.59-.4c1.208,0,1.818.637,1.818,1.913v1.7a7.109,7.109,0,0,0,.066,1.1H543.9Zm-.143-2.3c-1.143,0-1.713.277-1.713.933a.655.655,0,0,0,.7.723.984.984,0,0,0,1.009-.942Zm5.165,2.409a1.57,1.57,0,0,1-1.454-.819h-.021l-.059.714h-.876c.028-.371.038-.79.038-1.247v-5.5h1.029v2.8h.02a1.587,1.587,0,0,1,1.475-.771c1.114,0,1.895.952,1.895,2.341A2.226,2.226,0,0,1,548.923,85.488Zm-.209-4.017a1.182,1.182,0,0,0-1.133,1.228v.809A1.133,1.133,0,0,0,548.7,84.67c.77,0,1.228-.628,1.228-1.627C549.923,82.11,549.446,81.471,548.714,81.471Zm4.8,3.912H552.49V78.636h1.027Zm5.6-2.065h-3.085a1.327,1.327,0,0,0,1.456,1.37,3.469,3.469,0,0,0,1.247-.219l.16.714a3.857,3.857,0,0,1-1.551.285,2.147,2.147,0,0,1-2.3-2.331,2.259,2.259,0,0,1,2.188-2.484,2.295,2.295,0,0,1,1.889,2.665Zm-.943-.733c0-.714-.362-1.218-1.019-1.218a1.22,1.22,0,0,0-1.124,1.218Zm7.173,2.9a2.2,2.2,0,0,1-2.227-2.379,2.253,2.253,0,0,1,2.3-2.446,2.185,2.185,0,0,1,2.227,2.37A2.267,2.267,0,0,1,565.342,85.488Zm.039-4.074c-.742,0-1.218.694-1.218,1.665,0,.952.486,1.647,1.208,1.647s1.207-.742,1.207-1.666C566.579,82.119,566.1,81.414,565.381,81.414Zm7.79,3.969h-1.027V82.728c0-.818-.314-1.228-.933-1.228a1.068,1.068,0,0,0-1.029,1.133v2.751h-1.027v-3.3c0-.409-.011-.847-.038-1.323h.9l.048.714h.029a1.66,1.66,0,0,1,1.465-.809c.97,0,1.608.742,1.608,1.951v2.771Zm6.725-3.854h-1.131v2.246q0,.858.6.857a2.035,2.035,0,0,0,.457-.048l.029.781a2.29,2.29,0,0,1-.8.115c-.81,0-1.294-.447-1.294-1.618V81.529h-.675v-.771h.675v-.847l1.008-.3v1.151H579.9Zm5.443,3.854h-1.029V82.747c0-.828-.314-1.247-.933-1.247a1.007,1.007,0,0,0-1.027,1.094v2.788h-1.029V78.636h1.029v2.778h.02a1.557,1.557,0,0,1,1.39-.752c.98,0,1.579.761,1.579,1.97Zm5.252-2.065h-3.084a1.326,1.326,0,0,0,1.456,1.37,3.466,3.466,0,0,0,1.247-.219l.161.714a3.861,3.861,0,0,1-1.552.285,2.147,2.147,0,0,1-2.3-2.331,2.259,2.259,0,0,1,2.188-2.484,1.943,1.943,0,0,1,1.923,2.2A1.994,1.994,0,0,1,590.591,83.318Zm-.942-.733c0-.714-.361-1.218-1.018-1.218a1.219,1.219,0,0,0-1.124,1.218Z" transform="translate(-518.688 -78.636)"/></g></g></g></svg>