<svg xmlns="http://www.w3.org/2000/svg" xmlns:xlink="http://www.w3.org/1999/xlink" width="1920" height="666" viewBox="0 0 1920 666"><defs><style>.a{fill:url(#a);}.b{fill:#fff;stroke:#707070;}.c{clip-path:url(#c);}.d{clip-path:url(#d);}.e,.f,.g{mix-blend-mode:luminosity;isolation:isolate;}.e{fill:url(#e);}.f{fill:url(#f);}.g{fill:url(#g);}</style><linearGradient id="a" x1="-0.062" y1="0.178" x2="1.069" y2="0.66" gradientUnits="objectBoundingBox"><stop offset="0" stop-color="#0f73fd"/><stop offset="1" stop-color="#2abbfd"/></linearGradient><clipPath id="c"><rect class="a" width="1920" height="666"/></clipPath><clipPath id="d"><rect class="b" width="2090.464" height="500.183"/></clipPath><linearGradient id="e" x1="0.369" y1="0.621" x2="-1.221" y2="-0.29" gradientUnits="objectBoundingBox"><stop offset="0" stop-color="#00a0ff" stop-opacity="0.529"/><stop offset="1" stop-color="#c4ddff" stop-opacity="0.322"/></linearGradient><linearGradient id="f" x1="0.631" y1="0.621" x2="2.221" y2="-0.29" gradientUnits="objectBoundingBox"><stop offset="0" stop-color="#61c4ff" stop-opacity="0.18"/><stop offset="1" stop-color="#c4ddff" stop-opacity="0.322"/></linearGradient><linearGradient id="g" x1="0.631" y1="0.621" x2="2.221" y2="-0.29" xlink:href="#e"/></defs><g transform="translate(0 -80)"><rect class="a" width="1920" height="666" transform="translate(0 80)"/><g class="c" transform="translate(0 80)"><g transform="translate(-588.962 180.225)"><g transform="translate(0 13.396)"><g class="d" transform="translate(866.962 0)"><g transform="translate(119.289 68.617)"><path class="e" d="M-13170.283-9920.341l32.553,62.724h655.594l673.023,90.632,271.7,162.677v-128.753l-854.262-586.764-566.168,414.015-212.439-143.955v129.425Z" transform="translate(13443.983 10319.825)"/><path class="f" d="M-11873.2-9878.711h-472.135l-552.1,8.752h-267l820.469-442.943,455.156,319.918v123.025Z" transform="translate(13844.172 10316.27)"/><path class="g" d="M-11678.12-9925.542l-521.08-5.856-196.152-3.564-627.781,3.564v-3.564l-15.895-7.048,558.986-393.132,591.471,423.6,210.451-138.664v124.669Z" transform="translate(13039.028 10359.231)"/></g></g><path class="g" d="M-11678.12-9924.621l-521.08-5.856-196.152-3.564h-627.781l-15.895-7.049,462.027-395.76,688.43,426.224,210.451-138.663v124.669Z" transform="translate(13039.028 10413.888)"/></g><path class="e" d="M-13170.283-9885.137l32.553,67.024h655.594l673.023,96.854,271.7,173.841v-137.591l-845.895-646.9-574.535,462.3-212.439-153.835v138.309Z" transform="translate(13443.983 10331.907)"/></g></g></g></svg>