<svg xmlns="http://www.w3.org/2000/svg" xmlns:xlink="http://www.w3.org/1999/xlink" width="41.5" height="41.5" viewBox="0 0 41.5 41.5">
  <defs>
    <clipPath id="clip-path">
      <rect id="Rectangle_15703" data-name="Rectangle 15703" width="41.5" height="41.5" fill="#fff" stroke="#707070" stroke-width="1"/>
    </clipPath>
  </defs>
  <g id="Group_40974" data-name="Group 40974" transform="translate(-11.661 -9.5)">
    <g id="Group_41044" data-name="Group 41044" transform="translate(11.661 9.5)" clip-path="url(#clip-path)">
      <g id="Group_41043" data-name="Group 41043" transform="translate(1.745 4.636)">
        <path id="Path_77134" data-name="Path 77134" d="M2.249,3.648,0,0" transform="translate(16.553 0.48)" fill="none" stroke="#208ce1" stroke-linecap="round" stroke-linejoin="round" stroke-width="1.5"/>
        <path id="Path_77135" data-name="Path 77135" d="M2.082,2.056,0,0" transform="translate(14.773 3.03)" fill="none" stroke="#208ce1" stroke-linecap="round" stroke-linejoin="round" stroke-width="1.5"/>
        <path id="Path_77136" data-name="Path 77136" d="M1.042,3.294,0,0" transform="translate(19.805 0.467)" fill="none" stroke="#208ce1" stroke-linecap="round" stroke-linejoin="round" stroke-width="1.5"/>
        <path id="Path_77137" data-name="Path 77137" d="M20.725,29.2a6.991,6.991,0,0,0-7.449,2.409,6.993,6.993,0,0,0-9.568-1.383A7.176,7.176,0,0,0,1.06,37.861a8.238,8.238,0,0,0,1.486,3.2,2.592,2.592,0,0,1,.593,1.761,14.645,14.645,0,0,0,3.31,9.78A1.29,1.29,0,0,0,8.7,52.107a61.275,61.275,0,0,1,1.9-5.951,2.864,2.864,0,0,1,5.364,0,60.3,60.3,0,0,1,1.9,5.951,1.277,1.277,0,0,0,.962.934,1.291,1.291,0,0,0,1.276-.433,14.66,14.66,0,0,0,3.32-9.794A2.559,2.559,0,0,1,24,41.064a8.3,8.3,0,0,0,1.5-3.228,7.463,7.463,0,0,0-.336-4.69" transform="translate(-0.825 -20.402)" fill="none" stroke="#208ce1" stroke-linecap="round" stroke-linejoin="round" stroke-width="1.5"/>
        <path id="Path_77138" data-name="Path 77138" d="M42.742,37.772a10.075,10.075,0,0,1,1.29,2.279" transform="translate(-30.291 -26.569)" fill="none" stroke="#208ce1" stroke-linecap="round" stroke-linejoin="round" stroke-width="1.5"/>
        <path id="Path_77139" data-name="Path 77139" d="M85.557,6.822l-5.626,4.259L76.086,7.2,80.3,1.522a2.375,2.375,0,0,1,3.376,0l1.874,1.892A2.426,2.426,0,0,1,85.557,6.822Zm0,0" transform="translate(-53.73 -0.818)" fill="none" stroke="#208ce1" stroke-linecap="round" stroke-linejoin="round" stroke-width="1.5"/>
        <path id="Path_77140" data-name="Path 77140" d="M1.94,0,0,1.96" transform="translate(20.393 10.286)" fill="none" stroke="#208ce1" stroke-linecap="round" stroke-linejoin="round" stroke-width="1.5"/>
        <path id="Path_77141" data-name="Path 77141" d="M115.363,26.41a44.862,44.862,0,0,1-6.858-5.274c-.347-.325-.538-.513-.538-.513" transform="translate(-76.141 -14.619)" fill="none" stroke="#208ce1" stroke-linecap="round" stroke-linejoin="round" stroke-width="1.5"/>
        <path id="Path_77142" data-name="Path 77142" d="M0,0l7.252,7.32" transform="translate(27.652 9.163)" fill="none" stroke="#208ce1" stroke-linecap="round" stroke-linejoin="round" stroke-width="1.5"/>
        <path id="Path_77143" data-name="Path 77143" d="M77.229,26.981l-1.48,1.495a.685.685,0,0,1-.976,0l-.993-1a.7.7,0,0,1,0-.985l1.48-1.495" transform="translate(-51.967 -17.664)" fill="none" stroke="#208ce1" stroke-linecap="round" stroke-linejoin="round" stroke-width="1.5"/>
        <path id="Path_77144" data-name="Path 77144" d="M63.244,43.867a2.647,2.647,0,0,1-2.635-2.659" transform="translate(-42.85 -28.963)" fill="none" stroke="#208ce1" stroke-linecap="round" stroke-linejoin="round" stroke-width="1.5"/>
        <path id="Path_77145" data-name="Path 77145" d="M9.306,22.281a5.346,5.346,0,0,0-3.121,1,5.558,5.558,0,0,0-2.011,5.895,9.017,9.017,0,0,0,.416,1.267,10.926,10.926,0,0,1,.885-2.309,5.855,5.855,0,0,1,2.144-2.32,7.894,7.894,0,0,1,3.812-.823c.892-.02,1.785.007,2.675.073l-.564-.715a5.368,5.368,0,0,0-4.238-2.064" transform="translate(-2.364 -12.12)" fill="#bccbe3" opacity="0.332"/>
      </g>
    </g>
  </g>
</svg>
