<svg xmlns="http://www.w3.org/2000/svg" width="69" height="69" viewBox="0 0 69 69"><defs><style>.a{fill:#bff7f9;}.b{fill:#06cbd2;}.c{fill:#fff;}</style></defs><circle class="a" cx="34.5" cy="34.5" r="34.5"/><path class="b" d="M29.438,4.2a8.708,8.708,0,0,0-11.882.866L16.3,6.357,15.047,5.064A8.707,8.707,0,0,0,3.165,4.2a9.143,9.143,0,0,0-.63,13.238L14.856,30.159a2,2,0,0,0,2.885,0L30.062,17.437A9.138,9.138,0,0,0,29.438,4.2Z" transform="translate(17.721 18.966)"/><g transform="translate(29.379 29.882)"><rect class="c" width="2.798" height="9.327" transform="translate(3.264)"/><rect class="c" width="2.798" height="9.327" transform="translate(9.327 3.264) rotate(90)"/></g></svg>