<svg xmlns="http://www.w3.org/2000/svg" width="62.634" height="62.635" viewBox="0 0 62.634 62.635">
  <g id="Group_41288" data-name="Group 41288" transform="translate(-1272.347 -231.243)">
    <g id="Group_41174" data-name="Group 41174" transform="translate(1276.499 238.655)">
      <ellipse id="Ellipse_13556" data-name="Ellipse 13556" cx="15.907" cy="15.908" rx="15.907" ry="15.908" transform="matrix(0.996, -0.087, 0.087, 0.996, 9.931, 9.445)" fill="#00d585" opacity="0.7"/>
      <ellipse id="Ellipse_13557" data-name="Ellipse 13557" cx="21.692" cy="21.692" rx="21.692" ry="21.692" transform="matrix(0.996, -0.087, 0.087, 0.996, 0, 3.781)" fill="#00d585"/>
    </g>
    <g id="noun_treatment_4109440" transform="translate(1284.27 246.722)">
      <path id="Path_77223" data-name="Path 77223" d="M23.321,6.5c-1.183-.156-2.366-.272-3.548-.354v.719a1.3,1.3,0,0,1-1.3,1.3H12.984a1.3,1.3,0,0,1-1.3-1.3V6.149c-1.183.083-2.366.195-3.548.354A2.305,2.305,0,0,0,6.22,8.321a71.975,71.975,0,0,0,0,16.879,2.306,2.306,0,0,0,1.914,1.818,57.948,57.948,0,0,0,15.187,0A2.306,2.306,0,0,0,25.237,25.2a71.974,71.974,0,0,0,0-16.879A2.305,2.305,0,0,0,23.321,6.5Zm-3,12.535q-1.491.051-2.981.068-.018,1.491-.068,2.981-1.546.054-3.094,0-.052-1.491-.068-2.981-1.49-.018-2.981-.068-.054-1.546,0-3.094,1.491-.052,2.981-.068.018-1.489.068-2.98,1.547-.055,3.094,0,.052,1.489.068,2.98,1.491.018,2.981.068Q20.378,17.491,20.324,19.038Z" transform="translate(0 -0.072)" fill="#fff"/>
      <path id="Path_77224" data-name="Path 77224" d="M13.119,7.609h5.214A.792.792,0,0,0,19.1,6.8V5.688a.833.833,0,0,0-.226-.574.751.751,0,0,0-.546-.238h-.638a.719.719,0,0,1-.647-.508,1.394,1.394,0,0,0-2.639,0,.719.719,0,0,1-.647.508h-.638a.751.751,0,0,0-.546.238.833.833,0,0,0-.226.574V6.8a.793.793,0,0,0,.768.812Z" transform="translate(0.001)" fill="#fff"/>
    </g>
  </g>
</svg>
