<svg xmlns="http://www.w3.org/2000/svg" width="60.067" height="60.067" viewBox="0 0 60.067 60.067">
  <g id="Group_41454" data-name="Group 41454" transform="translate(-1271.607 -230.746)">
    <g id="Group_41174" data-name="Group 41174" transform="translate(1276.499 238.655)">
      <ellipse id="Ellipse_13556" data-name="Ellipse 13556" cx="14.723" cy="14.723" rx="14.723" ry="14.723" transform="matrix(0.996, -0.087, 0.087, 0.996, 9.191, 8.741)" fill="#00d585" opacity="0.7"/>
      <ellipse id="Ellipse_13557" data-name="Ellipse 13557" cx="20.076" cy="20.076" rx="20.076" ry="20.076" transform="matrix(0.996, -0.087, 0.087, 0.996, 0, 3.5)" fill="#00d585"/>
    </g>
    <g id="noun_treatment_4109440" transform="translate(1290.291 250.851)">
      <path id="Path_77223" data-name="Path 77223" d="M19.721,6.431c-.941-.124-1.882-.216-2.822-.282v.572a1.034,1.034,0,0,1-1.033,1.033H11.5a1.034,1.034,0,0,1-1.033-1.033V6.149c-.941.066-1.882.155-2.822.282A1.834,1.834,0,0,0,6.119,7.877a57.249,57.249,0,0,0,0,13.426,1.834,1.834,0,0,0,1.522,1.446,46.093,46.093,0,0,0,12.08,0A1.834,1.834,0,0,0,21.245,21.3a57.249,57.249,0,0,0,0-13.426A1.834,1.834,0,0,0,19.721,6.431ZM17.337,16.4q-1.186.04-2.371.054-.014,1.186-.054,2.371-1.23.043-2.461,0-.041-1.186-.054-2.371-1.186-.014-2.371-.054-.043-1.23,0-2.461,1.186-.041,2.371-.054.014-1.185.054-2.37,1.23-.044,2.461,0,.041,1.185.054,2.37,1.186.014,2.371.054Q17.38,15.171,17.337,16.4Z" transform="translate(-5.724 -4.038)" fill="#fff"/>
      <path id="Path_77224" data-name="Path 77224" d="M12.962,6.753h4.147a.63.63,0,0,0,.614-.646V5.225a.663.663,0,0,0-.179-.457.6.6,0,0,0-.434-.189H16.6a.572.572,0,0,1-.515-.4,1.109,1.109,0,0,0-2.1,0,.572.572,0,0,1-.515.4h-.508a.6.6,0,0,0-.434.189.663.663,0,0,0-.179.457v.882a.63.63,0,0,0,.611.646Z" transform="translate(-7.079 -3.423)" fill="#fff"/>
    </g>
  </g>
</svg>
