<svg xmlns="http://www.w3.org/2000/svg" xmlns:xlink="http://www.w3.org/1999/xlink" width="32" height="32" viewBox="0 0 32 32">
    <defs>
        <path id="sr7n2u07ia" d="M4 0h24c2.21 0 4 1.79 4 4v24c0 2.21-1.79 4-4 4H4c-2.21 0-4-1.79-4-4V4c0-2.21 1.79-4 4-4z"/>
    </defs>
    <g fill="none" fill-rule="evenodd">
        <g>
            <g>
                <g transform="translate(-179 -232) translate(179 232)">
                    <use fill="#EDF2F8" opacity=".8" xlink:href="#sr7n2u07ia"/>
                </g>
                <g>
                    <path fill="#F75353" d="M2.4 0h16.8c1.325 0 2.4 1.075 2.4 2.4v4.8c0 1.325-1.075 2.4-2.4 2.4H2.4C1.075 9.6 0 8.525 0 7.2V2.4C0 1.075 1.075 0 2.4 0z" transform="translate(-179 -232) translate(179 232) translate(5 19)"/>
                    <path fill="#FFF" fill-rule="nonzero" d="M4.667 7.24v-1.6h.95c1.068 0 1.81-.696 1.81-1.736 0-1.044-.717-1.737-1.758-1.737H3.605V7.24h1.062zm.717-2.43h-.717V3.008h.72c.609 0 .96.324.96.9 0 .58-.355.904-.963.904zm5.206 2.43c1.522 0 2.418-.946 2.418-2.556s-.896-2.517-2.418-2.517H8.653V7.24h1.937zm-.127-.879h-.749V3.042h.75c.934 0 1.462.584 1.462 1.646 0 1.097-.514 1.673-1.463 1.673zm4.89.879V5.243h2.063v-.84h-2.064v-1.36h2.26v-.876H14.29V7.24h1.062z" transform="translate(-179 -232) translate(179 232) translate(5 19)"/>
                </g>
                <g stroke="#59709B">
                    <path fill="#FFF" d="M14-.5c.69 0 1.315.28 1.768.732C16.22.685 16.5 1.31 16.5 2h0v7c0 .69-.28 1.315-.732 1.768-.453.452-1.078.732-1.768.732h0H2c-.69 0-1.315-.28-1.768-.732C-.22 10.315-.5 9.69-.5 9h0V2c0-.69.28-1.315.732-1.768C.685-.22 1.31-.5 2-.5h0z" transform="translate(-179 -232) translate(179 232) translate(8 5)"/>
                    <path stroke-linecap="round" stroke-linejoin="round" d="M3 3.5L12.391 3.5M3 6.333L9.391 6.333" transform="translate(-179 -232) translate(179 232) translate(8 5)"/>
                </g>
            </g>
        </g>
    </g>
</svg>
