<svg xmlns="http://www.w3.org/2000/svg" width="24.754" height="30.266" viewBox="0 0 24.754 30.266"><defs><style>.a{opacity:0.7;}.b{fill:#208ce1;}</style></defs><g class="a"><path class="b" d="M460.564,7.129c.263-.027.526-.048.786-.091a4.8,4.8,0,0,0,1.995-.868A7.2,7.2,0,0,0,465.1,4.35a7.052,7.052,0,0,0,1.137-2.731,7.276,7.276,0,0,0,.1-1.557A.761.761,0,0,0,466.3-.1a2.411,2.411,0,0,0-.35.027,9.637,9.637,0,0,0-1.613.491,6.208,6.208,0,0,0-2.649,2.128,7.461,7.461,0,0,0-1.334,4.25V7.1A1.127,1.127,0,0,0,460.564,7.129Z" transform="translate(-448.138 0.1)"/><path class="b" d="M.182,270.2c.045.279.085.557.133.837.059.338.1.68.183,1.012.117.471.26.933.4,1.4a17.363,17.363,0,0,0,1.089,2.749,20.627,20.627,0,0,0,2.3,3.743,7.873,7.873,0,0,0,1.748,1.69,3.8,3.8,0,0,0,1.658.656,3.472,3.472,0,0,0,1.756-.289c.579-.233,1.145-.51,1.724-.741a2.893,2.893,0,0,1,.813-.212,15.875,15.875,0,0,1,1.592-.053,2.9,2.9,0,0,1,1.145.173c.444.193.885.4,1.328.592a7.3,7.3,0,0,0,1.389.482,3.039,3.039,0,0,0,1.49-.077,4.79,4.79,0,0,0,2.1-1.342,12.5,12.5,0,0,0,1.918-2.625,32.237,32.237,0,0,0,1.878-4,.4.4,0,0,0,.016-.127c-.394-.226-.772-.427-1.14-.662a5.847,5.847,0,0,1-2.325-2.749,7.131,7.131,0,0,1-.5-2.4,6.565,6.565,0,0,1,.494-2.976,7.721,7.721,0,0,1,1.557-2.315c.362-.374.749-.725,1.158-1.116a7.234,7.234,0,0,0-1.705-1.722,6.515,6.515,0,0,0-3.533-1.2,6.7,6.7,0,0,0-2.231.2c-.725.215-1.434.482-2.155.715a8.3,8.3,0,0,1-1.238.359,3.348,3.348,0,0,1-1.666-.2c-.627-.232-1.254-.471-1.886-.675a7.053,7.053,0,0,0-1.206-.289A8.87,8.87,0,0,0,7.23,259a6.242,6.242,0,0,0-2.09.4,7.034,7.034,0,0,0-3.312,2.63,9.2,9.2,0,0,0-1.494,3.5A14.108,14.108,0,0,0,.1,267.389a18.038,18.038,0,0,0,.069,2.7.709.709,0,0,0,.014.108Z" transform="translate(-0.077 -252.032)"/></g></svg>