<svg xmlns="http://www.w3.org/2000/svg" width="20" height="20" viewBox="0 0 20 20"><defs><style>.a{fill:#208ce1;}.b,.d{fill:none;}.b{stroke:#208ce1;stroke-width:1.5px;}.c{stroke:none;}</style></defs><g transform="translate(-1419 -30)"><path class="a" d="M140.325,138.735a3.684,3.684,0,0,1-1.521-.361,10.448,10.448,0,0,1-4.924-4.782,5.36,5.36,0,0,1-.41-1.125,2.446,2.446,0,0,1,1-2.632.721.721,0,0,1,1.167.205,14.116,14.116,0,0,1,1.012,1.57.98.98,0,0,1-.1,1.252,1.183,1.183,0,0,0,0,1.691,13.364,13.364,0,0,0,.891,1,1.325,1.325,0,0,0,1.7.276,1.382,1.382,0,0,0,.248-.134,1.164,1.164,0,0,1,1.627.035,12.011,12.011,0,0,1,1.181.891.742.742,0,0,1,.1,1.153A2.224,2.224,0,0,1,140.325,138.735Z" transform="translate(1291.033 -94.181)"/><g class="b" transform="translate(1419 30)"><circle class="c" cx="10" cy="10" r="10"/><circle class="d" cx="10" cy="10" r="9.25"/></g></g></svg>