<svg xmlns="http://www.w3.org/2000/svg" xmlns:xlink="http://www.w3.org/1999/xlink" width="33.563" height="19.578" viewBox="0 0 33.563 19.578"><defs><style>.a{fill:none;}.b{clip-path:url(#a);}.c{fill:#fff;}.d{fill:#f0953e;}.e{fill:#3b8916;}.f{fill:#16007e;}</style><clipPath id="a"><rect class="a" width="33.563" height="19.578" transform="translate(721.117 446.805)"/></clipPath></defs><g transform="translate(-721.117 -446.805)"><g class="b"><rect class="c" width="33.563" height="19.578" transform="translate(721.117 446.805)"/><rect class="d" width="33.563" height="6.527" transform="translate(721.117 446.805)"/><rect class="e" width="33.563" height="6.523" transform="translate(721.117 459.859)"/><g class="b"><path class="f" d="M737.9,453.66a2.936,2.936,0,1,0,2.938,2.934,2.936,2.936,0,0,0-2.938-2.934m0,.285-.075,1.477.08.84.075-.84-.075-1.477a2.1,2.1,0,0,1,.227.012l0,.008a.127.127,0,0,0,.121.129.122.122,0,0,0,.119-.11,2.2,2.2,0,0,1,.217.051l-.453,1.406-.145.832.293-.8.313-1.442c.07.024.14.043.211.07a.142.142,0,0,0-.01.043.123.123,0,0,0,.123.122.124.124,0,0,0,.111-.075c.067.032.131.067.2.106l-.8,1.234-.355.774.49-.692.674-1.312c.06.035.123.074.185.113a.125.125,0,0,0-.027.078.121.121,0,0,0,.123.121.1.1,0,0,0,.095-.051q.089.076.165.153l-1.094.988-.541.652.65-.539.99-1.1c.051.054.1.105.149.164a.118.118,0,0,0-.043.093.121.121,0,0,0,.119.122.112.112,0,0,0,.072-.024,1.951,1.951,0,0,1,.119.188l-1.312.672-.691.492.767-.352,1.24-.808c.041.07.075.144.108.207a.133.133,0,0,0-.074.117.121.121,0,0,0,.119.121.089.089,0,0,0,.047-.012c.023.07.045.137.062.207l-1.443.3-.791.293.832-.141,1.406-.449c.018.062.035.141.049.211a.118.118,0,0,0-.106.121.124.124,0,0,0,.123.121h.012a2,2,0,0,1,.008.219l-1.473-.07-.844.074.844.082,1.473-.078a1.988,1.988,0,0,1-.008.222h-.012a.127.127,0,0,0-.123.121.124.124,0,0,0,.1.122c-.014.074-.029.144-.047.214l-.5-.16-.9-.293-.832-.14h0l.791.293,1.443.308a1.311,1.311,0,0,1-.066.207l-.016,0h-.027a.119.119,0,0,0-.123.121.1.1,0,0,0,.011.047h0a.09.09,0,0,0,.034.047h0l.009,0h0l.012.008h0l.008.008c-.031.066-.067.132-.1.2l-1.238-.8h0l-.767-.351h0l.4.281.285.2h0l1.312.672a2.234,2.234,0,0,1-.121.191.146.146,0,0,0-.07-.019.117.117,0,0,0-.121.117.112.112,0,0,0,.045.094c-.049.054-.1.109-.149.16l-.99-1.094-.648-.539.539.652,1.094.989a1.666,1.666,0,0,1-.159.144.114.114,0,0,0-.076-.027.124.124,0,0,0-.121.121.146.146,0,0,0,.01.055c-.065.039-.131.082-.2.125l-.674-1.313-.49-.7h0l.353.769.8,1.243c-.065.035-.129.07-.2.1a.112.112,0,0,0-.109-.074.125.125,0,0,0-.123.121.191.191,0,0,0,.008.047,2.035,2.035,0,0,1-.211.062l-.313-1.445-.293-.785v0l.145.832.453,1.406a1.378,1.378,0,0,1-.217.047.124.124,0,0,0-.119-.1.118.118,0,0,0-.121.117v.015a2.07,2.07,0,0,1-.223.012l.075-1.473-.079-.843-.076.843.075,1.473a2.117,2.117,0,0,1-.227-.012v-.015a.121.121,0,0,0-.123-.117.124.124,0,0,0-.119.1,1.753,1.753,0,0,1-.211-.047l.453-1.406.14-.828-.292.785-.309,1.445c-.07-.015-.141-.039-.213-.062a.131.131,0,0,0,.01-.047.124.124,0,0,0-.119-.121.129.129,0,0,0-.115.074c-.065-.031-.131-.066-.2-.1l.8-1.243.351-.769-.488.691-.672,1.317c-.064-.043-.129-.082-.189-.125a.1.1,0,0,0,.023-.067.122.122,0,0,0-.119-.125.116.116,0,0,0-.094.047c-.058-.051-.113-.094-.164-.148l1.1-.989.539-.652h0l-.65.539-.991,1.094c-.054-.051-.1-.11-.152-.16a.133.133,0,0,0,.047-.1.119.119,0,0,0-.121-.117.148.148,0,0,0-.072.019,1.942,1.942,0,0,1-.12-.187l1.317-.676.685-.48-.767.351-1.238.8c-.037-.063-.067-.125-.1-.2a.114.114,0,0,0,.078-.11.122.122,0,0,0-.123-.125.116.116,0,0,0-.051.012c-.023-.066-.047-.141-.068-.215l1.445-.308.795-.293-.836.14-1.406.453c-.02-.07-.033-.14-.049-.218a.117.117,0,0,0,.106-.118.122.122,0,0,0-.121-.121h-.014c0-.07-.01-.144-.01-.222l1.475.078.842-.082-.842-.074-1.475.07c0-.07.006-.149.01-.219h.021a.119.119,0,0,0,.121-.121.121.121,0,0,0-.113-.121c.016-.07.029-.149.049-.211l1.406.449.836.141-.795-.293-1.445-.309c.021-.074.045-.144.068-.211a.17.17,0,0,0,.045.008.12.12,0,0,0,.121-.121.115.115,0,0,0-.072-.109,2.272,2.272,0,0,1,.1-.2l1.238.808.771.352-.689-.492-1.317-.672c.038-.063.079-.125.122-.192a.1.1,0,0,0,.072.028.124.124,0,0,0,.121-.122.151.151,0,0,0-.045-.1c.045-.055.094-.106.147-.16l.99,1.1.652.539-.539-.652-1.1-.988c.055-.051.108-.1.164-.149a.116.116,0,0,0,.094.047.122.122,0,0,0,.123-.125.143.143,0,0,0-.025-.074c.062-.035.123-.078.187-.113l.672,1.312.488.688-.351-.77-.8-1.234c.065-.039.129-.074.194-.106a.121.121,0,0,0,.113.078.119.119,0,0,0,.121-.117.175.175,0,0,0-.008-.051c.069-.027.143-.046.213-.07l.313,1.442.293.8-.143-.832-.453-1.406a2.04,2.04,0,0,1,.215-.051.121.121,0,0,0,.119.106.123.123,0,0,0,.123-.125v-.012a2.013,2.013,0,0,1,.221-.008"/><path class="c" d="M737.9,456.156a.44.44,0,1,1-.441.438.439.439,0,0,1,.441-.438"/><path class="f" d="M737.9,456.258a.336.336,0,0,1,.338.336.341.341,0,1,1-.338-.336"/></g></g></g></svg>