<svg id="Group_35755" data-name="Group 35755" xmlns="http://www.w3.org/2000/svg" xmlns:xlink="http://www.w3.org/1999/xlink" width="1921" height="674" viewBox="0 0 1921 674">
  <defs>
    <clipPath id="clip-path">
      <rect id="Rectangle_15515" data-name="Rectangle 15515" width="1921" height="594" fill="#fff" stroke="#707070" stroke-width="1"/>
    </clipPath>
    <clipPath id="clip-path-2">
      <rect id="Rectangle_15514" data-name="Rectangle 15514" width="2985" height="611" transform="translate(0 0.217)" fill="#fff" stroke="#707070" stroke-width="1"/>
    </clipPath>
    <clipPath id="clip-path-3">
      <rect id="Rectangle_15513" data-name="Rectangle 15513" width="2090.464" height="596.69" fill="#fff" stroke="#707070" stroke-width="1"/>
    </clipPath>
    <linearGradient id="linear-gradient" x1="0.631" y1="0.621" x2="2.221" y2="-0.29" gradientUnits="objectBoundingBox">
      <stop offset="0" stop-color="#00a0ff" stop-opacity="0.529"/>
      <stop offset="1" stop-color="#c4ddff" stop-opacity="0.322"/>
    </linearGradient>
    <linearGradient id="linear-gradient-2" x1="0.369" y1="0.621" x2="-1.221" y2="-0.29" gradientUnits="objectBoundingBox">
      <stop offset="0" stop-color="#61c4ff" stop-opacity="0.18"/>
      <stop offset="1" stop-color="#c4ddff" stop-opacity="0.322"/>
    </linearGradient>
    <linearGradient id="linear-gradient-3" x1="0.73" y1="0.346" x2="0.4" y2="-0.68" xlink:href="#linear-gradient"/>
    <linearGradient id="linear-gradient-4" x1="0.369" y1="0.621" x2="-1.221" y2="-0.29" xlink:href="#linear-gradient"/>
  </defs>
  <g id="Group_35752" data-name="Group 35752">
    <rect id="Rectangle_15512" data-name="Rectangle 15512" width="1920" height="674" transform="translate(1)" fill="#d9f4ff"/>
    <g id="Mask_Group_96" data-name="Mask Group 96" transform="translate(0 80)" opacity="0.6" clip-path="url(#clip-path)">
      <g id="Mask_Group_95" data-name="Mask Group 95" transform="translate(-595 -17.217)" opacity="0.13" clip-path="url(#clip-path-2)" style="mix-blend-mode: multiply;isolation: isolate">
        <g id="Group_35754" data-name="Group 35754" transform="translate(27.536 53.535)">
          <g id="Group_35753" data-name="Group 35753" transform="translate(0 0)">
            <g id="Mask_Group_94" data-name="Mask Group 94" transform="translate(0 0)" clip-path="url(#clip-path-3)">
              <g id="Group_35752-2" data-name="Group 35752" transform="translate(0.198 81.857)">
                <path id="Path_76979" data-name="Path 76979" d="M-11698.322-9843.263l-29.346,74.824h-590.988l-606.7,108.12-244.924,194.063v-153.6l770.08-699.974,510.375,493.895,191.506-171.729v154.4Z" transform="translate(13234.691 10319.826)" opacity="0.81" fill="url(#linear-gradient)" style="mix-blend-mode: luminosity;isolation: isolate"/>
                <path id="Path_76980" data-name="Path 76980" d="M-13164.428-9794.936h472.135l552.1,10.439h267l-820.469-528.407-455.156,381.646V-9784.5Z" transform="translate(13164.428 10316.919)" fill="url(#linear-gradient-2)" style="mix-blend-mode: luminosity;isolation: isolate"/>
                <path id="Path_76981" data-name="Path 76981" d="M-13039.028-9846.511l521.08-6.987,196.152-4.252,627.781,4.252v-4.252l15.895-8.408-558.986-468.984-591.471,505.324-210.451-165.417v148.725Z" transform="translate(13649.097 10363.879)" fill="url(#linear-gradient-3)" style="mix-blend-mode: luminosity;isolation: isolate"/>
              </g>
            </g>
            <path id="Path_76982" data-name="Path 76982" d="M-13039.028-9845.084l521.08-6.986,196.152-4.252h627.781l15.895-8.408-462.027-472.119-688.43,508.461-210.451-165.418v148.723Z" transform="translate(14635.546 10428.751)" opacity="0.72" fill="url(#linear-gradient-4)" style="mix-blend-mode: luminosity;isolation: isolate"/>
          </g>
          <path id="Path_76983" data-name="Path 76983" d="M-11541.621-9736.292l-20.062,24.761h-655.594l-673.023,115.542-271.7,207.382v-164.138l823.163-725.635,597.267,505.414,43.9,36.674h156.051Z" transform="translate(14212.856 10308.479)" opacity="0.51" fill="url(#linear-gradient)" style="mix-blend-mode: luminosity;isolation: isolate"/>
        </g>
      </g>
    </g>
  </g>
</svg>
