<svg xmlns="http://www.w3.org/2000/svg" xmlns:xlink="http://www.w3.org/1999/xlink" width="40.383" height="40.383" viewBox="0 0 40.383 40.383">
  <defs>
    <clipPath id="clip-path">
      <rect id="Rectangle_13464" data-name="Rectangle 13464" width="40.383" height="40.383" fill="#fff" stroke="#707070" stroke-width="1"/>
    </clipPath>
  </defs>
  <g id="Group_41118" data-name="Group 41118" transform="translate(-10 -10)">
    <g id="Group_40935" data-name="Group 40935" transform="translate(10 10)">
      <g id="Mask_Group_13" data-name="Mask Group 13" transform="translate(0 0)" clip-path="url(#clip-path)">
        <g id="Group_27088" data-name="Group 27088" transform="translate(2.033 2.103)">
          <g id="Group_27085" data-name="Group 27085" transform="translate(19.628 0)">
            <g id="Group_27086" data-name="Group 27086" transform="translate(0)">
              <path id="Path_15565" data-name="Path 15565" d="M-2858.692-3934.642s-1.215-6.421,4.05-6.421,9.662,7.406,7.347,14.291-12.265,8.1-11.4-.406" transform="translate(2862.961 3941.063)" fill="none" stroke="#208ce1" stroke-linecap="round" stroke-width="1.5"/>
              <path id="Path_15566" data-name="Path 15566" d="M-2841.464-3933.751s.489,2.313-5.208,3.6c-6,1.727-3.875,8.411-4.248,14.817" transform="translate(2850.995 3939.491)" fill="none" stroke="#208ce1" stroke-linecap="round" stroke-width="1.5"/>
              <path id="Path_15567" data-name="Path 15567" d="M-2847.717-3927.385s-1.169-1.633-6.092-2.475" transform="translate(2860.087 3938.656)" fill="none" stroke="#208ce1" stroke-linecap="round" stroke-width="1.5"/>
              <path id="Path_15568" data-name="Path 15568" d="M-2848.823-3926.291s-.359-3.209-4.254-6.014" transform="translate(2858.265 3941.535)" fill="none" stroke="#208ce1" stroke-linecap="round" stroke-width="1.5"/>
            </g>
          </g>
          <g id="Group_27087" data-name="Group 27087" transform="translate(0 0)">
            <g id="Group_27086-2" data-name="Group 27086">
              <path id="Path_15565-2" data-name="Path 15565" d="M-2846.784-3934.642s1.215-6.421-4.049-6.421-9.662,7.406-7.348,14.291,12.264,8.1,11.4-.406" transform="translate(2858.814 3941.063)" fill="none" stroke="#208ce1" stroke-linecap="round" stroke-width="1.5"/>
              <path id="Path_15566-2" data-name="Path 15566" d="M-2850.986-3933.751s-.489,2.313,5.208,3.6c6,1.727,3.877,8.516,4.25,14.924" transform="translate(2857.755 3939.491)" fill="none" stroke="#208ce1" stroke-linecap="round" stroke-width="1.5"/>
              <path id="Path_15567-2" data-name="Path 15567" d="M-2853.809-3927.385s1.168-1.633,6.092-2.475" transform="translate(2857.738 3938.656)" fill="none" stroke="#208ce1" stroke-linecap="round" stroke-width="1.5"/>
              <path id="Path_15568-2" data-name="Path 15568" d="M-2853.078-3926.291s.358-3.209,4.253-6.014" transform="translate(2859.936 3941.535)" fill="none" stroke="#208ce1" stroke-linecap="round" stroke-width="1.5"/>
            </g>
          </g>
          <path id="Path_15569" data-name="Path 15569" d="M-2840.061-3898.38v-2.977s-3.564-.614-4.283-2.461.746-6.577,6.291-6.543,6.906,4.007,6.029,6.543-4.625,2.461-4.625,2.461v2.977" transform="translate(2856.362 3934.465)" fill="none" stroke="#208ce1" stroke-linecap="round" stroke-linejoin="round" stroke-width="1.5"/>
        </g>
      </g>
      <path id="Path_15570" data-name="Path 15570" d="M-2220.95-3226.451a12.283,12.283,0,0,1,5.255-.4,7.5,7.5,0,0,1,3.764,2.473s.675-3.351-3.373-4.255A4.939,4.939,0,0,0-2220.95-3226.451Z" transform="translate(2237.2 3256.605)" fill="#e2e8f3"/>
    </g>
  </g>
</svg>
