<svg xmlns="http://www.w3.org/2000/svg" width="22.584" height="23.976" viewBox="0 0 22.584 23.976"><defs><style>.a{fill:#5d7082;}</style></defs><g transform="translate(-63.2 -216.36)"><path class="a" d="M63.2,361.473a.646.646,0,0,1,.018-.152,10.215,10.215,0,0,1,.873-2.353,6.071,6.071,0,0,1,1.328-1.744,4.479,4.479,0,0,1,2.6-1.031c.626-.069,1.254-.115,1.875-.164a.634.634,0,0,1,.595.31,17.809,17.809,0,0,0,2.175,2.761.634.634,0,0,0,1.086-.267c.067-.263.133-.522.2-.781a.2.2,0,0,0-.054-.147l-.05-.059a.635.635,0,0,1,.487-1.04h.347a.633.633,0,0,1,.474,1.055l-.009.009a.3.3,0,0,0-.089.222c.06.248.122.495.186.745a.634.634,0,0,0,1.086.267,19.1,19.1,0,0,0,2.194-2.784.633.633,0,0,1,.608-.3c.789.084,1.605.163,2.417.275a4.124,4.124,0,0,1,2.86,1.86,8.133,8.133,0,0,1,1.315,2.994,2.137,2.137,0,0,1-.816,2.29,7.074,7.074,0,0,1-2.642,1.127,22.016,22.016,0,0,1-4.5.646c-1.641.067-3.287.125-4.928.087a25.394,25.394,0,0,1-6.8-.928,6.217,6.217,0,0,1-1.894-.886,2.126,2.126,0,0,1-.9-1.453.792.792,0,0,0-.023-.1.642.642,0,0,1-.025-.177Z" transform="translate(0 -124.974)"/><path class="a" d="M118.345,216.363a5.829,5.829,0,0,1,3.315.8A5.088,5.088,0,0,1,124,220.9c.087.559.066,1.135.106,1.7a.542.542,0,0,0,.111.3,1.368,1.368,0,0,1,.274.856,2.774,2.774,0,0,1-.862,2.5,1.04,1.04,0,0,0-.163.263,8.923,8.923,0,0,1-2.33,3.429,3.893,3.893,0,0,1-5.5.06,8.892,8.892,0,0,1-2.395-3.471,1.57,1.57,0,0,0-.257-.34,2.868,2.868,0,0,1-.322-.4,3.544,3.544,0,0,1-.4-2.367,2.926,2.926,0,0,1,.282-.585.643.643,0,0,0,.056-.273,7.222,7.222,0,0,1,.4-2.848,4.93,4.93,0,0,1,4.057-3.282,5.932,5.932,0,0,1,.639-.073C117.915,216.354,118.13,216.363,118.345,216.363Z" transform="translate(-43.857)"/></g></svg>