<svg xmlns="http://www.w3.org/2000/svg" width="31" height="31" viewBox="0 0 31 31"><defs><style>.a{fill:#208ce1;}.b,.d{fill:none;}.b{stroke:#707070;opacity:0;}.c{stroke:none;}</style></defs><g transform="translate(-1388 -248)"><g transform="translate(1388 248)"><path class="a" d="M40.983,4a5.331,5.331,0,1,0,5.329,5.33A5.331,5.331,0,0,0,40.983,4Z" transform="translate(-25.697)"/><path class="a" d="M23.542,67.03A10.314,10.314,0,0,0,16.227,64H14.346A10.346,10.346,0,0,0,4,74.346a.941.941,0,0,0,.941.941H25.632a.941.941,0,0,0,.941-.941A10.314,10.314,0,0,0,23.542,67.03Z" transform="translate(0 -48.714)"/></g><g class="b" transform="translate(1388 248)"><rect class="c" width="31" height="31"/><rect class="d" x="0.5" y="0.5" width="30" height="30"/></g></g></svg>