<svg xmlns="http://www.w3.org/2000/svg" width="60.937" height="46.624" viewBox="0 0 60.937 46.624"><defs><style>.a{fill:#208ce1;}.b{fill:none;stroke:#162d43;}</style></defs><g transform="translate(-359.5 -1119.405)"><path class="a" d="M21.471,0A21.534,21.534,0,0,0,0,21.471V42.942H21.471V21.471H7.157A14.265,14.265,0,0,1,21.471,7.157ZM57.257,0A21.534,21.534,0,0,0,35.785,21.471V42.942H57.257V21.471H42.942A14.265,14.265,0,0,1,57.257,7.157Z" transform="translate(363.181 1123.086)"/><path class="b" d="M21.471,0A21.534,21.534,0,0,0,0,21.471V42.942H21.471V21.471H7.157A14.265,14.265,0,0,1,21.471,7.157ZM57.257,0A21.534,21.534,0,0,0,35.785,21.471V42.942H57.257V21.471H42.942A14.265,14.265,0,0,1,57.257,7.157Z" transform="translate(360 1119.905)"/></g></svg>