<svg version="1.2" baseProfile="tiny-ps" xmlns="http://www.w3.org/2000/svg" viewBox="0 0 37 32" width="37" height="32">
	<title>sj_icon-svg</title>
	<style>
		tspan { white-space:pre }
		.shp0 { fill: #e2e2e2 } 
		.txt1 { font-size: 28px;fill: #b8b8b8;font-weight: 700;font-family: "IBMPlexSans-Bold", "IBM Plex Sans" } 
	</style>
	<g id="Layer">
		<path id="Layer" class="shp0" d="M-2 -14L49 -14L49 46L-2 46C-2.92 46 -3.83 45.82 -4.68 45.47C-5.53 45.12 -6.3 44.6 -6.95 43.95C-7.6 43.3 -8.12 42.53 -8.47 41.68C-8.82 40.83 -9 39.92 -9 39L-9 -7C-9 -7.92 -8.82 -8.83 -8.47 -9.68C-8.12 -10.53 -7.6 -11.3 -6.95 -11.95C-6.3 -12.6 -5.53 -13.12 -4.68 -13.47C-3.83 -13.82 -2.92 -14 -2 -14L-2 -14Z" />
		<text id="SJ" style="transform: matrix(1,0,0,1,3,27)" >
			<tspan x="0" y="0" class="txt1">SJ
</tspan>
		</text>
	</g>
</svg>