<svg xmlns="http://www.w3.org/2000/svg" xmlns:xlink="http://www.w3.org/1999/xlink" width="50" height="50" viewBox="0 0 50 50"><defs><style>.a,.e,.f{fill:#fff;}.a{stroke:#707070;}.b{clip-path:url(#a);}.c,.d,.h{fill:none;}.c,.d,.e,.f{stroke:#208ce1;stroke-width:1.5px;}.c,.d,.f{stroke-linecap:round;}.d,.f{stroke-linejoin:round;}.g{stroke:none;}</style><clipPath id="a"><rect class="a" width="50" height="50" transform="translate(-664 -7430)"/></clipPath></defs><g class="b" transform="translate(664 7430)"><path class="c" d="M-651.316-7382.23v-4.9s-3.228-2.554-3.719-5.633-.312-18.119-.312-18.119,1.473-4.239,5.489-1.2a7.662,7.662,0,0,1,1.737-2.111c.842-.7,2.409-.962,4.278.923l.2.176c1.55-4.974,4.718-2.4,6-1.646-.044-5.36-.254-10.292-.254-10.292s-.391-3.8,3.035-3.838,3.169,4.909,3.169,4.909"/><path class="d" d="M-643.535-7395.471s1.424-7.136,10.822-6.788c5.4-7.252,4.475-6.19,5.976-7.948s4.815-2.9,5.163.87-4.583,9.457-4.583,9.457a61.841,61.841,0,0,1-7.774,11.95v5.627"/><path class="d" d="M-655.169-7405s3.347,3.793,5.534-.268c.134-4.775,0-6.783,0-6.783"/><g class="e" transform="translate(-650 -7416)"><rect class="g" width="7" height="13" rx="3.5"/><rect class="h" x="0.75" y="0.75" width="5.5" height="11.5" rx="2.75"/></g><g class="e" transform="translate(-644 -7417)"><rect class="g" width="7" height="14" rx="3.5"/><rect class="h" x="0.75" y="0.75" width="5.5" height="12.5" rx="2.75"/></g><g class="e" transform="translate(-656 -7414)"><rect class="g" width="7" height="11" rx="3.5"/><rect class="h" x="0.75" y="0.75" width="5.5" height="9.5" rx="2.75"/></g><path class="f" d="M9.188,4.035,11.44,6.31a3.239,3.239,0,0,1,0,4.548,3.159,3.159,0,0,1-4.5,0,3.239,3.239,0,0,1,0-4.548Z" transform="translate(-640.881 -7425.801)"/><path class="c" d="M-631.691-7412.716v3.485" transform="translate(0 1.215)"/></g></svg>