<svg xmlns="http://www.w3.org/2000/svg" xmlns:xlink="http://www.w3.org/1999/xlink" width="1640" height="264" viewBox="0 0 1640 264"><defs><style>.a{fill:url(#a);}.b,.e{fill:none;}.c{opacity:0.02;clip-path:url(#b);}.d{clip-path:url(#c);}.e{stroke:#1589bb;stroke-width:2px;}</style><linearGradient id="a" x1="1" y1="0.042" x2="0" y2="1" gradientUnits="objectBoundingBox"><stop offset="0" stop-color="#edf4fd"/><stop offset="1" stop-color="#ecf4fc"/></linearGradient><clipPath id="b"><rect class="a" width="1640" height="264" rx="20" transform="translate(-956 -17030)"/></clipPath><clipPath id="c"><rect class="b" width="2178" height="433.013"/></clipPath></defs><g class="c" transform="translate(956 17030)"><g class="d" transform="translate(-1295 -17059.82)"><g transform="translate(1446 16699.82)"><path class="e" d="M26.683,70.225H0V0H49.763V23.081h-25.7V47.963h25.7V70.225L20.3,94.289Z" transform="translate(-1135.935 -16698.82)"/><path class="e" d="M23.081,70.225H49.763V0H0V23.081H25.7V47.963H0V70.225Z" transform="translate(-1062.633 -16698.82)"/><path class="e" d="M26.683,70.225H0V0H49.763V23.081h-25.7V47.963h25.7V70.225L20.3,94.289Z" transform="translate(-1259 -16587.322)"/><path class="e" d="M23.081,70.225H49.763V0H0V23.081H25.7V47.963H0V70.225Z" transform="translate(-1185.698 -16587.322)"/><g transform="translate(-1558.193 -16617.703)"><path class="e" d="M26.683,70.225H0V0H49.763V23.081h-25.7V47.963h25.7V70.225L20.3,94.289Z" transform="translate(225.193 141.882)"/><path class="e" d="M23.081,70.225H49.763V0H0V23.081H25.7V47.963H0V70.225Z" transform="translate(298.495 141.882)"/></g><path class="e" d="M26.683,70.225H0V0H49.763V23.081h-25.7V47.963h25.7V70.225L20.3,94.289Z" transform="translate(-1445 -16363.824)"/><path class="e" d="M23.081,70.225H49.763V0H0V23.081H25.7V47.963H0V70.225Z" transform="translate(-1371.698 -16363.824)"/></g><g transform="translate(1634 16699.82)"><path class="e" d="M26.683,70.225H0V0H49.763V23.081h-25.7V47.963h25.7V70.225L20.3,94.289Z" transform="translate(-1135.935 -16698.82)"/><path class="e" d="M23.081,70.225H49.763V0H0V23.081H25.7V47.963H0V70.225Z" transform="translate(-1062.633 -16698.82)"/><path class="e" d="M26.683,70.225H0V0H49.763V23.081h-25.7V47.963h25.7V70.225L20.3,94.289Z" transform="translate(-1259 -16587.322)"/><path class="e" d="M23.081,70.225H49.763V0H0V23.081H25.7V47.963H0V70.225Z" transform="translate(-1185.698 -16587.322)"/><g transform="translate(-1558.193 -16617.703)"><path class="e" d="M26.683,70.225H0V0H49.763V23.081h-25.7V47.963h25.7V70.225L20.3,94.289Z" transform="translate(225.193 141.882)"/><path class="e" d="M23.081,70.225H49.763V0H0V23.081H25.7V47.963H0V70.225Z" transform="translate(298.495 141.882)"/></g><path class="e" d="M26.683,70.225H0V0H49.763V23.081h-25.7V47.963h25.7V70.225L20.3,94.289Z" transform="translate(-1445 -16363.824)"/><path class="e" d="M23.081,70.225H49.763V0H0V23.081H25.7V47.963H0V70.225Z" transform="translate(-1371.698 -16363.824)"/></g><g transform="translate(1822 16699.82)"><path class="e" d="M26.683,70.225H0V0H49.763V23.081h-25.7V47.963h25.7V70.225L20.3,94.289Z" transform="translate(-1135.935 -16698.82)"/><path class="e" d="M23.081,70.225H49.763V0H0V23.081H25.7V47.963H0V70.225Z" transform="translate(-1062.633 -16698.82)"/><path class="e" d="M26.683,70.225H0V0H49.763V23.081h-25.7V47.963h25.7V70.225L20.3,94.289Z" transform="translate(-1259 -16587.322)"/><path class="e" d="M23.081,70.225H49.763V0H0V23.081H25.7V47.963H0V70.225Z" transform="translate(-1185.698 -16587.322)"/><g transform="translate(-1558.193 -16617.703)"><path class="e" d="M26.683,70.225H0V0H49.763V23.081h-25.7V47.963h25.7V70.225L20.3,94.289Z" transform="translate(225.193 141.882)"/><path class="e" d="M23.081,70.225H49.763V0H0V23.081H25.7V47.963H0V70.225Z" transform="translate(298.495 141.882)"/></g><path class="e" d="M26.683,70.225H0V0H49.763V23.081h-25.7V47.963h25.7V70.225L20.3,94.289Z" transform="translate(-1445 -16363.824)"/><path class="e" d="M23.081,70.225H49.763V0H0V23.081H25.7V47.963H0V70.225Z" transform="translate(-1371.698 -16363.824)"/></g><g transform="translate(2010 16699.82)"><path class="e" d="M26.683,70.225H0V0H49.763V23.081h-25.7V47.963h25.7V70.225L20.3,94.289Z" transform="translate(-1135.935 -16698.82)"/><path class="e" d="M23.081,70.225H49.763V0H0V23.081H25.7V47.963H0V70.225Z" transform="translate(-1062.633 -16698.82)"/><path class="e" d="M26.683,70.225H0V0H49.763V23.081h-25.7V47.963h25.7V70.225L20.3,94.289Z" transform="translate(-1259 -16587.322)"/><path class="e" d="M23.081,70.225H49.763V0H0V23.081H25.7V47.963H0V70.225Z" transform="translate(-1185.698 -16587.322)"/><g transform="translate(-1558.193 -16617.703)"><path class="e" d="M26.683,70.225H0V0H49.763V23.081h-25.7V47.963h25.7V70.225L20.3,94.289Z" transform="translate(225.193 141.882)"/><path class="e" d="M23.081,70.225H49.763V0H0V23.081H25.7V47.963H0V70.225Z" transform="translate(298.495 141.882)"/></g><path class="e" d="M26.683,70.225H0V0H49.763V23.081h-25.7V47.963h25.7V70.225L20.3,94.289Z" transform="translate(-1445 -16363.824)"/><path class="e" d="M23.081,70.225H49.763V0H0V23.081H25.7V47.963H0V70.225Z" transform="translate(-1371.698 -16363.824)"/></g><g transform="translate(2198 16699.82)"><path class="e" d="M26.683,70.225H0V0H49.763V23.081h-25.7V47.963h25.7V70.225L20.3,94.289Z" transform="translate(-1135.935 -16698.82)"/><path class="e" d="M23.081,70.225H49.763V0H0V23.081H25.7V47.963H0V70.225Z" transform="translate(-1062.633 -16698.82)"/><path class="e" d="M26.683,70.225H0V0H49.763V23.081h-25.7V47.963h25.7V70.225L20.3,94.289Z" transform="translate(-1259 -16587.322)"/><path class="e" d="M23.081,70.225H49.763V0H0V23.081H25.7V47.963H0V70.225Z" transform="translate(-1185.698 -16587.322)"/><g transform="translate(-1558.193 -16617.703)"><path class="e" d="M26.683,70.225H0V0H49.763V23.081h-25.7V47.963h25.7V70.225L20.3,94.289Z" transform="translate(225.193 141.882)"/><path class="e" d="M23.081,70.225H49.763V0H0V23.081H25.7V47.963H0V70.225Z" transform="translate(298.495 141.882)"/></g><path class="e" d="M26.683,70.225H0V0H49.763V23.081h-25.7V47.963h25.7V70.225L20.3,94.289Z" transform="translate(-1445 -16363.824)"/><path class="e" d="M23.081,70.225H49.763V0H0V23.081H25.7V47.963H0V70.225Z" transform="translate(-1371.698 -16363.824)"/></g><g transform="translate(2386 16699.82)"><path class="e" d="M26.683,70.225H0V0H49.763V23.081h-25.7V47.963h25.7V70.225L20.3,94.289Z" transform="translate(-1135.935 -16698.82)"/><path class="e" d="M23.081,70.225H49.763V0H0V23.081H25.7V47.963H0V70.225Z" transform="translate(-1062.633 -16698.82)"/><path class="e" d="M26.683,70.225H0V0H49.763V23.081h-25.7V47.963h25.7V70.225L20.3,94.289Z" transform="translate(-1259 -16587.322)"/><path class="e" d="M23.081,70.225H49.763V0H0V23.081H25.7V47.963H0V70.225Z" transform="translate(-1185.698 -16587.322)"/><g transform="translate(-1558.193 -16617.703)"><path class="e" d="M26.683,70.225H0V0H49.763V23.081h-25.7V47.963h25.7V70.225L20.3,94.289Z" transform="translate(225.193 141.882)"/><path class="e" d="M23.081,70.225H49.763V0H0V23.081H25.7V47.963H0V70.225Z" transform="translate(298.495 141.882)"/></g><path class="e" d="M26.683,70.225H0V0H49.763V23.081h-25.7V47.963h25.7V70.225L20.3,94.289Z" transform="translate(-1445 -16363.824)"/><path class="e" d="M23.081,70.225H49.763V0H0V23.081H25.7V47.963H0V70.225Z" transform="translate(-1371.698 -16363.824)"/></g><g transform="translate(2574 16699.82)"><path class="e" d="M26.683,70.225H0V0H49.763V23.081h-25.7V47.963h25.7V70.225L20.3,94.289Z" transform="translate(-1135.935 -16698.82)"/><path class="e" d="M23.081,70.225H49.763V0H0V23.081H25.7V47.963H0V70.225Z" transform="translate(-1062.633 -16698.82)"/><path class="e" d="M26.683,70.225H0V0H49.763V23.081h-25.7V47.963h25.7V70.225L20.3,94.289Z" transform="translate(-1259 -16587.322)"/><path class="e" d="M23.081,70.225H49.763V0H0V23.081H25.7V47.963H0V70.225Z" transform="translate(-1185.698 -16587.322)"/><g transform="translate(-1558.193 -16617.703)"><path class="e" d="M26.683,70.225H0V0H49.763V23.081h-25.7V47.963h25.7V70.225L20.3,94.289Z" transform="translate(225.193 141.882)"/><path class="e" d="M23.081,70.225H49.763V0H0V23.081H25.7V47.963H0V70.225Z" transform="translate(298.495 141.882)"/></g><path class="e" d="M26.683,70.225H0V0H49.763V23.081h-25.7V47.963h25.7V70.225L20.3,94.289Z" transform="translate(-1445 -16363.824)"/><path class="e" d="M23.081,70.225H49.763V0H0V23.081H25.7V47.963H0V70.225Z" transform="translate(-1371.698 -16363.824)"/></g><g transform="translate(2762 16699.82)"><path class="e" d="M26.683,70.225H0V0H49.763V23.081h-25.7V47.963h25.7V70.225L20.3,94.289Z" transform="translate(-1135.935 -16698.82)"/><path class="e" d="M23.081,70.225H49.763V0H0V23.081H25.7V47.963H0V70.225Z" transform="translate(-1062.633 -16698.82)"/><path class="e" d="M26.683,70.225H0V0H49.763V23.081h-25.7V47.963h25.7V70.225L20.3,94.289Z" transform="translate(-1259 -16587.322)"/><path class="e" d="M23.081,70.225H49.763V0H0V23.081H25.7V47.963H0V70.225Z" transform="translate(-1185.698 -16587.322)"/><g transform="translate(-1558.193 -16617.703)"><path class="e" d="M26.683,70.225H0V0H49.763V23.081h-25.7V47.963h25.7V70.225L20.3,94.289Z" transform="translate(225.193 141.882)"/><path class="e" d="M23.081,70.225H49.763V0H0V23.081H25.7V47.963H0V70.225Z" transform="translate(298.495 141.882)"/></g><path class="e" d="M26.683,70.225H0V0H49.763V23.081h-25.7V47.963h25.7V70.225L20.3,94.289Z" transform="translate(-1445 -16363.824)"/><path class="e" d="M23.081,70.225H49.763V0H0V23.081H25.7V47.963H0V70.225Z" transform="translate(-1371.698 -16363.824)"/></g><g transform="translate(2950 16699.82)"><path class="e" d="M26.683,70.225H0V0H49.763V23.081h-25.7V47.963h25.7V70.225L20.3,94.289Z" transform="translate(-1135.935 -16698.82)"/><path class="e" d="M23.081,70.225H49.763V0H0V23.081H25.7V47.963H0V70.225Z" transform="translate(-1062.633 -16698.82)"/><path class="e" d="M26.683,70.225H0V0H49.763V23.081h-25.7V47.963h25.7V70.225L20.3,94.289Z" transform="translate(-1259 -16587.322)"/><path class="e" d="M23.081,70.225H49.763V0H0V23.081H25.7V47.963H0V70.225Z" transform="translate(-1185.698 -16587.322)"/><g transform="translate(-1558.193 -16617.703)"><path class="e" d="M26.683,70.225H0V0H49.763V23.081h-25.7V47.963h25.7V70.225L20.3,94.289Z" transform="translate(225.193 141.882)"/><path class="e" d="M23.081,70.225H49.763V0H0V23.081H25.7V47.963H0V70.225Z" transform="translate(298.495 141.882)"/></g><path class="e" d="M26.683,70.225H0V0H49.763V23.081h-25.7V47.963h25.7V70.225L20.3,94.289Z" transform="translate(-1445 -16363.824)"/><path class="e" d="M23.081,70.225H49.763V0H0V23.081H25.7V47.963H0V70.225Z" transform="translate(-1371.698 -16363.824)"/></g><g transform="translate(3138 16699.82)"><path class="e" d="M26.683,70.225H0V0H49.763V23.081h-25.7V47.963h25.7V70.225L20.3,94.289Z" transform="translate(-1135.935 -16698.82)"/><path class="e" d="M23.081,70.225H49.763V0H0V23.081H25.7V47.963H0V70.225Z" transform="translate(-1062.633 -16698.82)"/><path class="e" d="M26.683,70.225H0V0H49.763V23.081h-25.7V47.963h25.7V70.225L20.3,94.289Z" transform="translate(-1259 -16587.322)"/><path class="e" d="M23.081,70.225H49.763V0H0V23.081H25.7V47.963H0V70.225Z" transform="translate(-1185.698 -16587.322)"/><g transform="translate(-1558.193 -16617.703)"><path class="e" d="M26.683,70.225H0V0H49.763V23.081h-25.7V47.963h25.7V70.225L20.3,94.289Z" transform="translate(225.193 141.882)"/><path class="e" d="M23.081,70.225H49.763V0H0V23.081H25.7V47.963H0V70.225Z" transform="translate(298.495 141.882)"/></g><path class="e" d="M26.683,70.225H0V0H49.763V23.081h-25.7V47.963h25.7V70.225L20.3,94.289Z" transform="translate(-1445 -16363.824)"/><path class="e" d="M23.081,70.225H49.763V0H0V23.081H25.7V47.963H0V70.225Z" transform="translate(-1371.698 -16363.824)"/></g><g transform="translate(3326 16699.82)"><path class="e" d="M26.683,70.225H0V0H49.763V23.081h-25.7V47.963h25.7V70.225L20.3,94.289Z" transform="translate(-1135.935 -16698.82)"/><path class="e" d="M23.081,70.225H49.763V0H0V23.081H25.7V47.963H0V70.225Z" transform="translate(-1062.633 -16698.82)"/><path class="e" d="M26.683,70.225H0V0H49.763V23.081h-25.7V47.963h25.7V70.225L20.3,94.289Z" transform="translate(-1259 -16587.322)"/><path class="e" d="M23.081,70.225H49.763V0H0V23.081H25.7V47.963H0V70.225Z" transform="translate(-1185.698 -16587.322)"/><g transform="translate(-1558.193 -16617.703)"><path class="e" d="M26.683,70.225H0V0H49.763V23.081h-25.7V47.963h25.7V70.225L20.3,94.289Z" transform="translate(225.193 141.882)"/><path class="e" d="M23.081,70.225H49.763V0H0V23.081H25.7V47.963H0V70.225Z" transform="translate(298.495 141.882)"/></g><path class="e" d="M26.683,70.225H0V0H49.763V23.081h-25.7V47.963h25.7V70.225L20.3,94.289Z" transform="translate(-1445 -16363.824)"/><path class="e" d="M23.081,70.225H49.763V0H0V23.081H25.7V47.963H0V70.225Z" transform="translate(-1371.698 -16363.824)"/></g><g transform="translate(3514 16699.82)"><path class="e" d="M26.683,70.225H0V0H49.763V23.081h-25.7V47.963h25.7V70.225L20.3,94.289Z" transform="translate(-1135.935 -16698.82)"/><path class="e" d="M23.081,70.225H49.763V0H0V23.081H25.7V47.963H0V70.225Z" transform="translate(-1062.633 -16698.82)"/><path class="e" d="M26.683,70.225H0V0H49.763V23.081h-25.7V47.963h25.7V70.225L20.3,94.289Z" transform="translate(-1259 -16587.322)"/><path class="e" d="M23.081,70.225H49.763V0H0V23.081H25.7V47.963H0V70.225Z" transform="translate(-1185.698 -16587.322)"/><g transform="translate(-1558.193 -16617.703)"><path class="e" d="M26.683,70.225H0V0H49.763V23.081h-25.7V47.963h25.7V70.225L20.3,94.289Z" transform="translate(225.193 141.882)"/><path class="e" d="M23.081,70.225H49.763V0H0V23.081H25.7V47.963H0V70.225Z" transform="translate(298.495 141.882)"/></g><path class="e" d="M26.683,70.225H0V0H49.763V23.081h-25.7V47.963h25.7V70.225L20.3,94.289Z" transform="translate(-1445 -16363.824)"/><path class="e" d="M23.081,70.225H49.763V0H0V23.081H25.7V47.963H0V70.225Z" transform="translate(-1371.698 -16363.824)"/></g></g></g></svg>