<svg xmlns="http://www.w3.org/2000/svg" xmlns:xlink="http://www.w3.org/1999/xlink" width="50" height="50" viewBox="0 0 50 50"><defs><style>.a{fill:#fff;stroke:#707070;}.b{clip-path:url(#a);}.c,.d{fill:none;stroke:#208ce1;stroke-linecap:round;stroke-width:1.5px;}.d{stroke-linejoin:round;}</style><clipPath id="a"><rect class="a" width="50" height="50" transform="translate(-2861 -3943)"/></clipPath></defs><g class="b" transform="translate(2861 3943)"><g transform="translate(0.724 0.081)"><g transform="translate(-2833.813 -3941.063)"><path class="c" d="M-2858.659-3932.883s-1.548-8.18,5.158-8.18,12.307,9.433,9.359,18.2-15.623,10.317-14.518-.516" transform="translate(2863.307 3941.063)"/><path class="c" d="M-2838.856-3933.751s.624,2.948-6.632,4.592c-7.645,2.2-4.937,10.713-5.411,18.874" transform="translate(2850.205 3941.063)"/><path class="c" d="M-2846.049-3926.708s-1.489-2.081-7.76-3.153" transform="translate(2861.016 3941.063)"/><path class="c" d="M-2847.659-3924.643s-.456-4.089-5.418-7.661" transform="translate(2858.895 3944.063)"/></g><g transform="translate(-2859.605 -3941.063)"><path class="c" d="M-2843.49-3932.883s1.548-8.18-5.158-8.18-12.307,9.433-9.359,18.2,15.623,10.317,14.518-.516" transform="translate(2858.813 3941.063)"/><path class="c" d="M-2850.983-3933.751s-.624,2.948,6.632,4.592c7.645,2.2,4.939,10.848,5.414,19.009" transform="translate(2859.605 3941.063)"/><path class="c" d="M-2853.809-3926.708s1.489-2.081,7.76-3.153" transform="translate(2858.813 3941.063)"/><path class="c" d="M-2853.078-3924.643s.456-4.089,5.418-7.661" transform="translate(2861.813 3944.063)"/></g><path class="d" d="M-2838.842-3895.1v-3.794s-4.54-.78-5.455-3.134.949-8.377,8.013-8.334,8.8,5.1,7.679,8.334-5.891,3.134-5.891,3.134v3.794"/></g></g></svg>