<svg xmlns="http://www.w3.org/2000/svg" xmlns:xlink="http://www.w3.org/1999/xlink" width="50" height="50" viewBox="0 0 50 50"><defs><style>.a{fill:#fff;stroke:#57719a;}.b{clip-path:url(#a);}.c,.d{fill:none;stroke:#208ce1;stroke-linecap:round;stroke-width:1.5px;}.c{stroke-linejoin:round;}.e{fill:#e2e8f3;}</style><clipPath id="a"><rect class="a" width="50" height="50" transform="translate(-883 -8019)"/></clipPath></defs><g class="b" transform="translate(883 8019)"><g transform="translate(-31.683 -3.502)"><path class="c" d="M-821.731-7983.37s-9.327,4.209-11.008.2,1.381-6.191,1.65-7.879c.251-1.575.885-4.571-3.864-6.413s-8.035,3.994-8.035,3.994" transform="translate(0.383 1.294)"/><path class="c" d="M-841.026-7995.818s-4.785-2.465-5.959,3.051,5.465,7.662,5.465,7.662" transform="translate(0 1.429)"/><path class="c" d="M-839.657-7990.868s-7.911,13.1,3.461,19.86,26.371-7.5,26.453-13.268c.044-3.069-.971-4.67-1.2-5.934-.126-.475.4-.639,2.1-2.605,3.626-4.2,4.984-13.391-2.828-17.653-6.82-3.722-17.993,2.388-14.483,14.773,1.534,6.136,5.169,5.485,5.169,5.485" transform="translate(0.444 0.022)"/><path class="c" d="M-831.01-7988.721a2.986,2.986,0,0,0,2.682-.39c1.512-.926,3.316-3.071,6.047-2.926" transform="translate(1.493 1.83)"/><path class="c" d="M-830.889-7992.844c-.244-2.438-1.65-6.228-7.628-8.763s-3.157-10.183-3.157-10.183" transform="translate(2.208)"/><path class="d" d="M-827.1-7995.967l-2.974,1.608" transform="translate(1.58 1.465)"/></g><path class="e" d="M-844.969-8011.123s5.675,1.466,5.1,6.943c-.176,1.764-1.5,4.4-4.206,7.283-.041-1.7,2.523-3.882,2.376-7.681S-844.969-8011.123-844.969-8011.123Z"/></g></svg>