<svg xmlns="http://www.w3.org/2000/svg" xmlns:xlink="http://www.w3.org/1999/xlink" width="50" height="50" viewBox="0 0 50 50"><defs><style>.a,.d{fill:#fff;}.a{stroke:#707070;}.b{clip-path:url(#a);}.c,.g{fill:none;}.c,.d{stroke:#208ce1;stroke-width:1.5px;}.e{fill:#e2e8f3;}.f{stroke:none;}</style><clipPath id="a"><rect class="a" width="50" height="50" transform="translate(-1209 -7293)"/></clipPath></defs><g class="b" transform="translate(1209 7293)"><g transform="translate(0.385 -2.268)"><g transform="translate(0.74)"><path class="c" d="M-1194.343-7277.075a11.267,11.267,0,0,1-5.279-3.167c-2.263-2.489-5.629-2.46-6.911-.952s-2.818,5.024,3.291,8.569"/><g class="d" transform="translate(-1204 -7275)"><ellipse class="f" cx="4" cy="3.5" rx="4" ry="3.5"/><ellipse class="g" cx="4" cy="3.5" rx="3.25" ry="2.75"/></g></g><g transform="translate(-1175.167 -7282.237)"><path class="c" d="M-1207.7-7277.075a11.267,11.267,0,0,0,5.279-3.167c2.263-2.489,5.629-2.46,6.911-.952s2.818,5.024-3.291,8.569" transform="translate(1207.701 7282.237)"/><g class="d" transform="translate(1.657 7.237)"><ellipse class="f" cx="4" cy="3.5" rx="4" ry="3.5"/><ellipse class="g" cx="4" cy="3.5" rx="3.25" ry="2.75"/></g></g><path class="c" d="M-1186.515-7249.227l-1.748-7.75a6.015,6.015,0,0,1,0-4.293c.87-2.437-.406-6.9-3.017-11.2s-2.785-4.351-1.682-5.917,7.442-3.962,12.178-2.5c2.671.824,5.132,2.275,5.534,3.436s-.776,2.765-.887,3.01c-1.682,3.713-5.511,6.555-4.931,12.241.394,1.333,1.174,1.792.928,3.478s-2.32,9.494-2.32,9.494"/><path class="e" d="M-1189.363-7276.666s5.389-5.093,10.71.171a15.546,15.546,0,0,0-5.461-.482A44.477,44.477,0,0,0-1189.363-7276.666Z"/></g></g></svg>