<svg xmlns="http://www.w3.org/2000/svg" xmlns:xlink="http://www.w3.org/1999/xlink" width="50" height="50" viewBox="0 0 50 50"><defs><style>.a,.f{fill:#fff;}.a{stroke:#707070;}.b{clip-path:url(#a);}.c,.d,.e,.h{fill:none;}.c,.d,.e,.f{stroke:#208ce1;stroke-width:1.5px;}.c,.e{stroke-linecap:round;}.c{stroke-linejoin:round;}.g{stroke:none;}</style><clipPath id="a"><rect class="a" width="50" height="50" transform="translate(-1068 -8122)"/></clipPath></defs><g class="b" transform="translate(1068 8122)"><g transform="translate(-35.366 0.568)"><path class="c" d="M-1020.644-8083.848s5.434-2.932,9.182-3.423a21.561,21.561,0,0,1,0-2.946"/><path class="c" d="M-1015.69-8085.754s-1.205-1.026-4.954-1.517a21.561,21.561,0,0,0,0-2.946" transform="translate(19)"/><path class="c" d="M-1008.842-8091.154s-4.221.875-6.136-7.015c-.116-.464-.053-.9-1.109-.872a3.2,3.2,0,0,1-2.4-1.109,2.744,2.744,0,0,1,0-3.089c1.215-2.034,2.094-.991,2.773-1.268-.026-.476,0-2.007,0-2.007s3.778-.57,5.453-1.721a19.811,19.811,0,0,0,5.4-5.91c2.878,2.324,4.727,3.142,7.13,7.473v2.376a1.774,1.774,0,0,1,1.637,0c.739.476,1.644,1.137,1.353,3.3s-2.99,2.033-2.99,2.033-.749-.184-.828.344a7.482,7.482,0,0,1-6.417,7.463"/><path class="d" d="M-1017.809-8104.123s-1.276-7.716,2.147-11.139,9.63-6.556,15.548-2.146,4.351,13.285,4.351,13.285"/><path class="c" d="M-1010.909-8091.92c-.067-.108.212.381,0,0a23.533,23.533,0,0,1-2.116-7.1s-.893-2.5,2.41-4.329c.937-2.142,1.155-3.125,3.4-3.6s4.232,1.813,4.321,3.955c1.473.58,2.99,1.071,2.321,4.552a49.948,49.948,0,0,1-1.517,5.98"/><path class="e" d="M-1008.529-8103.174s1.442-2.369,3.5,0"/><g class="f" transform="translate(-1010 -8100)"><rect class="g" width="6" height="6" rx="1"/><rect class="h" x="0.75" y="0.75" width="4.5" height="4.5" rx="0.25"/></g><path class="d" d="M-1007.712-8094v10.563s-.159,5.282,3.063,6.919,5.44.95,9.084,1.214" transform="translate(0.94 -0.254)"/></g></g></svg>