<svg xmlns="http://www.w3.org/2000/svg" xmlns:xlink="http://www.w3.org/1999/xlink" width="50" height="50" viewBox="0 0 50 50"><defs><style>.a,.e,.g{fill:#fff;}.a{stroke:#707070;}.b{clip-path:url(#a);}.c,.d,.f,.i{fill:none;}.c,.d,.e,.f,.g{stroke:#208ce1;stroke-width:1.5px;}.c,.f,.g{stroke-linecap:round;}.c,.g{stroke-linejoin:round;}.h{stroke:none;}</style><clipPath id="a"><rect class="a" width="50" height="50" transform="translate(-2861 -3943)"/></clipPath></defs><g class="b" transform="translate(2861 3943)"><g transform="translate(-2544.03 4303.264)"><path class="c" d="M-276.647-8217.406H-299s-7.14-4.283-8.408-4.686a2.173,2.173,0,0,0-1.459-.139,2.163,2.163,0,0,0-.875,3.116c1.125,1.5,8.93,5.813,8.93,5.813h14.72" transform="translate(2.881)"/><path class="c" d="M-304-8213.3h-7.363v-9.825h-2.99v14.415h27.222"/><path class="d" d="M-306.491-8208.379v2.32" transform="translate(0.491)"/><g class="e" transform="translate(-309 -8207)"><circle class="h" cx="3" cy="3" r="3"/><circle class="i" cx="3" cy="3" r="2.25"/></g><path class="f" d="M-279.109-8217.807V-8242.5"/><path class="c" d="M-276.034-8239.482h-9.746v3.19"/><g class="g" transform="translate(-289 -8237)"><path class="h" d="M0,0H7A0,0,0,0,1,7,0V6A3,3,0,0,1,4,9H3A3,3,0,0,1,0,6V0A0,0,0,0,1,0,0Z"/><path class="i" d="M1.5.75h4a.75.75,0,0,1,.75.75V6A2.25,2.25,0,0,1,4,8.25H3A2.25,2.25,0,0,1,.75,6V1.5A.75.75,0,0,1,1.5.75Z"/></g><path class="c" d="M-279.72-8214.621v4.73h-4.686v5.177h4.686v4.686h5.132v-4.686h5v-5.177h-5v-4.73Z"/></g></g></svg>