<svg xmlns="http://www.w3.org/2000/svg" xmlns:xlink="http://www.w3.org/1999/xlink" width="50" height="50" viewBox="0 0 50 50"><defs><style>.a{fill:#fff;stroke:#707070;}.b{clip-path:url(#a);}.c{clip-path:url(#c);}.d,.e{fill:none;stroke:#208ce1;stroke-linecap:round;stroke-width:1.5px;}.e{stroke-linejoin:round;}.f{fill:#cee1ff;}</style><clipPath id="a"><rect class="a" width="50" height="50" transform="translate(-2861 -3943)"/></clipPath><clipPath id="c"><rect class="a" width="50" height="50" transform="translate(-865 -7480)"/></clipPath></defs><g class="b" transform="translate(2861 3943)"><g class="b" transform="translate(0.5)"><g class="c" transform="translate(-1996 3537)"><g transform="translate(0.06 0.053)"><path class="d" d="M-845.533-7457.022s8.109-3.771,10.922,5.038c3.048-.469,10.784-1.172,9.11,7.3s-6.564,12.559-9.11,12.325-20.582-9.223-15.726-21.143"/><path class="e" d="M-845.9-7455l5.727,6.907s-4.789.8-7.871-4.655C-846.7-7454.054-845.9-7455-845.9-7455Z"/><path class="e" d="M-859.653-7467.456l9.452,11.377,2.094-1.755-9.226-11.49Z"/><path class="d" d="M-848.826-7462.239s3.263-.395,2.392-4.849,2.143-3.617,2.713-3.215a15.627,15.627,0,0,1,1.865,3.215"/><path class="d" d="M-840.17-7468.54s1.968-3.4-.975-5.943-.113-3.509,1.358-3.226,5.32,3.565,6.283,4.924"/><path class="d" d="M-842.112-7460.871c-.812-3.421,5.247-8.479,8.687-10s1.045-5.138,3.265-5.312,2.786,1.741,1.654,4.223c-1,1.35,2.638-.037,2.856,2.62"/><path class="d" d="M-839.434-7461.691c2.917-2.612,11.451-6.749,16.284-5.355s2.133,5.85-.3,5.629-8.094.295-7.432,7.138"/><path class="d" d="M-824.367-7458.953s5.831,2.962,1.085,11.453"/><path class="f" d="M27.967,61.022c.262.248,5.31,5,10.111,5.851a2.539,2.539,0,0,0,.435.039,2.4,2.4,0,0,0,2.021-1.094,13.069,13.069,0,0,0,1.08-2.12,17.792,17.792,0,0,0,1.238-4.907,15.476,15.476,0,0,1-1.074,1.846,6.521,6.521,0,0,1-8.02,2.166,21.809,21.809,0,0,1-9.524-8.228,8.054,8.054,0,0,0,.928,2.8,16.819,16.819,0,0,0,2.807,3.646" transform="translate(-872.275 -7502.075)"/></g></g></g></g></svg>