<svg xmlns="http://www.w3.org/2000/svg" xmlns:xlink="http://www.w3.org/1999/xlink" width="50" height="50" viewBox="0 0 50 50"><defs><style>.a{fill:#fff;stroke:#707070;}.b{clip-path:url(#a);}.c{clip-path:url(#b);}.d,.e,.f{fill:none;stroke:#208ce1;stroke-width:1.5px;}.e,.f{stroke-linecap:round;}.e{stroke-linejoin:round;}</style><clipPath id="a"><rect class="a" width="50" height="50" transform="translate(-2861 -3943)"/></clipPath><clipPath id="b"><rect class="a" width="50" height="50" transform="translate(-736 -7460)"/></clipPath></defs><g class="b" transform="translate(2861 3943)"><g class="c" transform="translate(-2125 3517)"><g transform="translate(30.374 0.203)"><path class="d" d="M-754.434-7429.5s-2.321-3.962-.283-9.679,2.207-7.98.623-9.509a10.909,10.909,0,0,0-1.378-1.275l2.813-3.148"/><path class="e" d="M-747.167-7444.5s-3.539-1.22-4.086-4.015a7.441,7.441,0,0,1,0-3.871c-.857-.7-1.872-1.687-1.872-1.687l1.375-1.672,1.766,1.469,1.125-1.016-.422-2.125,2.115-.781.495,1.859h1.891l.125-1.859,2.188.188-.109,2a7.7,7.7,0,0,1,1.766,1.938c1.016-.219,3.484-1.469,4.438-1.812s1.359-.469,1.609-.375a47.482,47.482,0,0,1,1.969,4.922s.719,1.313-.109,1.594-1.859.656-1.859.656-6.859,1.333-4.765,12.97"/><path class="f" d="M-752.1-7439.609s4.489.521,5.685-5.917a11.609,11.609,0,0,1,6.01-8.536"/><path class="f" d="M-736.918-7447.917s10.559,1.508,10.332,17.648"/><path class="f" d="M-751.776-7423.784s7.275,10.341,18.588,9.355"/><path class="e" d="M-729.753-7422.8h-4.978v5.657h4.978v4.827h5.506v-4.827h5.129v-5.657h-4.827v-4.751h-5.807Z"/><path class="e" d="M-763.374-7426.967h4.02l1.569-3.53,1.667,8.138,1.863-4.608h3.638l1.951-4.412,1.863,8.432,1.078-4.02h4.51"/></g></g></g></svg>