<svg xmlns="http://www.w3.org/2000/svg" xmlns:xlink="http://www.w3.org/1999/xlink" width="50" height="50" viewBox="0 0 50 50"><defs><style>.a,.e{fill:#fff;}.a{stroke:#707070;}.b{clip-path:url(#a);}.c,.d,.g{fill:none;}.c,.d,.e{stroke:#208ce1;stroke-width:1.5px;}.c{stroke-linecap:round;}.f{stroke:none;}</style><clipPath id="a"><rect class="a" width="50" height="50" transform="translate(-457 -7656)"/></clipPath></defs><g class="b" transform="translate(457 7656)"><g transform="translate(-1.428 0.979)"><path class="c" d="M-443.541-7620.674s-11.388-9.8-2.866-17.2c6.939-7.391,2.036-8.673,7.089-11.841s15.914-5.807,20.74.98,1.508,16.215,1.508,16.215"/><path class="c" d="M-442.184-7630.166s-1.569-6.667,3.53-9.707,8.726-.784,10.883-6.275"/><path class="c" d="M-425.81-7648.7s8.236,3.333,4.9,15"/><path class="c" d="M-440.419-7638.157s1.373,14.167,10.295,15.442"/><path class="d" d="M-449.572-7611.538s.247-7.438,7.615-6.51,6.441-7.51,6.441-7.51"/><g class="e" transform="translate(-431 -7635)"><circle class="f" cx="9" cy="9" r="9"/><circle class="g" cx="9" cy="9" r="8.25"/></g><path class="c" d="M-415.878-7619.725l3.972,3.749"/></g></g></svg>