<svg xmlns="http://www.w3.org/2000/svg" xmlns:xlink="http://www.w3.org/1999/xlink" width="50" height="50" viewBox="0 0 50 50"><defs><style>.a{fill:#fff;stroke:#707070;}.b{clip-path:url(#a);}.c,.d{fill:none;stroke:#208ce1;stroke-linecap:round;stroke-width:1.5px;}.d{stroke-linejoin:round;}.e{fill:#e2e8f3;}</style><clipPath id="a"><rect class="a" width="50" height="50" transform="translate(-990 -7932)"/></clipPath></defs><g class="b" transform="translate(990 7932)"><g transform="translate(1.175 -0.414)"><path class="c" d="M-958.622-7912.767s.147,5.254-3.127,7.9c-2.62,2.125-8.52,1.217-9.654-2.112-2.338-6.863-1.508-15.084-8.824-11.615s-8.768,26.733.689,32.709"/><path class="c" d="M-977.436-7885.1s3.945.29,5.743-6.266,11.777-5.105,13.866.638,6.44,5.859,8.412,3.133"/><path class="c" d="M-957.653-7915.617s3.191-7.426,7.948-1.8,6.208,20.6,2.089,27.441"/><path class="c" d="M-969.366-7883.143v-11.388"/><path class="d" d="M-969.366-7883.143s.038-9.479-.308-10.969a6.471,6.471,0,0,0-.972-2.7c-.48-.9-1.284-2.5-2.049-4.333-1.579-3.776-1.888-6.248.858-7.552s5.321,2.025,4.737,7.209-3.259,5.011-3.259,5.011" transform="translate(0 -21.605)"/><path class="d" d="M-971.544-7883.143s-.038-9.479.308-10.969a6.471,6.471,0,0,1,.972-2.7c.48-.9,1.284-2.5,2.049-4.333,1.579-3.776,1.888-6.248-.858-7.552s-5.321,2.025-4.737,7.209,3.259,5.011,3.259,5.011" transform="translate(8.894 -21.605)"/><path class="c" d="M-963.987-7892.012v4.75" transform="translate(2 -2.519)"/><path class="c" d="M-963.987-7892.012v3.244" transform="translate(2 5.625)"/><path class="c" d="M-979.18-7914.523s-4.314,4.51-3.235,13.432"/><path class="c" d="M-982.589-7914.523s3.094,2.6,2.9,8.581" transform="translate(31.161)"/></g><path class="e" d="M-973.141-7906.756a13,13,0,0,0,7.185,4.641c2.686.533,6.528-.515,9.907-5.177-.625,4.552-4.331,8.206-10.48,6.988S-973.141-7906.756-973.141-7906.756Z"/></g></svg>