<svg xmlns="http://www.w3.org/2000/svg" xmlns:xlink="http://www.w3.org/1999/xlink" width="50" height="50" viewBox="0 0 50 50"><defs><style>.a{fill:#fff;stroke:#707070;}.b{clip-path:url(#a);}.c{fill:#208ce1;stroke:#208ce1;stroke-width:0.3px;}.d{fill:#e2e8f3;}</style><clipPath id="a"><rect class="a" width="50" height="50" transform="translate(-840 -7378)"/></clipPath></defs><g class="b" transform="translate(840 7378)"><g transform="translate(-992.103 -7636.289)"><path class="c" d="M171.443,273.787a1.139,1.139,0,0,0-.205-.069c-1.36-.1-1.579-.338-1.578-1.69,0-.83-.006-1.661,0-2.492.009-.913.416-1.312,1.331-1.318.483,0,.967,0,1.524,0-.194-1.051-.374-2.038-.557-3.024-.271-1.454-.55-2.906-.813-4.361-.119-.66-.046-.741.6-.741q5.362,0,10.725,0c.621,0,.7.087.59.7-.41,2.235-.832,4.467-1.248,6.7-.039.21-.064.423-.109.725.546,0,1.042,0,1.538,0a1.143,1.143,0,0,1,1.3,1.295c.009.9,0,1.806,0,2.708,0,1.1-.332,1.438-1.448,1.491-.088,0-.175.022-.29.036-.188,2.446-.054,4.773,1.829,6.641a9.13,9.13,0,0,1,2.779,6.8c-.026,5.452-.007,10.905-.009,16.358a2.646,2.646,0,0,1-2.953,2.933q-7.366,0-14.733,0a2.643,2.643,0,0,1-2.925-2.908c0-5.489.014-10.978-.006-16.466a9.136,9.136,0,0,1,2.728-6.666,6.5,6.5,0,0,0,1.925-4.731C171.443,275.067,171.443,274.421,171.443,273.787Zm15.192,14.8a9.029,9.029,0,0,0-2.491-7.637,6.79,6.79,0,0,1-2-3.875,24.271,24.271,0,0,1-.114-2.646c-.008-.225,0-.452,0-.676h-9.852c0,.707.006,1.372,0,2.037a7.253,7.253,0,0,1-1.93,4.973,15.537,15.537,0,0,0-1.62,2.138,9.108,9.108,0,0,0-1.064,5.685Zm0,13.454V289.384H167.572v12.659ZM172.3,262.987c.318,1.718.61,3.33.928,4.937a.476.476,0,0,0,.356.281q3.518.025,7.035,0a.478.478,0,0,0,.354-.284c.205-.984.377-1.975.574-3.046-.694,0-1.338.024-1.978-.015-.18-.011-.475-.011-.521-.32s.34-.362.525-.378c.573-.05,1.154,0,1.729-.035a.581.581,0,0,0,.437-.314c.209-.965.373-1.94.559-2.952H171.9c.066.347.149.659.178.976s.17.428.487.416c.558-.021,1.118-.008,1.677,0,.268,0,.6-.042.6.356s-.313.38-.589.382C173.629,262.989,173,262.987,172.3,262.987Zm14.393,39.852H167.527c0,.338-.008.642,0,.945a1.9,1.9,0,0,0,1.993,1.964c.181,0,.361,0,.542,0q7.259,0,14.519,0a1.891,1.891,0,0,0,2.029-1.433A10.535,10.535,0,0,0,186.694,302.839ZM177.1,272.981c2,0,4.005-.009,6.008.006.506,0,.724-.178.71-.7-.023-.883-.02-1.768,0-2.652.01-.471-.145-.692-.652-.691q-6.062.017-12.124,0c-.505,0-.666.216-.656.688.018.865,0,1.732.006,2.6,0,.655.092.746.754.747Q174.123,272.983,177.1,272.981Z"/><path class="c" d="M186.039,366.133c1.32-2.408,3.5-3.46,6.03-4,.445-.1.633.054.667.505a11.565,11.565,0,0,1-.489,4.6,4.681,4.681,0,0,1-3.368,3.288,4.021,4.021,0,0,1-2.237-.159,1.153,1.153,0,0,0-.662-.006,3.5,3.5,0,0,1-4.377-1.593,8.217,8.217,0,0,1-.835-4.936c.036-.427.352-.408.646-.344a7.43,7.43,0,0,1,4.51,2.568A.623.623,0,0,0,186.039,366.133Zm.339,2.906a7.116,7.116,0,0,0,.767-.618c.724-.776,1.432-1.567,2.136-2.361.185-.209.373-.489.641-.213a.659.659,0,0,1-.049.632c-.817.933-1.669,1.835-2.516,2.741a5.493,5.493,0,0,1-.473.4,2.844,2.844,0,0,0,.27.121,3.427,3.427,0,0,0,3.8-1.517,6.536,6.536,0,0,0,.99-3.054c.074-.737.083-1.481.123-2.251C188.836,363.57,185.947,365.67,186.378,369.038Zm-.927.661c-.295-.228-.554-.394-.771-.6a14.046,14.046,0,0,1-1.592-1.612c-.394-.543-.109-.479.018-.559s.3-.024.52.1.231.273.36.4c.484.464.976.919,1.542,1.451a4.917,4.917,0,0,1,.085-.96,1.644,1.644,0,0,0-.521-1.709,6.632,6.632,0,0,0-2.928-1.766c-.212-.07-.435-.105-.717-.171,0,.373-.015.659,0,.944a7.029,7.029,0,0,0,.728,3.074A2.707,2.707,0,0,0,185.451,369.7Z" transform="translate(-9.641 -70.636)"/></g><path class="d" d="M-811.466-7354.157c2.261.994,4.214,5.684,4.625,5.2s-.82-4.7-2.812-6.107a2,2,0,0,1-1.535-.874,7.838,7.838,0,0,1-.844-2.609l.162-2.339C-812.616-7360.886-812.985-7354.825-811.466-7354.157Z"/></g></svg>