<svg xmlns="http://www.w3.org/2000/svg" xmlns:xlink="http://www.w3.org/1999/xlink" width="41.339" height="41.339" viewBox="0 0 41.339 41.339">
  <defs>
    <clipPath id="clip-path">
      <rect id="Rectangle_15701" data-name="Rectangle 15701" width="41.339" height="41.339" fill="#fff" stroke="#707070" stroke-width="1"/>
    </clipPath>
  </defs>
  <g id="Group_40974" data-name="Group 40974" transform="translate(-10.661 -10.5)">
    <g id="Mask_Group_274" data-name="Mask Group 274" transform="translate(10.661 10.5)" clip-path="url(#clip-path)">
      <g id="Group_41041" data-name="Group 41041" transform="translate(1.955 2.426)">
        <path id="Path_77115" data-name="Path 77115" d="M8.062,16.124c.024.874.231,2.979-.744,4.5-1.568,2.45-4.958,7.959-5.853,9.379a3.143,3.143,0,0,0-.5,1.4,2.141,2.141,0,0,0,1.877,2.38c2.83.761,3.3,2.411,3.089,3.57s-.947,3.072.969,3.995" transform="translate(-0.956 -12.15)" fill="none" stroke="#208ce1" stroke-linecap="round" stroke-linejoin="round" stroke-width="1.5"/>
        <path id="Path_77116" data-name="Path 77116" d="M26.769,107.137s-1.241,1.382-4.289,1.321a1.563,1.563,0,0,0-1.358,2.419l.02.032a5.62,5.62,0,0,1,.393.72,4.393,4.393,0,0,1,.231,2.943c-.314,1.232-.227,3.453,4.465,3.453H29" transform="translate(-15.646 -81.284)" fill="none" stroke="#208ce1" stroke-linecap="round" stroke-linejoin="round" stroke-width="1.5"/>
        <path id="Path_77117" data-name="Path 77117" d="M25.542.953s-5,6.17,11.407,6.51a13.576,13.576,0,0,1,4.339.675c2.026.752,3.972,2.309,2.48,5.515" transform="translate(-19.186 -0.953)" fill="none" stroke="#208ce1" stroke-linecap="round" stroke-linejoin="round" stroke-width="1.5"/>
        <path id="Path_77120" data-name="Path 77120" d="M17.081,73.119a.826.826,0,0,1,0-.579,6.479,6.479,0,0,0,.119-2.674,9.333,9.333,0,0,0,5.325,3.827H19.753c-1.754,0-2.5-.363-2.67-.577" transform="translate(-9.625 -38.8)" fill="#bccbe3" opacity="0.389"/>
        <path id="Path_77121" data-name="Path 77121" d="M109.953,34.5s.954-6.415,5.872-6.415c5.317,0,6.666,8.017,4.821,12.5-2.54,6.171-6.585,5.8-6.585,5.8a3.6,3.6,0,0,1-3.639-2.227" transform="translate(-83.412 -21.649)" fill="none" stroke="#208ce1" stroke-linecap="round" stroke-linejoin="round" stroke-width="1.5"/>
      </g>
    </g>
  </g>
</svg>
