<svg xmlns="http://www.w3.org/2000/svg" xmlns:xlink="http://www.w3.org/1999/xlink" width="105.812" height="94.812" viewBox="0 0 105.812 94.812">
  <defs>
    <clipPath id="clip-path">
      <rect width="105.812" height="94.812" fill="none"/>
    </clipPath>
  </defs>
  <g id="Repeat_Grid_32" data-name="Repeat Grid 32" opacity="0.15" clip-path="url(#clip-path)">
    <g id="Group_41035" data-name="Group 41035" transform="translate(-1223.704 -1767.609)">
      <path id="Path_77100" data-name="Path 77100" d="M1557.111,1847.609v6.812" transform="translate(-330 -80)" fill="none" stroke="#001675" stroke-width="1.5"/>
      <path id="Path_77101" data-name="Path 77101" d="M1557.111,1847.609v6.812" transform="translate(3078.126 213.905) rotate(90)" fill="none" stroke="#001675" stroke-width="1.5"/>
    </g>
    <g id="Group_41035-2" data-name="Group 41035" transform="translate(-1204.704 -1767.609)">
      <path id="Path_77100-2" data-name="Path 77100" d="M1557.111,1847.609v6.812" transform="translate(-330 -80)" fill="none" stroke="#001675" stroke-width="1.5"/>
      <path id="Path_77101-2" data-name="Path 77101" d="M1557.111,1847.609v6.812" transform="translate(3078.126 213.905) rotate(90)" fill="none" stroke="#001675" stroke-width="1.5"/>
    </g>
    <g id="Group_41035-3" data-name="Group 41035" transform="translate(-1185.704 -1767.609)">
      <path id="Path_77100-3" data-name="Path 77100" d="M1557.111,1847.609v6.812" transform="translate(-330 -80)" fill="none" stroke="#001675" stroke-width="1.5"/>
      <path id="Path_77101-3" data-name="Path 77101" d="M1557.111,1847.609v6.812" transform="translate(3078.126 213.905) rotate(90)" fill="none" stroke="#001675" stroke-width="1.5"/>
    </g>
    <g id="Group_41035-4" data-name="Group 41035" transform="translate(-1166.704 -1767.609)">
      <path id="Path_77100-4" data-name="Path 77100" d="M1557.111,1847.609v6.812" transform="translate(-330 -80)" fill="none" stroke="#001675" stroke-width="1.5"/>
      <path id="Path_77101-4" data-name="Path 77101" d="M1557.111,1847.609v6.812" transform="translate(3078.126 213.905) rotate(90)" fill="none" stroke="#001675" stroke-width="1.5"/>
    </g>
    <g id="Group_41035-5" data-name="Group 41035" transform="translate(-1147.704 -1767.609)">
      <path id="Path_77100-5" data-name="Path 77100" d="M1557.111,1847.609v6.812" transform="translate(-330 -80)" fill="none" stroke="#001675" stroke-width="1.5"/>
      <path id="Path_77101-5" data-name="Path 77101" d="M1557.111,1847.609v6.812" transform="translate(3078.126 213.905) rotate(90)" fill="none" stroke="#001675" stroke-width="1.5"/>
    </g>
    <g id="Group_41035-6" data-name="Group 41035" transform="translate(-1128.704 -1767.609)">
      <path id="Path_77100-6" data-name="Path 77100" d="M1557.111,1847.609v6.812" transform="translate(-330 -80)" fill="none" stroke="#001675" stroke-width="1.5"/>
      <path id="Path_77101-6" data-name="Path 77101" d="M1557.111,1847.609v6.812" transform="translate(3078.126 213.905) rotate(90)" fill="none" stroke="#001675" stroke-width="1.5"/>
    </g>
    <g id="Group_41035-7" data-name="Group 41035" transform="translate(-1223.704 -1746.609)">
      <path id="Path_77100-7" data-name="Path 77100" d="M1557.111,1847.609v6.812" transform="translate(-330 -80)" fill="none" stroke="#001675" stroke-width="1.5"/>
      <path id="Path_77101-7" data-name="Path 77101" d="M1557.111,1847.609v6.812" transform="translate(3078.126 213.905) rotate(90)" fill="none" stroke="#001675" stroke-width="1.5"/>
    </g>
    <g id="Group_41035-8" data-name="Group 41035" transform="translate(-1204.704 -1746.609)">
      <path id="Path_77100-8" data-name="Path 77100" d="M1557.111,1847.609v6.812" transform="translate(-330 -80)" fill="none" stroke="#001675" stroke-width="1.5"/>
      <path id="Path_77101-8" data-name="Path 77101" d="M1557.111,1847.609v6.812" transform="translate(3078.126 213.905) rotate(90)" fill="none" stroke="#001675" stroke-width="1.5"/>
    </g>
    <g id="Group_41035-9" data-name="Group 41035" transform="translate(-1185.704 -1746.609)">
      <path id="Path_77100-9" data-name="Path 77100" d="M1557.111,1847.609v6.812" transform="translate(-330 -80)" fill="none" stroke="#001675" stroke-width="1.5"/>
      <path id="Path_77101-9" data-name="Path 77101" d="M1557.111,1847.609v6.812" transform="translate(3078.126 213.905) rotate(90)" fill="none" stroke="#001675" stroke-width="1.5"/>
    </g>
    <g id="Group_41035-10" data-name="Group 41035" transform="translate(-1166.704 -1746.609)">
      <path id="Path_77100-10" data-name="Path 77100" d="M1557.111,1847.609v6.812" transform="translate(-330 -80)" fill="none" stroke="#001675" stroke-width="1.5"/>
      <path id="Path_77101-10" data-name="Path 77101" d="M1557.111,1847.609v6.812" transform="translate(3078.126 213.905) rotate(90)" fill="none" stroke="#001675" stroke-width="1.5"/>
    </g>
    <g id="Group_41035-11" data-name="Group 41035" transform="translate(-1147.704 -1746.609)">
      <path id="Path_77100-11" data-name="Path 77100" d="M1557.111,1847.609v6.812" transform="translate(-330 -80)" fill="none" stroke="#001675" stroke-width="1.5"/>
      <path id="Path_77101-11" data-name="Path 77101" d="M1557.111,1847.609v6.812" transform="translate(3078.126 213.905) rotate(90)" fill="none" stroke="#001675" stroke-width="1.5"/>
    </g>
    <g id="Group_41035-12" data-name="Group 41035" transform="translate(-1128.704 -1746.609)">
      <path id="Path_77100-12" data-name="Path 77100" d="M1557.111,1847.609v6.812" transform="translate(-330 -80)" fill="none" stroke="#001675" stroke-width="1.5"/>
      <path id="Path_77101-12" data-name="Path 77101" d="M1557.111,1847.609v6.812" transform="translate(3078.126 213.905) rotate(90)" fill="none" stroke="#001675" stroke-width="1.5"/>
    </g>
    <g id="Group_41035-13" data-name="Group 41035" transform="translate(-1223.704 -1725.609)">
      <path id="Path_77100-13" data-name="Path 77100" d="M1557.111,1847.609v6.812" transform="translate(-330 -80)" fill="none" stroke="#001675" stroke-width="1.5"/>
      <path id="Path_77101-13" data-name="Path 77101" d="M1557.111,1847.609v6.812" transform="translate(3078.126 213.905) rotate(90)" fill="none" stroke="#001675" stroke-width="1.5"/>
    </g>
    <g id="Group_41035-14" data-name="Group 41035" transform="translate(-1204.704 -1725.609)">
      <path id="Path_77100-14" data-name="Path 77100" d="M1557.111,1847.609v6.812" transform="translate(-330 -80)" fill="none" stroke="#001675" stroke-width="1.5"/>
      <path id="Path_77101-14" data-name="Path 77101" d="M1557.111,1847.609v6.812" transform="translate(3078.126 213.905) rotate(90)" fill="none" stroke="#001675" stroke-width="1.5"/>
    </g>
    <g id="Group_41035-15" data-name="Group 41035" transform="translate(-1185.704 -1725.609)">
      <path id="Path_77100-15" data-name="Path 77100" d="M1557.111,1847.609v6.812" transform="translate(-330 -80)" fill="none" stroke="#001675" stroke-width="1.5"/>
      <path id="Path_77101-15" data-name="Path 77101" d="M1557.111,1847.609v6.812" transform="translate(3078.126 213.905) rotate(90)" fill="none" stroke="#001675" stroke-width="1.5"/>
    </g>
    <g id="Group_41035-16" data-name="Group 41035" transform="translate(-1166.704 -1725.609)">
      <path id="Path_77100-16" data-name="Path 77100" d="M1557.111,1847.609v6.812" transform="translate(-330 -80)" fill="none" stroke="#001675" stroke-width="1.5"/>
      <path id="Path_77101-16" data-name="Path 77101" d="M1557.111,1847.609v6.812" transform="translate(3078.126 213.905) rotate(90)" fill="none" stroke="#001675" stroke-width="1.5"/>
    </g>
    <g id="Group_41035-17" data-name="Group 41035" transform="translate(-1147.704 -1725.609)">
      <path id="Path_77100-17" data-name="Path 77100" d="M1557.111,1847.609v6.812" transform="translate(-330 -80)" fill="none" stroke="#001675" stroke-width="1.5"/>
      <path id="Path_77101-17" data-name="Path 77101" d="M1557.111,1847.609v6.812" transform="translate(3078.126 213.905) rotate(90)" fill="none" stroke="#001675" stroke-width="1.5"/>
    </g>
    <g id="Group_41035-18" data-name="Group 41035" transform="translate(-1128.704 -1725.609)">
      <path id="Path_77100-18" data-name="Path 77100" d="M1557.111,1847.609v6.812" transform="translate(-330 -80)" fill="none" stroke="#001675" stroke-width="1.5"/>
      <path id="Path_77101-18" data-name="Path 77101" d="M1557.111,1847.609v6.812" transform="translate(3078.126 213.905) rotate(90)" fill="none" stroke="#001675" stroke-width="1.5"/>
    </g>
    <g id="Group_41035-19" data-name="Group 41035" transform="translate(-1223.704 -1704.609)">
      <path id="Path_77100-19" data-name="Path 77100" d="M1557.111,1847.609v6.812" transform="translate(-330 -80)" fill="none" stroke="#001675" stroke-width="1.5"/>
      <path id="Path_77101-19" data-name="Path 77101" d="M1557.111,1847.609v6.812" transform="translate(3078.126 213.905) rotate(90)" fill="none" stroke="#001675" stroke-width="1.5"/>
    </g>
    <g id="Group_41035-20" data-name="Group 41035" transform="translate(-1204.704 -1704.609)">
      <path id="Path_77100-20" data-name="Path 77100" d="M1557.111,1847.609v6.812" transform="translate(-330 -80)" fill="none" stroke="#001675" stroke-width="1.5"/>
      <path id="Path_77101-20" data-name="Path 77101" d="M1557.111,1847.609v6.812" transform="translate(3078.126 213.905) rotate(90)" fill="none" stroke="#001675" stroke-width="1.5"/>
    </g>
    <g id="Group_41035-21" data-name="Group 41035" transform="translate(-1185.704 -1704.609)">
      <path id="Path_77100-21" data-name="Path 77100" d="M1557.111,1847.609v6.812" transform="translate(-330 -80)" fill="none" stroke="#001675" stroke-width="1.5"/>
      <path id="Path_77101-21" data-name="Path 77101" d="M1557.111,1847.609v6.812" transform="translate(3078.126 213.905) rotate(90)" fill="none" stroke="#001675" stroke-width="1.5"/>
    </g>
    <g id="Group_41035-22" data-name="Group 41035" transform="translate(-1166.704 -1704.609)">
      <path id="Path_77100-22" data-name="Path 77100" d="M1557.111,1847.609v6.812" transform="translate(-330 -80)" fill="none" stroke="#001675" stroke-width="1.5"/>
      <path id="Path_77101-22" data-name="Path 77101" d="M1557.111,1847.609v6.812" transform="translate(3078.126 213.905) rotate(90)" fill="none" stroke="#001675" stroke-width="1.5"/>
    </g>
    <g id="Group_41035-23" data-name="Group 41035" transform="translate(-1147.704 -1704.609)">
      <path id="Path_77100-23" data-name="Path 77100" d="M1557.111,1847.609v6.812" transform="translate(-330 -80)" fill="none" stroke="#001675" stroke-width="1.5"/>
      <path id="Path_77101-23" data-name="Path 77101" d="M1557.111,1847.609v6.812" transform="translate(3078.126 213.905) rotate(90)" fill="none" stroke="#001675" stroke-width="1.5"/>
    </g>
    <g id="Group_41035-24" data-name="Group 41035" transform="translate(-1128.704 -1704.609)">
      <path id="Path_77100-24" data-name="Path 77100" d="M1557.111,1847.609v6.812" transform="translate(-330 -80)" fill="none" stroke="#001675" stroke-width="1.5"/>
      <path id="Path_77101-24" data-name="Path 77101" d="M1557.111,1847.609v6.812" transform="translate(3078.126 213.905) rotate(90)" fill="none" stroke="#001675" stroke-width="1.5"/>
    </g>
    <g id="Group_41035-25" data-name="Group 41035" transform="translate(-1223.704 -1683.609)">
      <path id="Path_77100-25" data-name="Path 77100" d="M1557.111,1847.609v6.812" transform="translate(-330 -80)" fill="none" stroke="#001675" stroke-width="1.5"/>
      <path id="Path_77101-25" data-name="Path 77101" d="M1557.111,1847.609v6.812" transform="translate(3078.126 213.905) rotate(90)" fill="none" stroke="#001675" stroke-width="1.5"/>
    </g>
    <g id="Group_41035-26" data-name="Group 41035" transform="translate(-1204.704 -1683.609)">
      <path id="Path_77100-26" data-name="Path 77100" d="M1557.111,1847.609v6.812" transform="translate(-330 -80)" fill="none" stroke="#001675" stroke-width="1.5"/>
      <path id="Path_77101-26" data-name="Path 77101" d="M1557.111,1847.609v6.812" transform="translate(3078.126 213.905) rotate(90)" fill="none" stroke="#001675" stroke-width="1.5"/>
    </g>
    <g id="Group_41035-27" data-name="Group 41035" transform="translate(-1185.704 -1683.609)">
      <path id="Path_77100-27" data-name="Path 77100" d="M1557.111,1847.609v6.812" transform="translate(-330 -80)" fill="none" stroke="#001675" stroke-width="1.5"/>
      <path id="Path_77101-27" data-name="Path 77101" d="M1557.111,1847.609v6.812" transform="translate(3078.126 213.905) rotate(90)" fill="none" stroke="#001675" stroke-width="1.5"/>
    </g>
    <g id="Group_41035-28" data-name="Group 41035" transform="translate(-1166.704 -1683.609)">
      <path id="Path_77100-28" data-name="Path 77100" d="M1557.111,1847.609v6.812" transform="translate(-330 -80)" fill="none" stroke="#001675" stroke-width="1.5"/>
      <path id="Path_77101-28" data-name="Path 77101" d="M1557.111,1847.609v6.812" transform="translate(3078.126 213.905) rotate(90)" fill="none" stroke="#001675" stroke-width="1.5"/>
    </g>
    <g id="Group_41035-29" data-name="Group 41035" transform="translate(-1147.704 -1683.609)">
      <path id="Path_77100-29" data-name="Path 77100" d="M1557.111,1847.609v6.812" transform="translate(-330 -80)" fill="none" stroke="#001675" stroke-width="1.5"/>
      <path id="Path_77101-29" data-name="Path 77101" d="M1557.111,1847.609v6.812" transform="translate(3078.126 213.905) rotate(90)" fill="none" stroke="#001675" stroke-width="1.5"/>
    </g>
    <g id="Group_41035-30" data-name="Group 41035" transform="translate(-1128.704 -1683.609)">
      <path id="Path_77100-30" data-name="Path 77100" d="M1557.111,1847.609v6.812" transform="translate(-330 -80)" fill="none" stroke="#001675" stroke-width="1.5"/>
      <path id="Path_77101-30" data-name="Path 77101" d="M1557.111,1847.609v6.812" transform="translate(3078.126 213.905) rotate(90)" fill="none" stroke="#001675" stroke-width="1.5"/>
    </g>
  </g>
</svg>
