<svg xmlns="http://www.w3.org/2000/svg" width="40.583" height="40.583" viewBox="0 0 40.583 40.583">
  <g id="Group_41187" data-name="Group 41187" transform="translate(-1030 -372.271)">
    <circle id="Ellipse_359" data-name="Ellipse 359" cx="20.292" cy="20.292" r="20.292" transform="translate(1030 372.271)" fill="#ff7171"/>
    <g id="noun_Heart_65178" transform="translate(1036.831 375.539)">
      <path id="Path_77282" data-name="Path 77282" d="M18.488,43.957l-1.9,3.43a.988.988,0,0,1-.865.509.974.974,0,0,1-.141-.01.988.988,0,0,1-.825-.761l-1.441-6.387L11.968,43.3a.988.988,0,0,1-.875.529H7.685a19.111,19.111,0,0,0,10.221,8.248,19.128,19.128,0,0,0,10.146-8.124Z" transform="translate(-4.444 -23.881)" fill="#fff"/>
      <path id="Path_77283" data-name="Path 77283" d="M6.051,17.973l2.318-4.417a.99.99,0,0,1,1.841.243l1.461,6.476.926-1.669a.988.988,0,0,1,.865-.509H24.583c1.357-3.412,1.025-6.815-1.744-8.882-5.135-3.833-9.376,1.61-9.376,1.61S9.221,5.382,4.086,9.215C1.348,11.257.99,14.6,2.29,17.973Z" transform="translate(0 0)" fill="#fff"/>
    </g>
  </g>
</svg>
