<svg xmlns="http://www.w3.org/2000/svg" xmlns:xlink="http://www.w3.org/1999/xlink" width="40.111" height="40.111" viewBox="0 0 40.111 40.111">
  <defs>
    <clipPath id="clip-path">
      <rect id="Rectangle_15699" data-name="Rectangle 15699" width="40.111" height="40.111" fill="#fff" stroke="#707070" stroke-width="0.1"/>
    </clipPath>
  </defs>
  <g id="Group_40974" data-name="Group 40974" transform="translate(-9.661 -10.5)">
    <g id="Mask_Group_273" data-name="Mask Group 273" transform="translate(9.661 10.5)" clip-path="url(#clip-path)">
      <g id="Group_41039" data-name="Group 41039" transform="translate(1.144 1.835)">
        <path id="Path_77102" data-name="Path 77102" d="M-2763-4037.4s-.088,4.954-.1,7.791-.278,5.617,4.229,7.842,1.25,10.578-4.481,7.313-9.613,2.053-9.838,5.15,0,7.939,0,7.939" transform="translate(2773.286 4037.399)" fill="none" stroke="#208ce1" stroke-linecap="round" stroke-width="1.5"/>
        <path id="Path_77103" data-name="Path 77103" d="M-2757.517-4037.4v10.348s6.584-3.638,11.607,2.036c2.427,2.74,3.642,9.039,1.386,13.643-2.223,4.542-6.758,6.765-12.074,6.917s-8.123-5.847-8.907-6.261a1.286,1.286,0,0,0-1.991.689,82.037,82.037,0,0,0-.164,9.07" transform="translate(2771.867 4037.399)" fill="none" stroke="#208ce1" stroke-linecap="round" stroke-width="1.5"/>
        <g id="Path_77106" data-name="Path 77106" transform="translate(20.371 12.243)" fill="#f3faff" stroke-linecap="round">
          <path d="M 7.092501163482666 13.43500137329102 C 3.595231056213379 13.43500137329102 0.7500011920928955 10.58977127075195 0.7500011920928955 7.092501163482666 C 0.7500011920928955 3.595231056213379 3.595231056213379 0.7500011920928955 7.092501163482666 0.7500011920928955 C 10.58977127075195 0.7500011920928955 13.43500137329102 3.595231056213379 13.43500137329102 7.092501163482666 C 13.43500137329102 10.58977127075195 10.58977127075195 13.43500137329102 7.092501163482666 13.43500137329102 Z" stroke="none"/>
          <path d="M 7.092501163482666 1.500000953674316 C 4.008790969848633 1.500000953674316 1.500000953674316 4.008790969848633 1.500000953674316 7.092501163482666 C 1.500000953674316 10.1762113571167 4.008790969848633 12.68500137329102 7.092501163482666 12.68500137329102 C 10.1762113571167 12.68500137329102 12.68500137329102 10.1762113571167 12.68500137329102 7.092501163482666 C 12.68500137329102 4.008790969848633 10.1762113571167 1.500000953674316 7.092501163482666 1.500000953674316 M 7.092501163482666 9.5367431640625e-07 C 11.00958061218262 9.5367431640625e-07 14.18500137329102 3.175420761108398 14.18500137329102 7.092501163482666 C 14.18500137329102 11.00958061218262 11.00958061218262 14.18500137329102 7.092501163482666 14.18500137329102 C 3.175420761108398 14.18500137329102 9.5367431640625e-07 11.00958061218262 9.5367431640625e-07 7.092501163482666 C 9.5367431640625e-07 3.175420761108398 3.175420761108398 9.5367431640625e-07 7.092501163482666 9.5367431640625e-07 Z" stroke="none" fill="#208ce1"/>
        </g>
        <path id="Path_77104" data-name="Path 77104" d="M-2729.876-4004.979l5.414,5.5" transform="translate(2762.285 4029.183)" fill="none" stroke="#208ce1" stroke-linecap="round" stroke-width="1.5"/>
      </g>
      <path id="Path_77105" data-name="Path 77105" d="M-2735.578-4018.07a5.594,5.594,0,0,1,.976,4.331c-.457,2.617-2.622,4.538-4.171,4.135,2.188,1.3,5.983-1.716,5.665-4.867S-2735.578-4018.07-2735.578-4018.07Z" transform="translate(2766.564 4035.432)" fill="#e2e8f3"/>
    </g>
  </g>
</svg>
