<svg xmlns="http://www.w3.org/2000/svg" xmlns:xlink="http://www.w3.org/1999/xlink" width="74" height="71" viewBox="0 0 74 71"><defs><style>.a{fill:none;}.b{clip-path:url(#a);}.c{fill:rgba(245,250,255,0.53);}</style><clipPath id="a"><rect class="a" width="74" height="71"/></clipPath></defs><g class="b"><g transform="translate(-324 -163)"><circle class="c" cx="2" cy="2" r="2" transform="translate(324 163)"/><circle class="c" cx="2" cy="2" r="2" transform="translate(324 172)"/><circle class="c" cx="2" cy="2" r="2" transform="translate(335 163)"/><circle class="c" cx="2" cy="2" r="2" transform="translate(335 172)"/><circle class="c" cx="2" cy="2" r="2" transform="translate(346 163)"/><circle class="c" cx="2" cy="2" r="2" transform="translate(346 172)"/><circle class="c" cx="2" cy="2" r="2" transform="translate(357 163)"/><circle class="c" cx="2" cy="2" r="2" transform="translate(357 172)"/><circle class="c" cx="2" cy="2" r="2" transform="translate(368 163)"/><circle class="c" cx="2" cy="2" r="2" transform="translate(368 172)"/></g><g transform="translate(-269 -163)"><circle class="c" cx="2" cy="2" r="2" transform="translate(324 163)"/><circle class="c" cx="2" cy="2" r="2" transform="translate(324 172)"/><circle class="c" cx="2" cy="2" r="2" transform="translate(335 163)"/><circle class="c" cx="2" cy="2" r="2" transform="translate(335 172)"/><circle class="c" cx="2" cy="2" r="2" transform="translate(346 163)"/><circle class="c" cx="2" cy="2" r="2" transform="translate(346 172)"/><circle class="c" cx="2" cy="2" r="2" transform="translate(357 163)"/><circle class="c" cx="2" cy="2" r="2" transform="translate(357 172)"/><circle class="c" cx="2" cy="2" r="2" transform="translate(368 163)"/><circle class="c" cx="2" cy="2" r="2" transform="translate(368 172)"/></g><g transform="translate(-324 -144)"><circle class="c" cx="2" cy="2" r="2" transform="translate(324 163)"/><circle class="c" cx="2" cy="2" r="2" transform="translate(324 172)"/><circle class="c" cx="2" cy="2" r="2" transform="translate(335 163)"/><circle class="c" cx="2" cy="2" r="2" transform="translate(335 172)"/><circle class="c" cx="2" cy="2" r="2" transform="translate(346 163)"/><circle class="c" cx="2" cy="2" r="2" transform="translate(346 172)"/><circle class="c" cx="2" cy="2" r="2" transform="translate(357 163)"/><circle class="c" cx="2" cy="2" r="2" transform="translate(357 172)"/><circle class="c" cx="2" cy="2" r="2" transform="translate(368 163)"/><circle class="c" cx="2" cy="2" r="2" transform="translate(368 172)"/></g><g transform="translate(-269 -144)"><circle class="c" cx="2" cy="2" r="2" transform="translate(324 163)"/><circle class="c" cx="2" cy="2" r="2" transform="translate(324 172)"/><circle class="c" cx="2" cy="2" r="2" transform="translate(335 163)"/><circle class="c" cx="2" cy="2" r="2" transform="translate(335 172)"/><circle class="c" cx="2" cy="2" r="2" transform="translate(346 163)"/><circle class="c" cx="2" cy="2" r="2" transform="translate(346 172)"/><circle class="c" cx="2" cy="2" r="2" transform="translate(357 163)"/><circle class="c" cx="2" cy="2" r="2" transform="translate(357 172)"/><circle class="c" cx="2" cy="2" r="2" transform="translate(368 163)"/><circle class="c" cx="2" cy="2" r="2" transform="translate(368 172)"/></g><g transform="translate(-324 -125)"><circle class="c" cx="2" cy="2" r="2" transform="translate(324 163)"/><circle class="c" cx="2" cy="2" r="2" transform="translate(324 172)"/><circle class="c" cx="2" cy="2" r="2" transform="translate(335 163)"/><circle class="c" cx="2" cy="2" r="2" transform="translate(335 172)"/><circle class="c" cx="2" cy="2" r="2" transform="translate(346 163)"/><circle class="c" cx="2" cy="2" r="2" transform="translate(346 172)"/><circle class="c" cx="2" cy="2" r="2" transform="translate(357 163)"/><circle class="c" cx="2" cy="2" r="2" transform="translate(357 172)"/><circle class="c" cx="2" cy="2" r="2" transform="translate(368 163)"/><circle class="c" cx="2" cy="2" r="2" transform="translate(368 172)"/></g><g transform="translate(-269 -125)"><circle class="c" cx="2" cy="2" r="2" transform="translate(324 163)"/><circle class="c" cx="2" cy="2" r="2" transform="translate(324 172)"/><circle class="c" cx="2" cy="2" r="2" transform="translate(335 163)"/><circle class="c" cx="2" cy="2" r="2" transform="translate(335 172)"/><circle class="c" cx="2" cy="2" r="2" transform="translate(346 163)"/><circle class="c" cx="2" cy="2" r="2" transform="translate(346 172)"/><circle class="c" cx="2" cy="2" r="2" transform="translate(357 163)"/><circle class="c" cx="2" cy="2" r="2" transform="translate(357 172)"/><circle class="c" cx="2" cy="2" r="2" transform="translate(368 163)"/><circle class="c" cx="2" cy="2" r="2" transform="translate(368 172)"/></g><g transform="translate(-324 -106)"><circle class="c" cx="2" cy="2" r="2" transform="translate(324 163)"/><circle class="c" cx="2" cy="2" r="2" transform="translate(324 172)"/><circle class="c" cx="2" cy="2" r="2" transform="translate(335 163)"/><circle class="c" cx="2" cy="2" r="2" transform="translate(335 172)"/><circle class="c" cx="2" cy="2" r="2" transform="translate(346 163)"/><circle class="c" cx="2" cy="2" r="2" transform="translate(346 172)"/><circle class="c" cx="2" cy="2" r="2" transform="translate(357 163)"/><circle class="c" cx="2" cy="2" r="2" transform="translate(357 172)"/><circle class="c" cx="2" cy="2" r="2" transform="translate(368 163)"/><circle class="c" cx="2" cy="2" r="2" transform="translate(368 172)"/></g><g transform="translate(-269 -106)"><circle class="c" cx="2" cy="2" r="2" transform="translate(324 163)"/><circle class="c" cx="2" cy="2" r="2" transform="translate(324 172)"/><circle class="c" cx="2" cy="2" r="2" transform="translate(335 163)"/><circle class="c" cx="2" cy="2" r="2" transform="translate(335 172)"/><circle class="c" cx="2" cy="2" r="2" transform="translate(346 163)"/><circle class="c" cx="2" cy="2" r="2" transform="translate(346 172)"/><circle class="c" cx="2" cy="2" r="2" transform="translate(357 163)"/><circle class="c" cx="2" cy="2" r="2" transform="translate(357 172)"/><circle class="c" cx="2" cy="2" r="2" transform="translate(368 163)"/><circle class="c" cx="2" cy="2" r="2" transform="translate(368 172)"/></g></g></svg>