<svg xmlns="http://www.w3.org/2000/svg" width="18.485" height="18.31" viewBox="0 0 18.485 18.31"><defs><style>.a{fill:#208ce1;stroke:#208ce1;stroke-width:0.3px;}</style></defs><g transform="translate(20629.151 9485.15)"><path class="a" d="M16.586,7.941a7.017,7.017,0,0,0-14.028,0C1.231,8.228.484,9.422.484,11.313c0,2.186,1,3.44,2.738,3.44a.7.7,0,0,0,.7-.7l.035-5.9a5.617,5.617,0,1,1,11.234.008l.07,6.241c0,1.539-1.485,2.361-4.413,2.449a1.5,1.5,0,1,0,.088,1.4c4.463-.153,5.611-1.953,5.72-3.585,1.286-.314,2.011-1.5,2.011-3.354C18.669,9.419,17.918,8.226,16.586,7.941Z" transform="translate(-20629.484 -9486.133)"/></g></svg>