<svg xmlns="http://www.w3.org/2000/svg" width="21.922" height="23.977" viewBox="0 0 21.922 23.977">
  <path id="Path_31968" data-name="Path 31968" d="M350.011,239.324a.324.324,0,0,1-.011.085,3.127,3.127,0,0,1-2.286,2,16.3,16.3,0,0,1-3.374.762,40.848,40.848,0,0,1-6.833.289,23.829,23.829,0,0,1-6.749-.946,7.518,7.518,0,0,1-1.642-.762,2.066,2.066,0,0,1-.949-2.377,8.031,8.031,0,0,1,1.558-3.233,3.833,3.833,0,0,1,2.4-1.414.705.705,0,0,0,.53-.362,4.072,4.072,0,0,0,.5-1.76,22.9,22.9,0,0,0-.243-5.028,8.4,8.4,0,0,1,.052-1.743,9.506,9.506,0,0,1,.8-3.2,4.936,4.936,0,0,1,3.544-2.985,10.623,10.623,0,0,1,1.711-.125,6.081,6.081,0,0,1,2.341.264,5.225,5.225,0,0,1,3.144,3.179,11.866,11.866,0,0,1,.709,3.355,14.034,14.034,0,0,1-.181,2.757,13.734,13.734,0,0,0,.078,4.352,4.056,4.056,0,0,0,.219.661.98.98,0,0,0,.808.672,3.847,3.847,0,0,1,2.516,1.7,8.908,8.908,0,0,1,1.308,2.894.329.329,0,0,0,.018.048.315.315,0,0,1,.031.134Zm-15.281-10.9a.315.315,0,0,1,.261.2l.017.045a7,7,0,0,0,2.069,3.039,2.956,2.956,0,0,0,3.9.092,6.417,6.417,0,0,0,1.939-2.531c.1-.217.188-.439.276-.659a.3.3,0,0,1,.242-.191c.164-.02.249-.094.357-.3a2.335,2.335,0,0,0,.268-1.614v0a.305.305,0,0,0-.509-.142l-.1.1a.31.31,0,0,1-.356.051c-1.969-1.015-3.92-2.023-5.877-3.019a1.176,1.176,0,0,0-.57-.113,1.406,1.406,0,0,0-1.058.493,4.931,4.931,0,0,0-.666,1.069,6.046,6.046,0,0,0-.294.985.291.291,0,0,1-.249.21c-.134.02-.213.125-.258.345a2.369,2.369,0,0,0,.294,1.682A.451.451,0,0,0,334.73,228.423Z" transform="translate(-328.089 -218.506)" fill="#5d7082"/>
</svg>
