<svg xmlns="http://www.w3.org/2000/svg" xmlns:xlink="http://www.w3.org/1999/xlink" width="37.931" height="40.517" viewBox="0 0 37.931 40.517"><defs><style>.a{fill:#fff;}.b{fill:#f1f1f1;}.c{fill:#cfcfcf;}.d{fill:#f25845;}.e{filter:url(#a);}</style><filter id="a" x="11.409" y="0" width="26.521" height="27.024" filterUnits="userSpaceOnUse"><feOffset dy="3" input="SourceAlpha"/><feGaussianBlur stdDeviation="3" result="b"/><feFlood flood-opacity="0.02"/><feComposite operator="in" in2="b"/><feComposite in="SourceGraphic"/></filter></defs><g transform="translate(0 6)"><g transform="translate(3.137)"><path class="a" d="M3.137,0H17.5c3.275,3.613,3.5,3.687,8.382,8.755V31.367A3.137,3.137,0,0,1,22.741,34.5H3.137A3.137,3.137,0,0,1,0,31.367V3.137A3.137,3.137,0,0,1,3.137,0Z" transform="translate(0 0.013)"/><path class="b" d="M-4127.61-3334.075l6.359,7.247v-7.247Z" transform="translate(4147.129 3342.656)"/><g class="e" transform="matrix(1, 0, 0, 1, -3.14, -6)"><path class="c" d="M-4130.118-3345.017s-1.353,8.911,3.482,9.024a31.754,31.754,0,0,0,4.865-.34Z" transform="translate(4150.7 3351.02)"/></g></g><rect class="d" width="25.094" height="12.547" rx="2" transform="translate(0 17.265)"/><path class="a" d="M1.973-4.724v2.071H.762V-8.531H3.055a2.653,2.653,0,0,1,1.165.242,1.785,1.785,0,0,1,.773.688,1.919,1.919,0,0,1,.27,1.015,1.688,1.688,0,0,1-.591,1.363,2.463,2.463,0,0,1-1.637.5Zm0-.981H3.055a1.064,1.064,0,0,0,.733-.226.822.822,0,0,0,.252-.646.97.97,0,0,0-.254-.7.95.95,0,0,0-.7-.275H1.973ZM6.095-2.653V-8.531H7.9a2.747,2.747,0,0,1,1.387.349,2.435,2.435,0,0,1,.955.993,3.063,3.063,0,0,1,.343,1.463v.27A3.072,3.072,0,0,1,10.251-4a2.414,2.414,0,0,1-.951.989,2.767,2.767,0,0,1-1.385.355Zm1.211-4.9v3.924h.585A1.315,1.315,0,0,0,8.977-4.09a2.1,2.1,0,0,0,.384-1.328v-.311A2.131,2.131,0,0,0,8.99-7.088,1.311,1.311,0,0,0,7.9-7.55ZM15-5.055H12.68v2.4H11.468V-8.531H15.3v.981H12.68v1.518H15Z" transform="translate(4.126 28.933)"/></g></svg>