<svg version="1.2" baseProfile="tiny-ps" xmlns="http://www.w3.org/2000/svg" viewBox="0 0 29 33" width="29" height="33">
	<title>person_icon-svg</title>
	<style>
		tspan { white-space:pre }
		.shp0 { fill: #e2e2e2 } 
		.shp1 { fill: #b8b8b8 } 
	</style>
	<g id="Layer">
		<path id="Layer" class="shp0" d="M-8 -13L43 -13L43 47L-8 47C-8.92 47 -9.83 46.82 -10.68 46.47C-11.53 46.12 -12.3 45.6 -12.95 44.95C-13.6 44.3 -14.12 43.53 -14.47 42.68C-14.82 41.83 -15 40.92 -15 40L-15 -6C-15 -6.92 -14.82 -7.83 -14.47 -8.68C-14.12 -9.53 -13.6 -10.3 -12.95 -10.95C-12.3 -11.6 -11.53 -12.12 -10.68 -12.47C-9.83 -12.82 -8.92 -13 -8 -13L-8 -13Z" />
		<path id="Layer" class="shp1" d="M14 17C16.63 17 19 15.42 20.01 12.99C21.01 10.56 20.46 7.76 18.6 5.9C16.74 4.04 13.94 3.49 11.51 4.49C9.08 5.5 7.5 7.87 7.5 10.5C7.5 11.35 7.67 12.2 7.99 12.99C8.32 13.78 8.8 14.49 9.4 15.1C10.01 15.7 10.72 16.18 11.51 16.51C12.3 16.83 13.15 17 14 17ZM14 20.25C9.66 20.25 1 22.43 1 26.75L1 30L27 30L27 26.75C27 22.43 18.34 20.25 14 20.25Z" />
	</g>
</svg>