<svg xmlns="http://www.w3.org/2000/svg" xmlns:xlink="http://www.w3.org/1999/xlink" width="674" height="511.91" viewBox="0 0 674 511.91">
  <defs>
    <clipPath id="clip-path">
      <path id="Path_78121" data-name="Path 78121" d="M-4230.568-505.779v136.791h-134.5v136.757h134.5v135.5L-4399.349,6.13l34.276-102.865h-134.654V-505.779Z" transform="translate(4499.728 505.779)" fill="#ddc1f2"/>
    </clipPath>
    <clipPath id="clip-path-2">
      <path id="Path_78262" data-name="Path 78262" d="M-4499.728-505.779v136.791h134.5v136.757h-134.5v135.5h269.159V-505.779Z" transform="translate(4499.728 505.779)" fill="#93d1e8"/>
    </clipPath>
  </defs>
  <g id="Group_43090" data-name="Group 43090" transform="translate(-987 -2809.832)">
    <g id="Mask_Group_405" data-name="Mask Group 405" transform="translate(987 2809.832)" clip-path="url(#clip-path)">
      <g id="Group_43052" data-name="Group 43052" transform="translate(-59.54 -97.99)">
        <path id="Path_78210" data-name="Path 78210" d="M-195.159,61.159c13.1-7.391,32.57-15.4,52.655-10.239,22.017,5.662,24.087,21.842,43.878,28.522,30.6,10.326,44.392-22.011,87.758-24.134C35.482,53.039,46.857,88.65,86.4,80.173c31.419-6.736,33.427-31.19,61.43-31.447,28.965-.266,39.529,25.778,66.55,24.134,23.688-1.442,23.3-24.37,46.073-30.715,40.913-11.4,68.418,50.364,111.892,42.416,34.21-6.255,37.737-48.26,68.012-48.267,31.361-.008,42.238,45.059,70.938,42.416,24.687-2.272,28.832-36.739,55.58-42.416,23.28-4.942,47.82,15.293,66.549,35.835" transform="translate(195.159 -35.541)" fill="none" stroke="#fff" stroke-width="1.5"/>
        <path id="Path_78211" data-name="Path 78211" d="M-195.159,73.182c13.1-7.391,32.57-15.4,52.655-10.239,22.017,5.662,24.087,21.842,43.878,28.522,30.6,10.326,44.392-22.011,87.758-24.134C35.482,65.063,46.857,100.673,86.4,92.2c31.419-6.736,33.427-31.19,61.43-31.446,28.965-.267,39.529,25.777,66.55,24.133,23.688-1.442,23.3-24.37,46.073-30.715,40.913-11.4,68.418,50.364,111.892,42.416,34.21-6.254,37.737-48.26,68.012-48.267,31.361-.008,42.238,45.059,70.938,42.417,24.687-2.273,28.832-36.74,55.58-42.417,23.28-4.942,47.82,15.293,66.549,35.835" transform="translate(195.159 -36.222)" fill="none" stroke="#fff" stroke-width="1.5"/>
        <path id="Path_78212" data-name="Path 78212" d="M-195.159,85.2c13.1-7.391,32.57-15.4,52.655-10.239,22.017,5.662,24.087,21.842,43.878,28.522,30.6,10.326,44.392-22.011,87.758-24.134C35.482,77.086,46.857,112.7,86.4,104.219c31.419-6.736,33.427-31.189,61.43-31.446,28.965-.267,39.529,25.777,66.55,24.133,23.688-1.442,23.3-24.37,46.073-30.715,40.913-11.4,68.418,50.364,111.892,42.416,34.21-6.254,37.737-48.259,68.012-48.267,31.361-.008,42.238,45.059,70.938,42.417,24.687-2.273,28.832-36.739,55.58-42.417,23.28-4.942,47.82,15.293,66.549,35.835" transform="translate(195.159 -36.902)" fill="none" stroke="#fff" stroke-width="1.5"/>
        <path id="Path_78213" data-name="Path 78213" d="M-195.159,97.228c13.1-7.391,32.57-15.4,52.655-10.239,22.017,5.663,24.087,21.842,43.878,28.522,30.6,10.326,44.392-22.01,87.758-24.133,46.35-2.269,57.725,33.341,97.265,24.864,31.419-6.735,33.427-31.189,61.43-31.446,28.965-.266,39.529,25.778,66.55,24.133,23.688-1.442,23.3-24.37,46.073-30.715,40.913-11.4,68.418,50.364,111.892,42.416,34.21-6.254,37.737-48.259,68.012-48.267,31.361-.008,42.238,45.059,70.938,42.417,24.687-2.273,28.832-36.739,55.58-42.417,23.28-4.942,47.82,15.293,66.549,35.835" transform="translate(195.159 -37.583)" fill="none" stroke="#fff" stroke-width="1.5"/>
        <path id="Path_78214" data-name="Path 78214" d="M-195.159,109.251c13.1-7.391,32.57-15.4,52.655-10.239,22.017,5.663,24.087,21.842,43.878,28.522,30.6,10.326,44.392-22.01,87.758-24.133,46.35-2.269,57.725,33.341,97.265,24.864,31.419-6.735,33.427-31.189,61.43-31.446,28.965-.266,39.529,25.778,66.55,24.133,23.688-1.442,23.3-24.37,46.073-30.715,40.913-11.4,68.418,50.364,111.892,42.416,34.21-6.254,37.737-48.259,68.012-48.266,31.361-.008,42.238,45.058,70.938,42.416,24.687-2.273,28.832-36.739,55.58-42.416,23.28-4.942,47.82,15.292,66.549,35.834" transform="translate(195.159 -38.263)" fill="none" stroke="#fff" stroke-width="1.5"/>
        <path id="Path_78215" data-name="Path 78215" d="M-195.159,121.274c13.1-7.391,32.57-15.4,52.655-10.238,22.017,5.662,24.087,21.841,43.878,28.521,30.6,10.326,44.392-22.01,87.758-24.133,46.35-2.269,57.725,33.341,97.265,24.864,31.419-6.735,33.427-31.189,61.43-31.446,28.965-.266,39.529,25.778,66.55,24.133,23.688-1.442,23.3-24.37,46.073-30.715,40.913-11.4,68.418,50.364,111.892,42.416,34.21-6.254,37.737-48.259,68.012-48.266,31.361-.008,42.238,45.058,70.938,42.416,24.687-2.273,28.832-36.739,55.58-42.416,23.28-4.942,47.82,15.292,66.549,35.834" transform="translate(195.159 -38.944)" fill="none" stroke="#fff" stroke-width="1.5"/>
        <path id="Path_78216" data-name="Path 78216" d="M-195.159,133.3c13.1-7.391,32.57-15.4,52.655-10.238,22.017,5.662,24.087,21.841,43.878,28.521,30.6,10.326,44.392-22.01,87.758-24.133,46.35-2.269,57.725,33.342,97.265,24.864,31.419-6.735,33.427-31.189,61.43-31.446,28.965-.266,39.529,25.778,66.55,24.133,23.688-1.442,23.3-24.37,46.073-30.715,40.913-11.4,68.418,50.364,111.892,42.417,34.21-6.255,37.737-48.26,68.012-48.267,31.361-.008,42.238,45.058,70.938,42.416,24.687-2.273,28.832-36.739,55.58-42.416,23.28-4.942,47.82,15.292,66.549,35.834" transform="translate(195.159 -39.624)" fill="none" stroke="#fff" stroke-width="1.5"/>
        <path id="Path_78217" data-name="Path 78217" d="M-195.159,145.32c13.1-7.39,32.57-15.4,52.655-10.238,22.017,5.662,24.087,21.841,43.878,28.521,30.6,10.326,44.392-22.01,87.758-24.133,46.35-2.269,57.725,33.342,97.265,24.865,31.419-6.736,33.427-31.19,61.43-31.447,28.965-.266,39.529,25.778,66.55,24.134,23.688-1.442,23.3-24.371,46.073-30.716,40.913-11.4,68.418,50.364,111.892,42.417,34.21-6.255,37.737-48.26,68.012-48.267,31.361-.008,42.238,45.058,70.938,42.416,24.687-2.273,28.832-36.739,55.58-42.416,23.28-4.942,47.82,15.292,66.549,35.834" transform="translate(195.159 -40.305)" fill="none" stroke="#fff" stroke-width="1.5"/>
        <path id="Path_78218" data-name="Path 78218" d="M-195.159,157.344c13.1-7.391,32.57-15.4,52.655-10.239,22.017,5.662,24.087,21.842,43.878,28.521,30.6,10.327,44.392-22.01,87.758-24.133,46.35-2.269,57.725,33.342,97.265,24.865,31.419-6.736,33.427-31.19,61.43-31.447,28.965-.266,39.529,25.778,66.55,24.134,23.688-1.442,23.3-24.371,46.073-30.715,40.913-11.4,68.418,50.363,111.892,42.416,34.21-6.255,37.737-48.26,68.012-48.267,31.361-.008,42.238,45.059,70.938,42.416,24.687-2.273,28.832-36.739,55.58-42.416,23.28-4.942,47.82,15.293,66.549,35.834" transform="translate(195.159 -40.985)" fill="none" stroke="#fff" stroke-width="1.5"/>
        <path id="Path_78219" data-name="Path 78219" d="M-195.159,169.367c13.1-7.391,32.57-15.4,52.655-10.239,22.017,5.662,24.087,21.842,43.878,28.522,30.6,10.326,44.392-22.011,87.758-24.134,46.35-2.269,57.725,33.342,97.265,24.865,31.419-6.736,33.427-31.19,61.43-31.447,28.965-.266,39.529,25.778,66.55,24.134,23.688-1.442,23.3-24.371,46.073-30.715,40.913-11.4,68.418,50.364,111.892,42.416,34.21-6.255,37.737-48.26,68.012-48.267,31.361-.008,42.238,45.059,70.938,42.416,24.687-2.272,28.832-36.739,55.58-42.416,23.28-4.942,47.82,15.293,66.549,35.835" transform="translate(195.159 -41.666)" fill="none" stroke="#fff" stroke-width="1.5"/>
        <path id="Path_78220" data-name="Path 78220" d="M-195.159,181.39c13.1-7.391,32.57-15.4,52.655-10.239,22.017,5.662,24.087,21.842,43.878,28.522,30.6,10.326,44.392-22.011,87.758-24.134C35.482,173.27,46.857,208.881,86.4,200.4c31.419-6.736,33.427-31.19,61.43-31.446,28.965-.267,39.529,25.777,66.55,24.133,23.688-1.442,23.3-24.37,46.073-30.715,40.913-11.4,68.418,50.364,111.892,42.416,34.21-6.255,37.737-48.26,68.012-48.267,31.361-.008,42.238,45.059,70.938,42.416,24.687-2.272,28.832-36.739,55.58-42.416,23.28-4.942,47.82,15.293,66.549,35.835" transform="translate(195.159 -42.346)" fill="none" stroke="#fff" stroke-width="1.5"/>
        <path id="Path_78221" data-name="Path 78221" d="M-195.159,193.413c13.1-7.391,32.57-15.4,52.655-10.239,22.017,5.662,24.087,21.842,43.878,28.522,30.6,10.326,44.392-22.011,87.758-24.134,46.35-2.268,57.725,33.342,97.265,24.865,31.419-6.736,33.427-31.189,61.43-31.446,28.965-.267,39.529,25.777,66.55,24.133,23.688-1.442,23.3-24.37,46.073-30.715,40.913-11.4,68.418,50.364,111.892,42.416,34.21-6.254,37.737-48.26,68.012-48.267,31.361-.008,42.238,45.059,70.938,42.417,24.687-2.273,28.832-36.739,55.58-42.417,23.28-4.942,47.82,15.293,66.549,35.835" transform="translate(195.159 -43.027)" fill="none" stroke="#fff" stroke-width="1.5"/>
        <path id="Path_78222" data-name="Path 78222" d="M-195.159,205.436c13.1-7.391,32.57-15.4,52.655-10.239,22.017,5.663,24.087,21.842,43.878,28.522,30.6,10.326,44.392-22.011,87.758-24.134,46.35-2.268,57.725,33.342,97.265,24.865,31.419-6.736,33.427-31.189,61.43-31.446,28.965-.267,39.529,25.777,66.55,24.133,23.688-1.442,23.3-24.37,46.073-30.715,40.913-11.4,68.418,50.364,111.892,42.416,34.21-6.254,37.737-48.259,68.012-48.267,31.361-.008,42.238,45.059,70.938,42.417,24.687-2.273,28.832-36.739,55.58-42.417,23.28-4.942,47.82,15.293,66.549,35.835" transform="translate(195.159 -43.707)" fill="none" stroke="#fff" stroke-width="1.5"/>
        <path id="Path_78223" data-name="Path 78223" d="M-195.159,217.459c13.1-7.391,32.57-15.4,52.655-10.239,22.017,5.663,24.087,21.842,43.878,28.522,30.6,10.326,44.392-22.01,87.758-24.133,46.35-2.269,57.725,33.341,97.265,24.864,31.419-6.735,33.427-31.189,61.43-31.446,28.965-.266,39.529,25.778,66.55,24.133,23.688-1.442,23.3-24.37,46.073-30.715,40.913-11.4,68.418,50.364,111.892,42.416,34.21-6.254,37.737-48.259,68.012-48.266,31.361-.008,42.238,45.058,70.938,42.416,24.687-2.273,28.832-36.739,55.58-42.416,23.28-4.942,47.82,15.293,66.549,35.834" transform="translate(195.159 -44.388)" fill="none" stroke="#fff" stroke-width="1.5"/>
        <path id="Path_78224" data-name="Path 78224" d="M-195.159,229.482c13.1-7.391,32.57-15.4,52.655-10.239,22.017,5.663,24.087,21.842,43.878,28.522,30.6,10.326,44.392-22.01,87.758-24.133,46.35-2.269,57.725,33.341,97.265,24.864,31.419-6.735,33.427-31.189,61.43-31.446,28.965-.266,39.529,25.778,66.55,24.133,23.688-1.442,23.3-24.37,46.073-30.715,40.913-11.4,68.418,50.364,111.892,42.416,34.21-6.254,37.737-48.259,68.012-48.266,31.361-.008,42.238,45.058,70.938,42.416,24.687-2.273,28.832-36.739,55.58-42.416,23.28-4.942,47.82,15.292,66.549,35.834" transform="translate(195.159 -45.068)" fill="none" stroke="#fff" stroke-width="1.5"/>
        <path id="Path_78225" data-name="Path 78225" d="M-195.159,241.505c13.1-7.391,32.57-15.4,52.655-10.238,22.017,5.662,24.087,21.841,43.878,28.521,30.6,10.326,44.392-22.01,87.758-24.133C35.482,233.386,46.857,269,86.4,260.519c31.419-6.735,33.427-31.189,61.43-31.446,28.965-.266,39.529,25.778,66.55,24.133,23.688-1.442,23.3-24.37,46.073-30.715,40.913-11.4,68.418,50.364,111.892,42.417,34.21-6.255,37.737-48.26,68.012-48.267,31.361-.008,42.238,45.058,70.938,42.416,24.687-2.273,28.832-36.739,55.58-42.416,23.28-4.942,47.82,15.292,66.549,35.834" transform="translate(195.159 -45.749)" fill="none" stroke="#fff" stroke-width="1.5"/>
        <path id="Path_78226" data-name="Path 78226" d="M-195.159,253.528c13.1-7.39,32.57-15.4,52.655-10.238,22.017,5.662,24.087,21.841,43.878,28.521,30.6,10.326,44.392-22.01,87.758-24.133,46.35-2.269,57.725,33.342,97.265,24.864,31.419-6.735,33.427-31.189,61.43-31.446,28.965-.266,39.529,25.778,66.55,24.134,23.688-1.442,23.3-24.371,46.073-30.716,40.913-11.4,68.418,50.364,111.892,42.417,34.21-6.255,37.737-48.26,68.012-48.267,31.361-.008,42.238,45.058,70.938,42.416,24.687-2.273,28.832-36.739,55.58-42.416,23.28-4.942,47.82,15.292,66.549,35.834" transform="translate(195.159 -46.429)" fill="none" stroke="#fff" stroke-width="1.5"/>
        <path id="Path_78227" data-name="Path 78227" d="M-195.159,265.552c13.1-7.391,32.57-15.4,52.655-10.239,22.017,5.662,24.087,21.842,43.878,28.521,30.6,10.327,44.392-22.01,87.758-24.133,46.35-2.269,57.725,33.342,97.265,24.865,31.419-6.736,33.427-31.19,61.43-31.447,28.965-.266,39.529,25.778,66.55,24.134,23.688-1.442,23.3-24.371,46.073-30.716,40.913-11.4,68.418,50.364,111.892,42.417,34.21-6.255,37.737-48.26,68.012-48.267,31.361-.008,42.238,45.058,70.938,42.416,24.687-2.273,28.832-36.739,55.58-42.416,23.28-4.942,47.82,15.293,66.549,35.834" transform="translate(195.159 -47.11)" fill="none" stroke="#fff" stroke-width="1.5"/>
        <path id="Path_78228" data-name="Path 78228" d="M-195.159,277.575c13.1-7.391,32.57-15.4,52.655-10.239,22.017,5.662,24.087,21.842,43.878,28.521,30.6,10.327,44.392-22.01,87.758-24.133,46.35-2.269,57.725,33.342,97.265,24.865,31.419-6.736,33.427-31.19,61.43-31.447,28.965-.266,39.529,25.778,66.55,24.134,23.688-1.442,23.3-24.371,46.073-30.715,40.913-11.4,68.418,50.363,111.892,42.416,34.21-6.255,37.737-48.26,68.012-48.267,31.361-.008,42.238,45.059,70.938,42.416,24.687-2.272,28.832-36.739,55.58-42.416,23.28-4.942,47.82,15.293,66.549,35.835" transform="translate(195.159 -47.79)" fill="none" stroke="#fff" stroke-width="1.5"/>
        <path id="Path_78229" data-name="Path 78229" d="M-195.159,289.6c13.1-7.391,32.57-15.4,52.655-10.239,22.017,5.662,24.087,21.842,43.878,28.522,30.6,10.326,44.392-22.011,87.758-24.134,46.35-2.269,57.725,33.342,97.265,24.865,31.419-6.736,33.427-31.19,61.43-31.447,28.965-.266,39.529,25.778,66.55,24.134,23.688-1.441,23.3-24.37,46.073-30.715,40.913-11.4,68.418,50.364,111.892,42.416,34.21-6.255,37.737-48.26,68.012-48.267,31.361-.008,42.238,45.059,70.938,42.416,24.687-2.272,28.832-36.739,55.58-42.416,23.28-4.942,47.82,15.293,66.549,35.835" transform="translate(195.159 -48.471)" fill="none" stroke="#fff" stroke-width="1.5"/>
        <path id="Path_78230" data-name="Path 78230" d="M-195.159,301.621c13.1-7.391,32.57-15.4,52.655-10.239,22.017,5.662,24.087,21.842,43.878,28.522,30.6,10.326,44.392-22.011,87.758-24.134,46.35-2.269,57.725,33.342,97.265,24.865,31.419-6.736,33.427-31.19,61.43-31.446,28.965-.267,39.529,25.777,66.55,24.133,23.688-1.442,23.3-24.37,46.073-30.715,40.913-11.4,68.418,50.364,111.892,42.416,34.21-6.254,37.737-48.26,68.012-48.267,31.361-.008,42.238,45.059,70.938,42.416,24.687-2.272,28.832-36.739,55.58-42.416,23.28-4.942,47.82,15.293,66.549,35.835" transform="translate(195.159 -49.151)" fill="none" stroke="#fff" stroke-width="1.5"/>
        <path id="Path_78231" data-name="Path 78231" d="M-195.159,313.644c13.1-7.391,32.57-15.4,52.655-10.239,22.017,5.662,24.087,21.842,43.878,28.522,30.6,10.326,44.392-22.011,87.758-24.134,46.35-2.268,57.725,33.342,97.265,24.865,31.419-6.736,33.427-31.189,61.43-31.446,28.965-.267,39.529,25.777,66.55,24.133,23.688-1.442,23.3-24.37,46.073-30.715,40.913-11.4,68.418,50.364,111.892,42.416,34.21-6.254,37.737-48.26,68.012-48.267,31.361-.008,42.238,45.059,70.938,42.417,24.687-2.273,28.832-36.739,55.58-42.417,23.28-4.942,47.82,15.293,66.549,35.835" transform="translate(195.159 -49.832)" fill="none" stroke="#fff" stroke-width="1.5"/>
        <path id="Path_78232" data-name="Path 78232" d="M-195.159,325.667c13.1-7.391,32.57-15.4,52.655-10.239,22.017,5.663,24.087,21.842,43.878,28.522,30.6,10.326,44.392-22.01,87.758-24.134,46.35-2.268,57.725,33.342,97.265,24.865,31.419-6.735,33.427-31.189,61.43-31.446,28.965-.266,39.529,25.778,66.55,24.133,23.688-1.442,23.3-24.37,46.073-30.715,40.913-11.4,68.418,50.364,111.892,42.416,34.21-6.254,37.737-48.259,68.012-48.267,31.361-.008,42.238,45.059,70.938,42.417,24.687-2.273,28.832-36.739,55.58-42.417,23.28-4.942,47.82,15.293,66.549,35.835" transform="translate(195.159 -50.512)" fill="none" stroke="#fff" stroke-width="1.5"/>
        <path id="Path_78233" data-name="Path 78233" d="M-195.159,337.69c13.1-7.391,32.57-15.4,52.655-10.239,22.017,5.663,24.087,21.842,43.878,28.522,30.6,10.326,44.392-22.01,87.758-24.133,46.35-2.269,57.725,33.341,97.265,24.864,31.419-6.735,33.427-31.189,61.43-31.446,28.965-.266,39.529,25.778,66.55,24.133,23.688-1.442,23.3-24.37,46.073-30.715,40.913-11.4,68.418,50.364,111.892,42.416,34.21-6.254,37.737-48.259,68.012-48.266,31.361-.009,42.238,45.058,70.938,42.416,24.687-2.273,28.832-36.739,55.58-42.416,23.28-4.943,47.82,15.292,66.549,35.834" transform="translate(195.159 -51.193)" fill="none" stroke="#fff" stroke-width="1.5"/>
        <path id="Path_78234" data-name="Path 78234" d="M-195.159,349.713c13.1-7.391,32.57-15.4,52.655-10.238,22.017,5.662,24.087,21.841,43.878,28.521,30.6,10.326,44.392-22.01,87.758-24.133,46.35-2.269,57.725,33.341,97.265,24.864,31.419-6.735,33.427-31.189,61.43-31.446,28.965-.266,39.529,25.778,66.55,24.133,23.688-1.442,23.3-24.37,46.073-30.715,40.913-11.4,68.418,50.364,111.892,42.416,34.21-6.254,37.737-48.259,68.012-48.266,31.361-.008,42.238,45.058,70.938,42.416,24.687-2.273,28.832-36.739,55.58-42.416,23.28-4.942,47.82,15.293,66.549,35.834" transform="translate(195.159 -51.874)" fill="none" stroke="#fff" stroke-width="1.5"/>
        <path id="Path_78235" data-name="Path 78235" d="M-195.159,361.736c13.1-7.391,32.57-15.4,52.655-10.238,22.017,5.662,24.087,21.841,43.878,28.521,30.6,10.326,44.392-22.01,87.758-24.133,46.35-2.269,57.725,33.342,97.265,24.864,31.419-6.735,33.427-31.189,61.43-31.446,28.965-.266,39.529,25.778,66.55,24.133,23.688-1.441,23.3-24.37,46.073-30.715,40.913-11.4,68.418,50.364,111.892,42.417,34.21-6.255,37.737-48.26,68.012-48.267,31.361-.008,42.238,45.058,70.938,42.416,24.687-2.273,28.832-36.739,55.58-42.416,23.28-4.942,47.82,15.293,66.549,35.834" transform="translate(195.159 -52.554)" fill="none" stroke="#fff" stroke-width="1.5"/>
        <path id="Path_78236" data-name="Path 78236" d="M-195.159,373.759c13.1-7.39,32.57-15.4,52.655-10.238,22.017,5.662,24.087,21.841,43.878,28.521,30.6,10.326,44.392-22.01,87.758-24.133,46.35-2.269,57.725,33.342,97.265,24.864,31.419-6.735,33.427-31.189,61.43-31.446,28.965-.266,39.529,25.778,66.55,24.134,23.688-1.442,23.3-24.371,46.073-30.716,40.913-11.4,68.418,50.364,111.892,42.417,34.21-6.255,37.737-48.26,68.012-48.267,31.361-.008,42.238,45.058,70.938,42.416,24.687-2.273,28.832-36.739,55.58-42.416,23.28-4.942,47.82,15.292,66.549,35.834" transform="translate(195.159 -53.235)" fill="none" stroke="#fff" stroke-width="1.5"/>
        <path id="Path_78237" data-name="Path 78237" d="M-195.159,385.783c13.1-7.391,32.57-15.4,52.655-10.239,22.017,5.662,24.087,21.842,43.878,28.521,30.6,10.327,44.392-22.01,87.758-24.133,46.35-2.269,57.725,33.342,97.265,24.865,31.419-6.736,33.427-31.19,61.43-31.447,28.965-.266,39.529,25.778,66.55,24.134,23.688-1.442,23.3-24.371,46.073-30.715,40.913-11.4,68.418,50.363,111.892,42.416,34.21-6.255,37.737-48.26,68.012-48.267,31.361-.008,42.238,45.059,70.938,42.416,24.687-2.273,28.832-36.739,55.58-42.416,23.28-4.942,47.82,15.293,66.549,35.834" transform="translate(195.159 -53.915)" fill="none" stroke="#fff" stroke-width="1.5"/>
        <path id="Path_78238" data-name="Path 78238" d="M-195.159,397.806c13.1-7.391,32.57-15.4,52.655-10.239,22.017,5.662,24.087,21.842,43.878,28.522,30.6,10.326,44.392-22.011,87.758-24.134C35.482,389.686,46.857,425.3,86.4,416.82c31.419-6.736,33.427-31.19,61.43-31.447,28.965-.266,39.529,25.778,66.55,24.134,23.688-1.442,23.3-24.371,46.073-30.715,40.913-11.4,68.418,50.364,111.892,42.416,34.21-6.255,37.737-48.26,68.012-48.267,31.361-.008,42.238,45.059,70.938,42.416,24.687-2.272,28.832-36.739,55.58-42.416,23.28-4.942,47.82,15.293,66.549,35.835" transform="translate(195.159 -54.596)" fill="none" stroke="#fff" stroke-width="1.5"/>
        <path id="Path_78239" data-name="Path 78239" d="M-195.159,409.829c13.1-7.391,32.57-15.4,52.655-10.239,22.017,5.662,24.087,21.842,43.878,28.522,30.6,10.326,44.392-22.011,87.758-24.134,46.35-2.269,57.725,33.342,97.265,24.865,31.419-6.736,33.427-31.19,61.43-31.447,28.965-.266,39.529,25.778,66.55,24.134,23.688-1.442,23.3-24.37,46.073-30.715,40.913-11.4,68.418,50.364,111.892,42.416,34.21-6.255,37.737-48.26,68.012-48.267,31.361-.008,42.238,45.059,70.938,42.416,24.687-2.272,28.832-36.739,55.58-42.416,23.28-4.942,47.82,15.293,66.549,35.835" transform="translate(195.159 -55.276)" fill="none" stroke="#fff" stroke-width="1.5"/>
        <path id="Path_78240" data-name="Path 78240" d="M-195.159,421.852c13.1-7.391,32.57-15.4,52.655-10.239,22.017,5.662,24.087,21.842,43.878,28.522,30.6,10.326,44.392-22.011,87.758-24.134,46.35-2.268,57.725,33.342,97.265,24.865,31.419-6.736,33.427-31.19,61.43-31.446,28.965-.267,39.529,25.777,66.55,24.133,23.688-1.441,23.3-24.37,46.073-30.715,40.913-11.4,68.418,50.364,111.892,42.416,34.21-6.254,37.737-48.26,68.012-48.267,31.361-.008,42.238,45.059,70.938,42.417,24.687-2.273,28.832-36.74,55.58-42.417,23.28-4.942,47.82,15.293,66.549,35.835" transform="translate(195.159 -55.957)" fill="none" stroke="#fff" stroke-width="1.5"/>
        <path id="Path_78241" data-name="Path 78241" d="M-195.159,433.875c13.1-7.391,32.57-15.4,52.655-10.239,22.017,5.662,24.087,21.842,43.878,28.522,30.6,10.326,44.392-22.011,87.758-24.134,46.35-2.268,57.725,33.342,97.265,24.865,31.419-6.736,33.427-31.189,61.43-31.446,28.965-.267,39.529,25.777,66.55,24.133,23.688-1.442,23.3-24.37,46.073-30.715,40.913-11.4,68.418,50.364,111.892,42.416,34.21-6.254,37.737-48.259,68.012-48.267,31.361-.008,42.238,45.059,70.938,42.417,24.687-2.273,28.832-36.739,55.58-42.417,23.28-4.942,47.82,15.293,66.549,35.835" transform="translate(195.159 -56.637)" fill="none" stroke="#fff" stroke-width="1.5"/>
        <path id="Path_78242" data-name="Path 78242" d="M-195.159,445.9c13.1-7.391,32.57-15.4,52.655-10.239,22.017,5.663,24.087,21.842,43.878,28.522,30.6,10.326,44.392-22.01,87.758-24.133,46.35-2.269,57.725,33.341,97.265,24.864,31.419-6.735,33.427-31.189,61.43-31.446,28.965-.266,39.529,25.778,66.55,24.133,23.688-1.442,23.3-24.37,46.073-30.715,40.913-11.4,68.418,50.364,111.892,42.416,34.21-6.254,37.737-48.259,68.012-48.267,31.361-.008,42.238,45.059,70.938,42.417,24.687-2.273,28.832-36.739,55.58-42.417,23.28-4.942,47.82,15.293,66.549,35.835" transform="translate(195.159 -57.318)" fill="none" stroke="#fff" stroke-width="1.5"/>
        <path id="Path_78243" data-name="Path 78243" d="M-195.159,457.921c13.1-7.391,32.57-15.4,52.655-10.239,22.017,5.663,24.087,21.842,43.878,28.522,30.6,10.326,44.392-22.01,87.758-24.133,46.35-2.269,57.725,33.341,97.265,24.864,31.419-6.735,33.427-31.189,61.43-31.446,28.965-.266,39.529,25.778,66.55,24.133,23.688-1.441,23.3-24.37,46.073-30.715,40.913-11.4,68.418,50.364,111.892,42.416,34.21-6.254,37.737-48.259,68.012-48.266,31.361-.009,42.238,45.058,70.938,42.416,24.687-2.273,28.832-36.739,55.58-42.416,23.28-4.942,47.82,15.293,66.549,35.834" transform="translate(195.159 -57.998)" fill="none" stroke="#fff" stroke-width="1.5"/>
        <path id="Path_78244" data-name="Path 78244" d="M-195.159,469.944c13.1-7.391,32.57-15.4,52.655-10.238,22.017,5.662,24.087,21.841,43.878,28.521,30.6,10.326,44.392-22.01,87.758-24.133,46.35-2.269,57.725,33.341,97.265,24.864,31.419-6.735,33.427-31.189,61.43-31.446,28.965-.266,39.529,25.778,66.55,24.133,23.688-1.442,23.3-24.37,46.073-30.715,40.913-11.4,68.418,50.364,111.892,42.417,34.21-6.255,37.737-48.26,68.012-48.267,31.361-.008,42.238,45.058,70.938,42.416,24.687-2.273,28.832-36.739,55.58-42.416,23.28-4.942,47.82,15.293,66.549,35.834" transform="translate(195.159 -58.679)" fill="none" stroke="#fff" stroke-width="1.5"/>
        <path id="Path_78245" data-name="Path 78245" d="M-195.159,481.967c13.1-7.391,32.57-15.4,52.655-10.238,22.017,5.662,24.087,21.841,43.878,28.521,30.6,10.326,44.392-22.01,87.758-24.133,46.35-2.269,57.725,33.342,97.265,24.864,31.419-6.735,33.427-31.189,61.43-31.446,28.965-.266,39.529,25.778,66.55,24.134,23.688-1.442,23.3-24.371,46.073-30.716,40.913-11.4,68.418,50.364,111.892,42.417,34.21-6.255,37.737-48.26,68.012-48.267,31.361-.008,42.238,45.058,70.938,42.416,24.687-2.273,28.832-36.739,55.58-42.416,23.28-4.942,47.82,15.293,66.549,35.834" transform="translate(195.159 -59.359)" fill="none" stroke="#fff" stroke-width="1.5"/>
        <path id="Path_78246" data-name="Path 78246" d="M-195.159,493.99c13.1-7.39,32.57-15.4,52.655-10.238,22.017,5.662,24.087,21.841,43.878,28.521,30.6,10.327,44.392-22.01,87.758-24.133,46.35-2.269,57.725,33.342,97.265,24.865,31.419-6.736,33.427-31.19,61.43-31.447,28.965-.266,39.529,25.778,66.55,24.134,23.688-1.442,23.3-24.371,46.073-30.716,40.913-11.4,68.418,50.364,111.892,42.417,34.21-6.255,37.737-48.26,68.012-48.267,31.361-.008,42.238,45.058,70.938,42.416,24.687-2.273,28.832-36.739,55.58-42.416,23.28-4.941,47.82,15.293,66.549,35.834" transform="translate(195.159 -60.04)" fill="none" stroke="#fff" stroke-width="1.5"/>
        <path id="Path_78247" data-name="Path 78247" d="M-195.159,506.014c13.1-7.391,32.57-15.4,52.655-10.239,22.017,5.662,24.087,21.842,43.878,28.521,30.6,10.327,44.392-22.01,87.758-24.133,46.35-2.269,57.725,33.342,97.265,24.865,31.419-6.736,33.427-31.19,61.43-31.447,28.965-.266,39.529,25.778,66.55,24.134,23.688-1.442,23.3-24.371,46.073-30.715,40.913-11.4,68.418,50.363,111.892,42.416,34.21-6.255,37.737-48.26,68.012-48.267,31.361-.008,42.238,45.059,70.938,42.416,24.687-2.273,28.832-36.739,55.58-42.416,23.28-4.942,47.82,15.293,66.549,35.835" transform="translate(195.159 -60.72)" fill="none" stroke="#fff" stroke-width="1.5"/>
        <path id="Path_78248" data-name="Path 78248" d="M-195.159,518.037c13.1-7.391,32.57-15.4,52.655-10.239,22.017,5.662,24.087,21.842,43.878,28.522,30.6,10.326,44.392-22.011,87.758-24.134,46.35-2.269,57.725,33.342,97.265,24.865,31.419-6.736,33.427-31.19,61.43-31.447,28.965-.266,39.529,25.778,66.55,24.134,23.688-1.442,23.3-24.37,46.073-30.715,40.913-11.4,68.418,50.364,111.892,42.416,34.21-6.255,37.737-48.26,68.012-48.267,31.361-.008,42.238,45.059,70.938,42.416,24.687-2.272,28.832-36.739,55.58-42.416,23.28-4.942,47.82,15.293,66.549,35.835" transform="translate(195.159 -61.401)" fill="none" stroke="#fff" stroke-width="1.5"/>
        <path id="Path_78249" data-name="Path 78249" d="M-195.159,530.06c13.1-7.391,32.57-15.4,52.655-10.239,22.017,5.662,24.087,21.842,43.878,28.522,30.6,10.326,44.392-22.011,87.758-24.134,46.35-2.269,57.725,33.342,97.265,24.865,31.419-6.736,33.427-31.19,61.43-31.446,28.965-.267,39.529,25.777,66.55,24.133,23.688-1.442,23.3-24.37,46.073-30.715,40.913-11.4,68.418,50.364,111.892,42.416,34.21-6.255,37.737-48.26,68.012-48.267,31.361-.008,42.238,45.059,70.938,42.416,24.687-2.272,28.832-36.739,55.58-42.416,23.28-4.941,47.82,15.293,66.549,35.835" transform="translate(195.159 -62.081)" fill="none" stroke="#fff" stroke-width="1.5"/>
        <path id="Path_78250" data-name="Path 78250" d="M-195.159,542.083c13.1-7.391,32.57-15.4,52.655-10.239,22.017,5.662,24.087,21.842,43.878,28.522,30.6,10.326,44.392-22.011,87.758-24.134,46.35-2.268,57.725,33.342,97.265,24.865,31.419-6.736,33.427-31.189,61.43-31.446,28.965-.267,39.529,25.777,66.55,24.133,23.688-1.442,23.3-24.37,46.073-30.715,40.913-11.4,68.418,50.364,111.892,42.416,34.21-6.254,37.737-48.26,68.012-48.267,31.361-.008,42.238,45.059,70.938,42.417,24.687-2.273,28.832-36.739,55.58-42.417,23.28-4.941,47.82,15.293,66.549,35.835" transform="translate(195.159 -62.762)" fill="none" stroke="#fff" stroke-width="1.5"/>
        <path id="Path_78251" data-name="Path 78251" d="M-195.159,554.106c13.1-7.391,32.57-15.4,52.655-10.239,22.017,5.663,24.087,21.842,43.878,28.522,30.6,10.326,44.392-22.011,87.758-24.134C35.482,545.987,46.857,581.6,86.4,573.12c31.419-6.736,33.427-31.189,61.43-31.446,28.965-.267,39.529,25.778,66.55,24.133,23.688-1.442,23.3-24.37,46.073-30.715,40.913-11.4,68.418,50.364,111.892,42.416,34.21-6.254,37.737-48.259,68.012-48.267,31.361-.008,42.238,45.059,70.938,42.417,24.687-2.273,28.832-36.739,55.58-42.417,23.28-4.942,47.82,15.293,66.549,35.835" transform="translate(195.159 -63.442)" fill="none" stroke="#fff" stroke-width="1.5"/>
        <path id="Path_78252" data-name="Path 78252" d="M-195.159,566.129c13.1-7.391,32.57-15.4,52.655-10.239,22.017,5.663,24.087,21.842,43.878,28.522,30.6,10.326,44.392-22.01,87.758-24.133,46.35-2.269,57.725,33.341,97.265,24.864,31.419-6.735,33.427-31.189,61.43-31.446,28.965-.266,39.529,25.778,66.55,24.133,23.688-1.441,23.3-24.37,46.073-30.715,40.913-11.4,68.418,50.364,111.892,42.416,34.21-6.254,37.737-48.259,68.012-48.266,31.361-.008,42.238,45.058,70.938,42.416,24.687-2.273,28.832-36.739,55.58-42.416,23.28-4.943,47.82,15.292,66.549,35.834" transform="translate(195.159 -64.123)" fill="none" stroke="#fff" stroke-width="1.5"/>
        <path id="Path_78253" data-name="Path 78253" d="M-195.159,578.152c13.1-7.391,32.57-15.4,52.655-10.238,22.017,5.662,24.087,21.841,43.878,28.521,30.6,10.326,44.392-22.01,87.758-24.133,46.35-2.269,57.725,33.341,97.265,24.864,31.419-6.735,33.427-31.189,61.43-31.446,28.965-.266,39.529,25.778,66.55,24.133,23.688-1.441,23.3-24.37,46.073-30.715,40.913-11.4,68.418,50.364,111.892,42.416,34.21-6.254,37.737-48.259,68.012-48.266,31.361-.008,42.238,45.058,70.938,42.416,24.687-2.273,28.832-36.739,55.58-42.416,23.28-4.942,47.82,15.293,66.549,35.834" transform="translate(195.159 -64.803)" fill="none" stroke="#fff" stroke-width="1.5"/>
        <path id="Path_78254" data-name="Path 78254" d="M-195.159,590.175c13.1-7.391,32.57-15.4,52.655-10.238,22.017,5.662,24.087,21.841,43.878,28.521,30.6,10.326,44.392-22.01,87.758-24.133,46.35-2.269,57.725,33.342,97.265,24.864,31.419-6.735,33.427-31.189,61.43-31.446,28.965-.266,39.529,25.778,66.55,24.133,23.688-1.442,23.3-24.37,46.073-30.715,40.913-11.4,68.418,50.364,111.892,42.417,34.21-6.255,37.737-48.26,68.012-48.267,31.361-.009,42.238,45.058,70.938,42.416,24.687-2.273,28.832-36.739,55.58-42.416,23.28-4.942,47.82,15.292,66.549,35.834" transform="translate(195.159 -65.484)" fill="none" stroke="#fff" stroke-width="1.5"/>
        <path id="Path_78255" data-name="Path 78255" d="M-195.159,602.2c13.1-7.39,32.57-15.4,52.655-10.238,22.017,5.662,24.087,21.841,43.878,28.521,30.6,10.326,44.392-22.01,87.758-24.133,46.35-2.269,57.725,33.342,97.265,24.864,31.419-6.735,33.427-31.189,61.43-31.446,28.965-.266,39.529,25.778,66.55,24.134,23.688-1.442,23.3-24.371,46.073-30.716,40.913-11.4,68.418,50.364,111.892,42.417,34.21-6.255,37.737-48.26,68.012-48.267,31.361-.009,42.238,45.058,70.938,42.416,24.687-2.273,28.832-36.739,55.58-42.416,23.28-4.942,47.82,15.292,66.549,35.834" transform="translate(195.159 -66.164)" fill="none" stroke="#fff" stroke-width="1.5"/>
        <path id="Path_78256" data-name="Path 78256" d="M-195.159,614.222c13.1-7.391,32.57-15.4,52.655-10.239,22.017,5.662,24.087,21.842,43.878,28.521,30.6,10.327,44.392-22.01,87.758-24.133,46.35-2.269,57.725,33.342,97.265,24.865,31.419-6.736,33.427-31.19,61.43-31.447,28.965-.266,39.529,25.778,66.55,24.134,23.688-1.443,23.3-24.371,46.073-30.715,40.913-11.4,68.418,50.363,111.892,42.416,34.21-6.255,37.737-48.26,68.012-48.267,31.361-.008,42.238,45.059,70.938,42.416,24.687-2.273,28.832-36.739,55.58-42.416,23.28-4.942,47.82,15.293,66.549,35.834" transform="translate(195.159 -66.845)" fill="none" stroke="#fff" stroke-width="1.5"/>
        <path id="Path_78257" data-name="Path 78257" d="M-195.159,626.245c13.1-7.391,32.57-15.4,52.655-10.239,22.017,5.662,24.087,21.842,43.878,28.521,30.6,10.327,44.392-22.01,87.758-24.133,46.35-2.269,57.725,33.342,97.265,24.865,31.419-6.736,33.427-31.19,61.43-31.447,28.965-.266,39.529,25.778,66.55,24.134,23.688-1.442,23.3-24.371,46.073-30.715,40.913-11.4,68.418,50.363,111.892,42.416,34.21-6.255,37.737-48.26,68.012-48.267,31.361-.008,42.238,45.059,70.938,42.416,24.687-2.272,28.832-36.739,55.58-42.416,23.28-4.942,47.82,15.293,66.549,35.835" transform="translate(195.159 -67.526)" fill="none" stroke="#fff" stroke-width="1.5"/>
        <path id="Path_78258" data-name="Path 78258" d="M-195.159,638.268c13.1-7.391,32.57-15.4,52.655-10.239,22.017,5.662,24.087,21.842,43.878,28.522,30.6,10.326,44.392-22.011,87.758-24.134,46.35-2.269,57.725,33.342,97.265,24.865,31.419-6.736,33.427-31.19,61.43-31.447,28.965-.266,39.529,25.778,66.55,24.134,23.688-1.442,23.3-24.37,46.073-30.715,40.913-11.4,68.418,50.364,111.892,42.416,34.21-6.255,37.737-48.26,68.012-48.267,31.361-.008,42.238,45.059,70.938,42.416,24.687-2.272,28.832-36.739,55.58-42.416,23.28-4.941,47.82,15.293,66.549,35.835" transform="translate(195.159 -68.206)" fill="none" stroke="#fff" stroke-width="1.5"/>
        <path id="Path_78259" data-name="Path 78259" d="M-195.159,650.291c13.1-7.391,32.57-15.4,52.655-10.239,22.017,5.662,24.087,21.842,43.878,28.522,30.6,10.326,44.392-22.011,87.758-24.134,46.35-2.269,57.725,33.342,97.265,24.865,31.419-6.736,33.427-31.19,61.43-31.446,28.965-.267,39.529,25.777,66.55,24.133,23.688-1.442,23.3-24.37,46.073-30.715,40.913-11.4,68.418,50.364,111.892,42.416,34.21-6.254,37.737-48.26,68.012-48.267,31.361-.008,42.238,45.059,70.938,42.416,24.687-2.272,28.832-36.739,55.58-42.416,23.28-4.942,47.82,15.293,66.549,35.835" transform="translate(195.159 -68.886)" fill="none" stroke="#fff" stroke-width="1.5"/>
        <path id="Path_78260" data-name="Path 78260" d="M-195.159,662.314c13.1-7.391,32.57-15.4,52.655-10.239,22.017,5.662,24.087,21.842,43.878,28.522,30.6,10.326,44.392-22.011,87.758-24.134C35.482,654.2,46.857,689.8,86.4,681.328c31.419-6.736,33.427-31.189,61.43-31.446,28.965-.267,39.529,25.777,66.55,24.133,23.688-1.442,23.3-24.37,46.073-30.715,40.913-11.4,68.418,50.364,111.892,42.416,34.21-6.254,37.737-48.259,68.012-48.267,31.361-.008,42.238,45.059,70.938,42.417,24.687-2.273,28.832-36.739,55.58-42.417,23.28-4.942,47.82,15.293,66.549,35.835" transform="translate(195.159 -69.567)" fill="none" stroke="#fff" stroke-width="1.5"/>
        <path id="Path_78261" data-name="Path 78261" d="M-195.159,674.337c13.1-7.391,32.57-15.4,52.655-10.239,22.017,5.663,24.087,21.842,43.878,28.522,30.6,10.326,44.392-22.01,87.758-24.134,46.35-2.268,57.725,33.342,97.265,24.865,31.419-6.735,33.427-31.189,61.43-31.446,28.965-.266,39.529,25.778,66.55,24.133,23.688-1.441,23.3-24.37,46.073-30.715,40.913-11.4,68.418,50.364,111.892,42.416,34.21-6.254,37.737-48.259,68.012-48.267,31.361-.008,42.238,45.059,70.938,42.417,24.687-2.273,28.832-36.739,55.58-42.417,23.28-4.942,47.82,15.293,66.549,35.835" transform="translate(195.159 -70.248)" fill="none" stroke="#fff" stroke-width="1.5"/>
      </g>
    </g>
    <g id="Mask_Group_406" data-name="Mask Group 406" transform="translate(1391.841 2809.832)" clip-path="url(#clip-path-2)">
      <g id="Group_43053" data-name="Group 43053" transform="translate(-464.381 -97.99)">
        <path id="Path_78210-2" data-name="Path 78210" d="M-195.159,61.159c13.1-7.391,32.57-15.4,52.655-10.239,22.017,5.662,24.087,21.842,43.878,28.522,30.6,10.326,44.392-22.011,87.758-24.134C35.482,53.039,46.857,88.65,86.4,80.173c31.419-6.736,33.427-31.19,61.43-31.447,28.965-.266,39.529,25.778,66.55,24.134,23.688-1.442,23.3-24.37,46.073-30.715,40.913-11.4,68.418,50.364,111.892,42.416,34.21-6.255,37.737-48.26,68.012-48.267,31.361-.008,42.238,45.059,70.938,42.416,24.687-2.272,28.832-36.739,55.58-42.416,23.28-4.942,47.82,15.293,66.549,35.835" transform="translate(195.159 -35.541)" fill="none" stroke="#fff" stroke-width="1.5"/>
        <path id="Path_78211-2" data-name="Path 78211" d="M-195.159,73.182c13.1-7.391,32.57-15.4,52.655-10.239,22.017,5.662,24.087,21.842,43.878,28.522,30.6,10.326,44.392-22.011,87.758-24.134C35.482,65.063,46.857,100.673,86.4,92.2c31.419-6.736,33.427-31.19,61.43-31.446,28.965-.267,39.529,25.777,66.55,24.133,23.688-1.442,23.3-24.37,46.073-30.715,40.913-11.4,68.418,50.364,111.892,42.416,34.21-6.254,37.737-48.26,68.012-48.267,31.361-.008,42.238,45.059,70.938,42.417,24.687-2.273,28.832-36.74,55.58-42.417,23.28-4.942,47.82,15.293,66.549,35.835" transform="translate(195.159 -36.222)" fill="none" stroke="#fff" stroke-width="1.5"/>
        <path id="Path_78212-2" data-name="Path 78212" d="M-195.159,85.2c13.1-7.391,32.57-15.4,52.655-10.239,22.017,5.662,24.087,21.842,43.878,28.522,30.6,10.326,44.392-22.011,87.758-24.134C35.482,77.086,46.857,112.7,86.4,104.219c31.419-6.736,33.427-31.189,61.43-31.446,28.965-.267,39.529,25.777,66.55,24.133,23.688-1.442,23.3-24.37,46.073-30.715,40.913-11.4,68.418,50.364,111.892,42.416,34.21-6.254,37.737-48.259,68.012-48.267,31.361-.008,42.238,45.059,70.938,42.417,24.687-2.273,28.832-36.739,55.58-42.417,23.28-4.942,47.82,15.293,66.549,35.835" transform="translate(195.159 -36.902)" fill="none" stroke="#fff" stroke-width="1.5"/>
        <path id="Path_78213-2" data-name="Path 78213" d="M-195.159,97.228c13.1-7.391,32.57-15.4,52.655-10.239,22.017,5.663,24.087,21.842,43.878,28.522,30.6,10.326,44.392-22.01,87.758-24.133,46.35-2.269,57.725,33.341,97.265,24.864,31.419-6.735,33.427-31.189,61.43-31.446,28.965-.266,39.529,25.778,66.55,24.133,23.688-1.442,23.3-24.37,46.073-30.715,40.913-11.4,68.418,50.364,111.892,42.416,34.21-6.254,37.737-48.259,68.012-48.267,31.361-.008,42.238,45.059,70.938,42.417,24.687-2.273,28.832-36.739,55.58-42.417,23.28-4.942,47.82,15.293,66.549,35.835" transform="translate(195.159 -37.583)" fill="none" stroke="#fff" stroke-width="1.5"/>
        <path id="Path_78214-2" data-name="Path 78214" d="M-195.159,109.251c13.1-7.391,32.57-15.4,52.655-10.239,22.017,5.663,24.087,21.842,43.878,28.522,30.6,10.326,44.392-22.01,87.758-24.133,46.35-2.269,57.725,33.341,97.265,24.864,31.419-6.735,33.427-31.189,61.43-31.446,28.965-.266,39.529,25.778,66.55,24.133,23.688-1.442,23.3-24.37,46.073-30.715,40.913-11.4,68.418,50.364,111.892,42.416,34.21-6.254,37.737-48.259,68.012-48.266,31.361-.008,42.238,45.058,70.938,42.416,24.687-2.273,28.832-36.739,55.58-42.416,23.28-4.942,47.82,15.292,66.549,35.834" transform="translate(195.159 -38.263)" fill="none" stroke="#fff" stroke-width="1.5"/>
        <path id="Path_78215-2" data-name="Path 78215" d="M-195.159,121.274c13.1-7.391,32.57-15.4,52.655-10.238,22.017,5.662,24.087,21.841,43.878,28.521,30.6,10.326,44.392-22.01,87.758-24.133,46.35-2.269,57.725,33.341,97.265,24.864,31.419-6.735,33.427-31.189,61.43-31.446,28.965-.266,39.529,25.778,66.55,24.133,23.688-1.442,23.3-24.37,46.073-30.715,40.913-11.4,68.418,50.364,111.892,42.416,34.21-6.254,37.737-48.259,68.012-48.266,31.361-.008,42.238,45.058,70.938,42.416,24.687-2.273,28.832-36.739,55.58-42.416,23.28-4.942,47.82,15.292,66.549,35.834" transform="translate(195.159 -38.944)" fill="none" stroke="#fff" stroke-width="1.5"/>
        <path id="Path_78216-2" data-name="Path 78216" d="M-195.159,133.3c13.1-7.391,32.57-15.4,52.655-10.238,22.017,5.662,24.087,21.841,43.878,28.521,30.6,10.326,44.392-22.01,87.758-24.133,46.35-2.269,57.725,33.342,97.265,24.864,31.419-6.735,33.427-31.189,61.43-31.446,28.965-.266,39.529,25.778,66.55,24.133,23.688-1.442,23.3-24.37,46.073-30.715,40.913-11.4,68.418,50.364,111.892,42.417,34.21-6.255,37.737-48.26,68.012-48.267,31.361-.008,42.238,45.058,70.938,42.416,24.687-2.273,28.832-36.739,55.58-42.416,23.28-4.942,47.82,15.292,66.549,35.834" transform="translate(195.159 -39.624)" fill="none" stroke="#fff" stroke-width="1.5"/>
        <path id="Path_78217-2" data-name="Path 78217" d="M-195.159,145.32c13.1-7.39,32.57-15.4,52.655-10.238,22.017,5.662,24.087,21.841,43.878,28.521,30.6,10.326,44.392-22.01,87.758-24.133,46.35-2.269,57.725,33.342,97.265,24.865,31.419-6.736,33.427-31.19,61.43-31.447,28.965-.266,39.529,25.778,66.55,24.134,23.688-1.442,23.3-24.371,46.073-30.716,40.913-11.4,68.418,50.364,111.892,42.417,34.21-6.255,37.737-48.26,68.012-48.267,31.361-.008,42.238,45.058,70.938,42.416,24.687-2.273,28.832-36.739,55.58-42.416,23.28-4.942,47.82,15.292,66.549,35.834" transform="translate(195.159 -40.305)" fill="none" stroke="#fff" stroke-width="1.5"/>
        <path id="Path_78218-2" data-name="Path 78218" d="M-195.159,157.344c13.1-7.391,32.57-15.4,52.655-10.239,22.017,5.662,24.087,21.842,43.878,28.521,30.6,10.327,44.392-22.01,87.758-24.133,46.35-2.269,57.725,33.342,97.265,24.865,31.419-6.736,33.427-31.19,61.43-31.447,28.965-.266,39.529,25.778,66.55,24.134,23.688-1.442,23.3-24.371,46.073-30.715,40.913-11.4,68.418,50.363,111.892,42.416,34.21-6.255,37.737-48.26,68.012-48.267,31.361-.008,42.238,45.059,70.938,42.416,24.687-2.273,28.832-36.739,55.58-42.416,23.28-4.942,47.82,15.293,66.549,35.834" transform="translate(195.159 -40.985)" fill="none" stroke="#fff" stroke-width="1.5"/>
        <path id="Path_78219-2" data-name="Path 78219" d="M-195.159,169.367c13.1-7.391,32.57-15.4,52.655-10.239,22.017,5.662,24.087,21.842,43.878,28.522,30.6,10.326,44.392-22.011,87.758-24.134,46.35-2.269,57.725,33.342,97.265,24.865,31.419-6.736,33.427-31.19,61.43-31.447,28.965-.266,39.529,25.778,66.55,24.134,23.688-1.442,23.3-24.371,46.073-30.715,40.913-11.4,68.418,50.364,111.892,42.416,34.21-6.255,37.737-48.26,68.012-48.267,31.361-.008,42.238,45.059,70.938,42.416,24.687-2.272,28.832-36.739,55.58-42.416,23.28-4.942,47.82,15.293,66.549,35.835" transform="translate(195.159 -41.666)" fill="none" stroke="#fff" stroke-width="1.5"/>
        <path id="Path_78220-2" data-name="Path 78220" d="M-195.159,181.39c13.1-7.391,32.57-15.4,52.655-10.239,22.017,5.662,24.087,21.842,43.878,28.522,30.6,10.326,44.392-22.011,87.758-24.134C35.482,173.27,46.857,208.881,86.4,200.4c31.419-6.736,33.427-31.19,61.43-31.446,28.965-.267,39.529,25.777,66.55,24.133,23.688-1.442,23.3-24.37,46.073-30.715,40.913-11.4,68.418,50.364,111.892,42.416,34.21-6.255,37.737-48.26,68.012-48.267,31.361-.008,42.238,45.059,70.938,42.416,24.687-2.272,28.832-36.739,55.58-42.416,23.28-4.942,47.82,15.293,66.549,35.835" transform="translate(195.159 -42.346)" fill="none" stroke="#fff" stroke-width="1.5"/>
        <path id="Path_78221-2" data-name="Path 78221" d="M-195.159,193.413c13.1-7.391,32.57-15.4,52.655-10.239,22.017,5.662,24.087,21.842,43.878,28.522,30.6,10.326,44.392-22.011,87.758-24.134,46.35-2.268,57.725,33.342,97.265,24.865,31.419-6.736,33.427-31.189,61.43-31.446,28.965-.267,39.529,25.777,66.55,24.133,23.688-1.442,23.3-24.37,46.073-30.715,40.913-11.4,68.418,50.364,111.892,42.416,34.21-6.254,37.737-48.26,68.012-48.267,31.361-.008,42.238,45.059,70.938,42.417,24.687-2.273,28.832-36.739,55.58-42.417,23.28-4.942,47.82,15.293,66.549,35.835" transform="translate(195.159 -43.027)" fill="none" stroke="#fff" stroke-width="1.5"/>
        <path id="Path_78222-2" data-name="Path 78222" d="M-195.159,205.436c13.1-7.391,32.57-15.4,52.655-10.239,22.017,5.663,24.087,21.842,43.878,28.522,30.6,10.326,44.392-22.011,87.758-24.134,46.35-2.268,57.725,33.342,97.265,24.865,31.419-6.736,33.427-31.189,61.43-31.446,28.965-.267,39.529,25.777,66.55,24.133,23.688-1.442,23.3-24.37,46.073-30.715,40.913-11.4,68.418,50.364,111.892,42.416,34.21-6.254,37.737-48.259,68.012-48.267,31.361-.008,42.238,45.059,70.938,42.417,24.687-2.273,28.832-36.739,55.58-42.417,23.28-4.942,47.82,15.293,66.549,35.835" transform="translate(195.159 -43.707)" fill="none" stroke="#fff" stroke-width="1.5"/>
        <path id="Path_78223-2" data-name="Path 78223" d="M-195.159,217.459c13.1-7.391,32.57-15.4,52.655-10.239,22.017,5.663,24.087,21.842,43.878,28.522,30.6,10.326,44.392-22.01,87.758-24.133,46.35-2.269,57.725,33.341,97.265,24.864,31.419-6.735,33.427-31.189,61.43-31.446,28.965-.266,39.529,25.778,66.55,24.133,23.688-1.442,23.3-24.37,46.073-30.715,40.913-11.4,68.418,50.364,111.892,42.416,34.21-6.254,37.737-48.259,68.012-48.266,31.361-.008,42.238,45.058,70.938,42.416,24.687-2.273,28.832-36.739,55.58-42.416,23.28-4.942,47.82,15.293,66.549,35.834" transform="translate(195.159 -44.388)" fill="none" stroke="#fff" stroke-width="1.5"/>
        <path id="Path_78224-2" data-name="Path 78224" d="M-195.159,229.482c13.1-7.391,32.57-15.4,52.655-10.239,22.017,5.663,24.087,21.842,43.878,28.522,30.6,10.326,44.392-22.01,87.758-24.133,46.35-2.269,57.725,33.341,97.265,24.864,31.419-6.735,33.427-31.189,61.43-31.446,28.965-.266,39.529,25.778,66.55,24.133,23.688-1.442,23.3-24.37,46.073-30.715,40.913-11.4,68.418,50.364,111.892,42.416,34.21-6.254,37.737-48.259,68.012-48.266,31.361-.008,42.238,45.058,70.938,42.416,24.687-2.273,28.832-36.739,55.58-42.416,23.28-4.942,47.82,15.292,66.549,35.834" transform="translate(195.159 -45.068)" fill="none" stroke="#fff" stroke-width="1.5"/>
        <path id="Path_78225-2" data-name="Path 78225" d="M-195.159,241.505c13.1-7.391,32.57-15.4,52.655-10.238,22.017,5.662,24.087,21.841,43.878,28.521,30.6,10.326,44.392-22.01,87.758-24.133C35.482,233.386,46.857,269,86.4,260.519c31.419-6.735,33.427-31.189,61.43-31.446,28.965-.266,39.529,25.778,66.55,24.133,23.688-1.442,23.3-24.37,46.073-30.715,40.913-11.4,68.418,50.364,111.892,42.417,34.21-6.255,37.737-48.26,68.012-48.267,31.361-.008,42.238,45.058,70.938,42.416,24.687-2.273,28.832-36.739,55.58-42.416,23.28-4.942,47.82,15.292,66.549,35.834" transform="translate(195.159 -45.749)" fill="none" stroke="#fff" stroke-width="1.5"/>
        <path id="Path_78226-2" data-name="Path 78226" d="M-195.159,253.528c13.1-7.39,32.57-15.4,52.655-10.238,22.017,5.662,24.087,21.841,43.878,28.521,30.6,10.326,44.392-22.01,87.758-24.133,46.35-2.269,57.725,33.342,97.265,24.864,31.419-6.735,33.427-31.189,61.43-31.446,28.965-.266,39.529,25.778,66.55,24.134,23.688-1.442,23.3-24.371,46.073-30.716,40.913-11.4,68.418,50.364,111.892,42.417,34.21-6.255,37.737-48.26,68.012-48.267,31.361-.008,42.238,45.058,70.938,42.416,24.687-2.273,28.832-36.739,55.58-42.416,23.28-4.942,47.82,15.292,66.549,35.834" transform="translate(195.159 -46.429)" fill="none" stroke="#fff" stroke-width="1.5"/>
        <path id="Path_78227-2" data-name="Path 78227" d="M-195.159,265.552c13.1-7.391,32.57-15.4,52.655-10.239,22.017,5.662,24.087,21.842,43.878,28.521,30.6,10.327,44.392-22.01,87.758-24.133,46.35-2.269,57.725,33.342,97.265,24.865,31.419-6.736,33.427-31.19,61.43-31.447,28.965-.266,39.529,25.778,66.55,24.134,23.688-1.442,23.3-24.371,46.073-30.716,40.913-11.4,68.418,50.364,111.892,42.417,34.21-6.255,37.737-48.26,68.012-48.267,31.361-.008,42.238,45.058,70.938,42.416,24.687-2.273,28.832-36.739,55.58-42.416,23.28-4.942,47.82,15.293,66.549,35.834" transform="translate(195.159 -47.11)" fill="none" stroke="#fff" stroke-width="1.5"/>
        <path id="Path_78228-2" data-name="Path 78228" d="M-195.159,277.575c13.1-7.391,32.57-15.4,52.655-10.239,22.017,5.662,24.087,21.842,43.878,28.521,30.6,10.327,44.392-22.01,87.758-24.133,46.35-2.269,57.725,33.342,97.265,24.865,31.419-6.736,33.427-31.19,61.43-31.447,28.965-.266,39.529,25.778,66.55,24.134,23.688-1.442,23.3-24.371,46.073-30.715,40.913-11.4,68.418,50.363,111.892,42.416,34.21-6.255,37.737-48.26,68.012-48.267,31.361-.008,42.238,45.059,70.938,42.416,24.687-2.272,28.832-36.739,55.58-42.416,23.28-4.942,47.82,15.293,66.549,35.835" transform="translate(195.159 -47.79)" fill="none" stroke="#fff" stroke-width="1.5"/>
        <path id="Path_78229-2" data-name="Path 78229" d="M-195.159,289.6c13.1-7.391,32.57-15.4,52.655-10.239,22.017,5.662,24.087,21.842,43.878,28.522,30.6,10.326,44.392-22.011,87.758-24.134,46.35-2.269,57.725,33.342,97.265,24.865,31.419-6.736,33.427-31.19,61.43-31.447,28.965-.266,39.529,25.778,66.55,24.134,23.688-1.441,23.3-24.37,46.073-30.715,40.913-11.4,68.418,50.364,111.892,42.416,34.21-6.255,37.737-48.26,68.012-48.267,31.361-.008,42.238,45.059,70.938,42.416,24.687-2.272,28.832-36.739,55.58-42.416,23.28-4.942,47.82,15.293,66.549,35.835" transform="translate(195.159 -48.471)" fill="none" stroke="#fff" stroke-width="1.5"/>
        <path id="Path_78230-2" data-name="Path 78230" d="M-195.159,301.621c13.1-7.391,32.57-15.4,52.655-10.239,22.017,5.662,24.087,21.842,43.878,28.522,30.6,10.326,44.392-22.011,87.758-24.134,46.35-2.269,57.725,33.342,97.265,24.865,31.419-6.736,33.427-31.19,61.43-31.446,28.965-.267,39.529,25.777,66.55,24.133,23.688-1.442,23.3-24.37,46.073-30.715,40.913-11.4,68.418,50.364,111.892,42.416,34.21-6.254,37.737-48.26,68.012-48.267,31.361-.008,42.238,45.059,70.938,42.416,24.687-2.272,28.832-36.739,55.58-42.416,23.28-4.942,47.82,15.293,66.549,35.835" transform="translate(195.159 -49.151)" fill="none" stroke="#fff" stroke-width="1.5"/>
        <path id="Path_78231-2" data-name="Path 78231" d="M-195.159,313.644c13.1-7.391,32.57-15.4,52.655-10.239,22.017,5.662,24.087,21.842,43.878,28.522,30.6,10.326,44.392-22.011,87.758-24.134,46.35-2.268,57.725,33.342,97.265,24.865,31.419-6.736,33.427-31.189,61.43-31.446,28.965-.267,39.529,25.777,66.55,24.133,23.688-1.442,23.3-24.37,46.073-30.715,40.913-11.4,68.418,50.364,111.892,42.416,34.21-6.254,37.737-48.26,68.012-48.267,31.361-.008,42.238,45.059,70.938,42.417,24.687-2.273,28.832-36.739,55.58-42.417,23.28-4.942,47.82,15.293,66.549,35.835" transform="translate(195.159 -49.832)" fill="none" stroke="#fff" stroke-width="1.5"/>
        <path id="Path_78232-2" data-name="Path 78232" d="M-195.159,325.667c13.1-7.391,32.57-15.4,52.655-10.239,22.017,5.663,24.087,21.842,43.878,28.522,30.6,10.326,44.392-22.01,87.758-24.134,46.35-2.268,57.725,33.342,97.265,24.865,31.419-6.735,33.427-31.189,61.43-31.446,28.965-.266,39.529,25.778,66.55,24.133,23.688-1.442,23.3-24.37,46.073-30.715,40.913-11.4,68.418,50.364,111.892,42.416,34.21-6.254,37.737-48.259,68.012-48.267,31.361-.008,42.238,45.059,70.938,42.417,24.687-2.273,28.832-36.739,55.58-42.417,23.28-4.942,47.82,15.293,66.549,35.835" transform="translate(195.159 -50.512)" fill="none" stroke="#fff" stroke-width="1.5"/>
        <path id="Path_78233-2" data-name="Path 78233" d="M-195.159,337.69c13.1-7.391,32.57-15.4,52.655-10.239,22.017,5.663,24.087,21.842,43.878,28.522,30.6,10.326,44.392-22.01,87.758-24.133,46.35-2.269,57.725,33.341,97.265,24.864,31.419-6.735,33.427-31.189,61.43-31.446,28.965-.266,39.529,25.778,66.55,24.133,23.688-1.442,23.3-24.37,46.073-30.715,40.913-11.4,68.418,50.364,111.892,42.416,34.21-6.254,37.737-48.259,68.012-48.266,31.361-.009,42.238,45.058,70.938,42.416,24.687-2.273,28.832-36.739,55.58-42.416,23.28-4.943,47.82,15.292,66.549,35.834" transform="translate(195.159 -51.193)" fill="none" stroke="#fff" stroke-width="1.5"/>
        <path id="Path_78234-2" data-name="Path 78234" d="M-195.159,349.713c13.1-7.391,32.57-15.4,52.655-10.238,22.017,5.662,24.087,21.841,43.878,28.521,30.6,10.326,44.392-22.01,87.758-24.133,46.35-2.269,57.725,33.341,97.265,24.864,31.419-6.735,33.427-31.189,61.43-31.446,28.965-.266,39.529,25.778,66.55,24.133,23.688-1.442,23.3-24.37,46.073-30.715,40.913-11.4,68.418,50.364,111.892,42.416,34.21-6.254,37.737-48.259,68.012-48.266,31.361-.008,42.238,45.058,70.938,42.416,24.687-2.273,28.832-36.739,55.58-42.416,23.28-4.942,47.82,15.293,66.549,35.834" transform="translate(195.159 -51.874)" fill="none" stroke="#fff" stroke-width="1.5"/>
        <path id="Path_78235-2" data-name="Path 78235" d="M-195.159,361.736c13.1-7.391,32.57-15.4,52.655-10.238,22.017,5.662,24.087,21.841,43.878,28.521,30.6,10.326,44.392-22.01,87.758-24.133,46.35-2.269,57.725,33.342,97.265,24.864,31.419-6.735,33.427-31.189,61.43-31.446,28.965-.266,39.529,25.778,66.55,24.133,23.688-1.441,23.3-24.37,46.073-30.715,40.913-11.4,68.418,50.364,111.892,42.417,34.21-6.255,37.737-48.26,68.012-48.267,31.361-.008,42.238,45.058,70.938,42.416,24.687-2.273,28.832-36.739,55.58-42.416,23.28-4.942,47.82,15.293,66.549,35.834" transform="translate(195.159 -52.554)" fill="none" stroke="#fff" stroke-width="1.5"/>
        <path id="Path_78236-2" data-name="Path 78236" d="M-195.159,373.759c13.1-7.39,32.57-15.4,52.655-10.238,22.017,5.662,24.087,21.841,43.878,28.521,30.6,10.326,44.392-22.01,87.758-24.133,46.35-2.269,57.725,33.342,97.265,24.864,31.419-6.735,33.427-31.189,61.43-31.446,28.965-.266,39.529,25.778,66.55,24.134,23.688-1.442,23.3-24.371,46.073-30.716,40.913-11.4,68.418,50.364,111.892,42.417,34.21-6.255,37.737-48.26,68.012-48.267,31.361-.008,42.238,45.058,70.938,42.416,24.687-2.273,28.832-36.739,55.58-42.416,23.28-4.942,47.82,15.292,66.549,35.834" transform="translate(195.159 -53.235)" fill="none" stroke="#fff" stroke-width="1.5"/>
        <path id="Path_78237-2" data-name="Path 78237" d="M-195.159,385.783c13.1-7.391,32.57-15.4,52.655-10.239,22.017,5.662,24.087,21.842,43.878,28.521,30.6,10.327,44.392-22.01,87.758-24.133,46.35-2.269,57.725,33.342,97.265,24.865,31.419-6.736,33.427-31.19,61.43-31.447,28.965-.266,39.529,25.778,66.55,24.134,23.688-1.442,23.3-24.371,46.073-30.715,40.913-11.4,68.418,50.363,111.892,42.416,34.21-6.255,37.737-48.26,68.012-48.267,31.361-.008,42.238,45.059,70.938,42.416,24.687-2.273,28.832-36.739,55.58-42.416,23.28-4.942,47.82,15.293,66.549,35.834" transform="translate(195.159 -53.915)" fill="none" stroke="#fff" stroke-width="1.5"/>
        <path id="Path_78238-2" data-name="Path 78238" d="M-195.159,397.806c13.1-7.391,32.57-15.4,52.655-10.239,22.017,5.662,24.087,21.842,43.878,28.522,30.6,10.326,44.392-22.011,87.758-24.134C35.482,389.686,46.857,425.3,86.4,416.82c31.419-6.736,33.427-31.19,61.43-31.447,28.965-.266,39.529,25.778,66.55,24.134,23.688-1.442,23.3-24.371,46.073-30.715,40.913-11.4,68.418,50.364,111.892,42.416,34.21-6.255,37.737-48.26,68.012-48.267,31.361-.008,42.238,45.059,70.938,42.416,24.687-2.272,28.832-36.739,55.58-42.416,23.28-4.942,47.82,15.293,66.549,35.835" transform="translate(195.159 -54.596)" fill="none" stroke="#fff" stroke-width="1.5"/>
        <path id="Path_78239-2" data-name="Path 78239" d="M-195.159,409.829c13.1-7.391,32.57-15.4,52.655-10.239,22.017,5.662,24.087,21.842,43.878,28.522,30.6,10.326,44.392-22.011,87.758-24.134,46.35-2.269,57.725,33.342,97.265,24.865,31.419-6.736,33.427-31.19,61.43-31.447,28.965-.266,39.529,25.778,66.55,24.134,23.688-1.442,23.3-24.37,46.073-30.715,40.913-11.4,68.418,50.364,111.892,42.416,34.21-6.255,37.737-48.26,68.012-48.267,31.361-.008,42.238,45.059,70.938,42.416,24.687-2.272,28.832-36.739,55.58-42.416,23.28-4.942,47.82,15.293,66.549,35.835" transform="translate(195.159 -55.276)" fill="none" stroke="#fff" stroke-width="1.5"/>
        <path id="Path_78240-2" data-name="Path 78240" d="M-195.159,421.852c13.1-7.391,32.57-15.4,52.655-10.239,22.017,5.662,24.087,21.842,43.878,28.522,30.6,10.326,44.392-22.011,87.758-24.134,46.35-2.268,57.725,33.342,97.265,24.865,31.419-6.736,33.427-31.19,61.43-31.446,28.965-.267,39.529,25.777,66.55,24.133,23.688-1.441,23.3-24.37,46.073-30.715,40.913-11.4,68.418,50.364,111.892,42.416,34.21-6.254,37.737-48.26,68.012-48.267,31.361-.008,42.238,45.059,70.938,42.417,24.687-2.273,28.832-36.74,55.58-42.417,23.28-4.942,47.82,15.293,66.549,35.835" transform="translate(195.159 -55.957)" fill="none" stroke="#fff" stroke-width="1.5"/>
        <path id="Path_78241-2" data-name="Path 78241" d="M-195.159,433.875c13.1-7.391,32.57-15.4,52.655-10.239,22.017,5.662,24.087,21.842,43.878,28.522,30.6,10.326,44.392-22.011,87.758-24.134,46.35-2.268,57.725,33.342,97.265,24.865,31.419-6.736,33.427-31.189,61.43-31.446,28.965-.267,39.529,25.777,66.55,24.133,23.688-1.442,23.3-24.37,46.073-30.715,40.913-11.4,68.418,50.364,111.892,42.416,34.21-6.254,37.737-48.259,68.012-48.267,31.361-.008,42.238,45.059,70.938,42.417,24.687-2.273,28.832-36.739,55.58-42.417,23.28-4.942,47.82,15.293,66.549,35.835" transform="translate(195.159 -56.637)" fill="none" stroke="#fff" stroke-width="1.5"/>
        <path id="Path_78242-2" data-name="Path 78242" d="M-195.159,445.9c13.1-7.391,32.57-15.4,52.655-10.239,22.017,5.663,24.087,21.842,43.878,28.522,30.6,10.326,44.392-22.01,87.758-24.133,46.35-2.269,57.725,33.341,97.265,24.864,31.419-6.735,33.427-31.189,61.43-31.446,28.965-.266,39.529,25.778,66.55,24.133,23.688-1.442,23.3-24.37,46.073-30.715,40.913-11.4,68.418,50.364,111.892,42.416,34.21-6.254,37.737-48.259,68.012-48.267,31.361-.008,42.238,45.059,70.938,42.417,24.687-2.273,28.832-36.739,55.58-42.417,23.28-4.942,47.82,15.293,66.549,35.835" transform="translate(195.159 -57.318)" fill="none" stroke="#fff" stroke-width="1.5"/>
        <path id="Path_78243-2" data-name="Path 78243" d="M-195.159,457.921c13.1-7.391,32.57-15.4,52.655-10.239,22.017,5.663,24.087,21.842,43.878,28.522,30.6,10.326,44.392-22.01,87.758-24.133,46.35-2.269,57.725,33.341,97.265,24.864,31.419-6.735,33.427-31.189,61.43-31.446,28.965-.266,39.529,25.778,66.55,24.133,23.688-1.441,23.3-24.37,46.073-30.715,40.913-11.4,68.418,50.364,111.892,42.416,34.21-6.254,37.737-48.259,68.012-48.266,31.361-.009,42.238,45.058,70.938,42.416,24.687-2.273,28.832-36.739,55.58-42.416,23.28-4.942,47.82,15.293,66.549,35.834" transform="translate(195.159 -57.998)" fill="none" stroke="#fff" stroke-width="1.5"/>
        <path id="Path_78244-2" data-name="Path 78244" d="M-195.159,469.944c13.1-7.391,32.57-15.4,52.655-10.238,22.017,5.662,24.087,21.841,43.878,28.521,30.6,10.326,44.392-22.01,87.758-24.133,46.35-2.269,57.725,33.341,97.265,24.864,31.419-6.735,33.427-31.189,61.43-31.446,28.965-.266,39.529,25.778,66.55,24.133,23.688-1.442,23.3-24.37,46.073-30.715,40.913-11.4,68.418,50.364,111.892,42.417,34.21-6.255,37.737-48.26,68.012-48.267,31.361-.008,42.238,45.058,70.938,42.416,24.687-2.273,28.832-36.739,55.58-42.416,23.28-4.942,47.82,15.293,66.549,35.834" transform="translate(195.159 -58.679)" fill="none" stroke="#fff" stroke-width="1.5"/>
        <path id="Path_78245-2" data-name="Path 78245" d="M-195.159,481.967c13.1-7.391,32.57-15.4,52.655-10.238,22.017,5.662,24.087,21.841,43.878,28.521,30.6,10.326,44.392-22.01,87.758-24.133,46.35-2.269,57.725,33.342,97.265,24.864,31.419-6.735,33.427-31.189,61.43-31.446,28.965-.266,39.529,25.778,66.55,24.134,23.688-1.442,23.3-24.371,46.073-30.716,40.913-11.4,68.418,50.364,111.892,42.417,34.21-6.255,37.737-48.26,68.012-48.267,31.361-.008,42.238,45.058,70.938,42.416,24.687-2.273,28.832-36.739,55.58-42.416,23.28-4.942,47.82,15.293,66.549,35.834" transform="translate(195.159 -59.359)" fill="none" stroke="#fff" stroke-width="1.5"/>
        <path id="Path_78246-2" data-name="Path 78246" d="M-195.159,493.99c13.1-7.39,32.57-15.4,52.655-10.238,22.017,5.662,24.087,21.841,43.878,28.521,30.6,10.327,44.392-22.01,87.758-24.133,46.35-2.269,57.725,33.342,97.265,24.865,31.419-6.736,33.427-31.19,61.43-31.447,28.965-.266,39.529,25.778,66.55,24.134,23.688-1.442,23.3-24.371,46.073-30.716,40.913-11.4,68.418,50.364,111.892,42.417,34.21-6.255,37.737-48.26,68.012-48.267,31.361-.008,42.238,45.058,70.938,42.416,24.687-2.273,28.832-36.739,55.58-42.416,23.28-4.941,47.82,15.293,66.549,35.834" transform="translate(195.159 -60.04)" fill="none" stroke="#fff" stroke-width="1.5"/>
        <path id="Path_78247-2" data-name="Path 78247" d="M-195.159,506.014c13.1-7.391,32.57-15.4,52.655-10.239,22.017,5.662,24.087,21.842,43.878,28.521,30.6,10.327,44.392-22.01,87.758-24.133,46.35-2.269,57.725,33.342,97.265,24.865,31.419-6.736,33.427-31.19,61.43-31.447,28.965-.266,39.529,25.778,66.55,24.134,23.688-1.442,23.3-24.371,46.073-30.715,40.913-11.4,68.418,50.363,111.892,42.416,34.21-6.255,37.737-48.26,68.012-48.267,31.361-.008,42.238,45.059,70.938,42.416,24.687-2.273,28.832-36.739,55.58-42.416,23.28-4.942,47.82,15.293,66.549,35.835" transform="translate(195.159 -60.72)" fill="none" stroke="#fff" stroke-width="1.5"/>
        <path id="Path_78248-2" data-name="Path 78248" d="M-195.159,518.037c13.1-7.391,32.57-15.4,52.655-10.239,22.017,5.662,24.087,21.842,43.878,28.522,30.6,10.326,44.392-22.011,87.758-24.134,46.35-2.269,57.725,33.342,97.265,24.865,31.419-6.736,33.427-31.19,61.43-31.447,28.965-.266,39.529,25.778,66.55,24.134,23.688-1.442,23.3-24.37,46.073-30.715,40.913-11.4,68.418,50.364,111.892,42.416,34.21-6.255,37.737-48.26,68.012-48.267,31.361-.008,42.238,45.059,70.938,42.416,24.687-2.272,28.832-36.739,55.58-42.416,23.28-4.942,47.82,15.293,66.549,35.835" transform="translate(195.159 -61.401)" fill="none" stroke="#fff" stroke-width="1.5"/>
        <path id="Path_78249-2" data-name="Path 78249" d="M-195.159,530.06c13.1-7.391,32.57-15.4,52.655-10.239,22.017,5.662,24.087,21.842,43.878,28.522,30.6,10.326,44.392-22.011,87.758-24.134,46.35-2.269,57.725,33.342,97.265,24.865,31.419-6.736,33.427-31.19,61.43-31.446,28.965-.267,39.529,25.777,66.55,24.133,23.688-1.442,23.3-24.37,46.073-30.715,40.913-11.4,68.418,50.364,111.892,42.416,34.21-6.255,37.737-48.26,68.012-48.267,31.361-.008,42.238,45.059,70.938,42.416,24.687-2.272,28.832-36.739,55.58-42.416,23.28-4.941,47.82,15.293,66.549,35.835" transform="translate(195.159 -62.081)" fill="none" stroke="#fff" stroke-width="1.5"/>
        <path id="Path_78250-2" data-name="Path 78250" d="M-195.159,542.083c13.1-7.391,32.57-15.4,52.655-10.239,22.017,5.662,24.087,21.842,43.878,28.522,30.6,10.326,44.392-22.011,87.758-24.134,46.35-2.268,57.725,33.342,97.265,24.865,31.419-6.736,33.427-31.189,61.43-31.446,28.965-.267,39.529,25.777,66.55,24.133,23.688-1.442,23.3-24.37,46.073-30.715,40.913-11.4,68.418,50.364,111.892,42.416,34.21-6.254,37.737-48.26,68.012-48.267,31.361-.008,42.238,45.059,70.938,42.417,24.687-2.273,28.832-36.739,55.58-42.417,23.28-4.941,47.82,15.293,66.549,35.835" transform="translate(195.159 -62.762)" fill="none" stroke="#fff" stroke-width="1.5"/>
        <path id="Path_78251-2" data-name="Path 78251" d="M-195.159,554.106c13.1-7.391,32.57-15.4,52.655-10.239,22.017,5.663,24.087,21.842,43.878,28.522,30.6,10.326,44.392-22.011,87.758-24.134C35.482,545.987,46.857,581.6,86.4,573.12c31.419-6.736,33.427-31.189,61.43-31.446,28.965-.267,39.529,25.778,66.55,24.133,23.688-1.442,23.3-24.37,46.073-30.715,40.913-11.4,68.418,50.364,111.892,42.416,34.21-6.254,37.737-48.259,68.012-48.267,31.361-.008,42.238,45.059,70.938,42.417,24.687-2.273,28.832-36.739,55.58-42.417,23.28-4.942,47.82,15.293,66.549,35.835" transform="translate(195.159 -63.442)" fill="none" stroke="#fff" stroke-width="1.5"/>
        <path id="Path_78252-2" data-name="Path 78252" d="M-195.159,566.129c13.1-7.391,32.57-15.4,52.655-10.239,22.017,5.663,24.087,21.842,43.878,28.522,30.6,10.326,44.392-22.01,87.758-24.133,46.35-2.269,57.725,33.341,97.265,24.864,31.419-6.735,33.427-31.189,61.43-31.446,28.965-.266,39.529,25.778,66.55,24.133,23.688-1.441,23.3-24.37,46.073-30.715,40.913-11.4,68.418,50.364,111.892,42.416,34.21-6.254,37.737-48.259,68.012-48.266,31.361-.008,42.238,45.058,70.938,42.416,24.687-2.273,28.832-36.739,55.58-42.416,23.28-4.943,47.82,15.292,66.549,35.834" transform="translate(195.159 -64.123)" fill="none" stroke="#fff" stroke-width="1.5"/>
        <path id="Path_78253-2" data-name="Path 78253" d="M-195.159,578.152c13.1-7.391,32.57-15.4,52.655-10.238,22.017,5.662,24.087,21.841,43.878,28.521,30.6,10.326,44.392-22.01,87.758-24.133,46.35-2.269,57.725,33.341,97.265,24.864,31.419-6.735,33.427-31.189,61.43-31.446,28.965-.266,39.529,25.778,66.55,24.133,23.688-1.441,23.3-24.37,46.073-30.715,40.913-11.4,68.418,50.364,111.892,42.416,34.21-6.254,37.737-48.259,68.012-48.266,31.361-.008,42.238,45.058,70.938,42.416,24.687-2.273,28.832-36.739,55.58-42.416,23.28-4.942,47.82,15.293,66.549,35.834" transform="translate(195.159 -64.803)" fill="none" stroke="#fff" stroke-width="1.5"/>
        <path id="Path_78254-2" data-name="Path 78254" d="M-195.159,590.175c13.1-7.391,32.57-15.4,52.655-10.238,22.017,5.662,24.087,21.841,43.878,28.521,30.6,10.326,44.392-22.01,87.758-24.133,46.35-2.269,57.725,33.342,97.265,24.864,31.419-6.735,33.427-31.189,61.43-31.446,28.965-.266,39.529,25.778,66.55,24.133,23.688-1.442,23.3-24.37,46.073-30.715,40.913-11.4,68.418,50.364,111.892,42.417,34.21-6.255,37.737-48.26,68.012-48.267,31.361-.009,42.238,45.058,70.938,42.416,24.687-2.273,28.832-36.739,55.58-42.416,23.28-4.942,47.82,15.292,66.549,35.834" transform="translate(195.159 -65.484)" fill="none" stroke="#fff" stroke-width="1.5"/>
        <path id="Path_78255-2" data-name="Path 78255" d="M-195.159,602.2c13.1-7.39,32.57-15.4,52.655-10.238,22.017,5.662,24.087,21.841,43.878,28.521,30.6,10.326,44.392-22.01,87.758-24.133,46.35-2.269,57.725,33.342,97.265,24.864,31.419-6.735,33.427-31.189,61.43-31.446,28.965-.266,39.529,25.778,66.55,24.134,23.688-1.442,23.3-24.371,46.073-30.716,40.913-11.4,68.418,50.364,111.892,42.417,34.21-6.255,37.737-48.26,68.012-48.267,31.361-.009,42.238,45.058,70.938,42.416,24.687-2.273,28.832-36.739,55.58-42.416,23.28-4.942,47.82,15.292,66.549,35.834" transform="translate(195.159 -66.164)" fill="none" stroke="#fff" stroke-width="1.5"/>
        <path id="Path_78256-2" data-name="Path 78256" d="M-195.159,614.222c13.1-7.391,32.57-15.4,52.655-10.239,22.017,5.662,24.087,21.842,43.878,28.521,30.6,10.327,44.392-22.01,87.758-24.133,46.35-2.269,57.725,33.342,97.265,24.865,31.419-6.736,33.427-31.19,61.43-31.447,28.965-.266,39.529,25.778,66.55,24.134,23.688-1.443,23.3-24.371,46.073-30.715,40.913-11.4,68.418,50.363,111.892,42.416,34.21-6.255,37.737-48.26,68.012-48.267,31.361-.008,42.238,45.059,70.938,42.416,24.687-2.273,28.832-36.739,55.58-42.416,23.28-4.942,47.82,15.293,66.549,35.834" transform="translate(195.159 -66.845)" fill="none" stroke="#fff" stroke-width="1.5"/>
        <path id="Path_78257-2" data-name="Path 78257" d="M-195.159,626.245c13.1-7.391,32.57-15.4,52.655-10.239,22.017,5.662,24.087,21.842,43.878,28.521,30.6,10.327,44.392-22.01,87.758-24.133,46.35-2.269,57.725,33.342,97.265,24.865,31.419-6.736,33.427-31.19,61.43-31.447,28.965-.266,39.529,25.778,66.55,24.134,23.688-1.442,23.3-24.371,46.073-30.715,40.913-11.4,68.418,50.363,111.892,42.416,34.21-6.255,37.737-48.26,68.012-48.267,31.361-.008,42.238,45.059,70.938,42.416,24.687-2.272,28.832-36.739,55.58-42.416,23.28-4.942,47.82,15.293,66.549,35.835" transform="translate(195.159 -67.526)" fill="none" stroke="#fff" stroke-width="1.5"/>
        <path id="Path_78258-2" data-name="Path 78258" d="M-195.159,638.268c13.1-7.391,32.57-15.4,52.655-10.239,22.017,5.662,24.087,21.842,43.878,28.522,30.6,10.326,44.392-22.011,87.758-24.134,46.35-2.269,57.725,33.342,97.265,24.865,31.419-6.736,33.427-31.19,61.43-31.447,28.965-.266,39.529,25.778,66.55,24.134,23.688-1.442,23.3-24.37,46.073-30.715,40.913-11.4,68.418,50.364,111.892,42.416,34.21-6.255,37.737-48.26,68.012-48.267,31.361-.008,42.238,45.059,70.938,42.416,24.687-2.272,28.832-36.739,55.58-42.416,23.28-4.941,47.82,15.293,66.549,35.835" transform="translate(195.159 -68.206)" fill="none" stroke="#fff" stroke-width="1.5"/>
        <path id="Path_78259-2" data-name="Path 78259" d="M-195.159,650.291c13.1-7.391,32.57-15.4,52.655-10.239,22.017,5.662,24.087,21.842,43.878,28.522,30.6,10.326,44.392-22.011,87.758-24.134,46.35-2.269,57.725,33.342,97.265,24.865,31.419-6.736,33.427-31.19,61.43-31.446,28.965-.267,39.529,25.777,66.55,24.133,23.688-1.442,23.3-24.37,46.073-30.715,40.913-11.4,68.418,50.364,111.892,42.416,34.21-6.254,37.737-48.26,68.012-48.267,31.361-.008,42.238,45.059,70.938,42.416,24.687-2.272,28.832-36.739,55.58-42.416,23.28-4.942,47.82,15.293,66.549,35.835" transform="translate(195.159 -68.886)" fill="none" stroke="#fff" stroke-width="1.5"/>
        <path id="Path_78260-2" data-name="Path 78260" d="M-195.159,662.314c13.1-7.391,32.57-15.4,52.655-10.239,22.017,5.662,24.087,21.842,43.878,28.522,30.6,10.326,44.392-22.011,87.758-24.134C35.482,654.2,46.857,689.8,86.4,681.328c31.419-6.736,33.427-31.189,61.43-31.446,28.965-.267,39.529,25.777,66.55,24.133,23.688-1.442,23.3-24.37,46.073-30.715,40.913-11.4,68.418,50.364,111.892,42.416,34.21-6.254,37.737-48.259,68.012-48.267,31.361-.008,42.238,45.059,70.938,42.417,24.687-2.273,28.832-36.739,55.58-42.417,23.28-4.942,47.82,15.293,66.549,35.835" transform="translate(195.159 -69.567)" fill="none" stroke="#fff" stroke-width="1.5"/>
        <path id="Path_78261-2" data-name="Path 78261" d="M-195.159,674.337c13.1-7.391,32.57-15.4,52.655-10.239,22.017,5.663,24.087,21.842,43.878,28.522,30.6,10.326,44.392-22.01,87.758-24.134,46.35-2.268,57.725,33.342,97.265,24.865,31.419-6.735,33.427-31.189,61.43-31.446,28.965-.266,39.529,25.778,66.55,24.133,23.688-1.441,23.3-24.37,46.073-30.715,40.913-11.4,68.418,50.364,111.892,42.416,34.21-6.254,37.737-48.259,68.012-48.267,31.361-.008,42.238,45.059,70.938,42.417,24.687-2.273,28.832-36.739,55.58-42.417,23.28-4.942,47.82,15.293,66.549,35.835" transform="translate(195.159 -70.248)" fill="none" stroke="#fff" stroke-width="1.5"/>
      </g>
    </g>
  </g>
</svg>
